<?xml version="1.0" encoding="UTF-8" standalone="no"?>
<!-- Created with Inkscape (http://www.inkscape.org/) -->

<svg
   xmlns:dc="http://purl.org/dc/elements/1.1/"
   xmlns:cc="http://creativecommons.org/ns#"
   xmlns:rdf="http://www.w3.org/1999/02/22-rdf-syntax-ns#"
   xmlns:svg="http://www.w3.org/2000/svg"
   xmlns="http://www.w3.org/2000/svg"
   xmlns:sodipodi="http://sodipodi.sourceforge.net/DTD/sodipodi-0.dtd"
   xmlns:inkscape="http://www.inkscape.org/namespaces/inkscape"
   width="210mm"
   height="297mm"
   viewBox="0 0 210 297"
   version="1.1"
   id="svg16619"
   inkscape:version="0.92.4 (5da689c313, 2019-01-14)"
   sodipodi:docname="coloricon.svg">
  <defs
     id="defs16613" />
  <sodipodi:namedview
     id="base"
     pagecolor="#ffffff"
     bordercolor="#666666"
     borderopacity="1.0"
     inkscape:pageopacity="0.0"
     inkscape:pageshadow="2"
     inkscape:zoom="1.4"
     inkscape:cx="358.40316"
     inkscape:cy="576.44413"
     inkscape:document-units="mm"
     inkscape:current-layer="layer1"
     showgrid="false"
     inkscape:window-width="1920"
     inkscape:window-height="1001"
     inkscape:window-x="-9"
     inkscape:window-y="1341"
     inkscape:window-maximized="1" />
  <metadata
     id="metadata16616">
    <rdf:RDF>
      <cc:Work
         rdf:about="">
        <dc:format>image/svg+xml</dc:format>
        <dc:type
           rdf:resource="http://purl.org/dc/dcmitype/StillImage" />
        <dc:title></dc:title>
      </cc:Work>
    </rdf:RDF>
  </metadata>
  <g
     inkscape:label="Capa 1"
     inkscape:groupmode="layer"
     id="layer1">
    <g
       id="layer1-0"
       inkscape:label="Capa 1"
       transform="translate(2.645833,-34.017861)">
      <g
         transform="translate(-1.8898774,27.044204)"
         inkscape:label="Capa 1"
         id="layer1-2">
        <g
           id="g95"
           transform="translate(-3.5907739,-23.245536)">
          <path
             style="fill:#fdfdfd;stroke-width:0.26458332"
             d="M 9.7895833,151.08228 V 60.197908 h 97.3666667 97.36666 v 90.884372 90.88438 H 107.15625 9.7895833 Z"
             id="path101"
             inkscape:connector-curvature="0" />
          <path
             style="fill:#939693;stroke-width:0.26458332"
             d="m 60.188472,237.26236 c -24.39262,-14.12157 -41.489538,-40.13275 -44.976896,-68.42767 -0.494458,-4.01183 -0.544758,-5.99783 -0.16966,-6.6987 0.428345,-0.80037 1.676558,-1.13183 4.262259,-1.13183 3.364224,0 3.486883,0.15094 3.977633,4.89479 1.860346,17.98307 9.514273,35.06042 21.641581,48.28646 5.152658,5.61948 12.161309,11.44477 17.957043,14.92513 5.096084,3.06021 5.183135,3.21816 3.556601,6.45318 -1.103725,2.1952 -2.077326,3.22794 -3.043097,3.22794 -0.310126,0 -1.752584,-0.68819 -3.205464,-1.5293 z m 96.525648,-2.83994 c -0.75749,-0.3185 -2.67395,-2.96395 -3.25574,-4.49417 -0.43085,-1.13322 0.16208,-2.1301 2.07415,-3.48726 8.45995,-6.00474 16.38087,-14.1381 21.83248,-22.41801 8.77291,-13.32431 13.41877,-28.03116 14.09171,-44.60844 0.24212,-5.96442 0.1923,-5.89203 4.15571,-6.03874 2.707,-0.10021 2.81067,-0.083 3.46919,0.5755 0.67005,0.67006 0.67879,0.73143 0.67879,4.76361 0,20.34279 -7.81979,41.46136 -21.51933,58.11633 -4.20369,5.11055 -11.73469,12.07266 -17.37442,16.06195 -2.55958,1.81053 -3.05212,1.99192 -4.15254,1.52923 z M 67.911053,222.52892 C 47.403242,210.21163 33.710588,188.48529 31.450145,164.67586 c -0.39206,-4.1296 -0.408287,-4.10926 3.474855,-4.35484 3.523231,-0.22281 3.662751,-0.10976 4.002637,3.24351 0.601552,5.93482 1.59602,10.50905 3.46991,15.96046 4.923764,14.3239 14.386422,26.59988 26.843254,34.82396 1.737307,1.14698 3.716184,2.4099 4.39751,2.8065 0.998247,0.58109 1.238771,0.86179 1.238771,1.44574 0,0.80884 -1.948341,4.79269 -2.595758,5.30765 -0.742238,0.59039 -1.475007,0.35901 -4.370271,-1.37992 z m 79.814107,-1.85606 c -0.87479,-0.61273 -3.30831,-4.57625 -3.21339,-5.23371 0.054,-0.37432 1.09883,-1.34262 2.99344,-2.77428 4.32812,-3.27056 7.32225,-5.93902 10.03597,-8.94435 9.71827,-10.76261 15.78064,-23.83264 17.60658,-37.95845 0.15956,-1.2344 0.36442,-4.13869 0.45525,-6.45396 0.19921,-5.07841 0.25475,-5.18156 2.7923,-5.18603 0.90951,-0.002 2.09138,-0.0753 2.62639,-0.16376 0.82335,-0.13614 1.08318,-0.0504 1.69168,0.55808 l 0.71892,0.71892 -0.17675,4.0089 c -0.91893,20.84176 -8.80176,38.73965 -23.25353,52.79693 -3.80521,3.70134 -10.53695,9.02342 -11.41346,9.02342 -0.16728,0 -0.55581,-0.17627 -0.8634,-0.39171 z M 76.993749,210.43046 C 64.536261,203.04991 55.263824,192.25595 50.266033,179.31697 48.193073,173.9502 46.755719,167.77504 46.399315,162.70478 l -0.174199,-2.47821 0.74106,-0.28175 c 0.407586,-0.15496 1.880823,-0.2479 3.273865,-0.20652 2.969339,0.0882 2.726822,-0.22762 3.207001,4.17627 0.867352,7.9548 3.989461,16.47172 8.535138,23.28334 4.408863,6.6066 10.819357,12.75956 17.282236,16.58794 2.862387,1.69558 2.822366,1.5547 1.289545,4.53919 -1.472406,2.86685 -1.874081,3.10439 -3.560212,2.10542 z m 62.384511,-2.52891 c -0.87866,-1.00763 -2.58868,-3.99134 -2.58868,-4.51684 0,-0.39819 0.7734,-1.13549 2.71198,-2.58538 5.2729,-3.94369 11.16769,-10.55273 14.48122,-16.23585 4.68093,-8.0284 7.39787,-18.09095 7.41079,-27.44693 0.003,-2.24029 0.34331,-2.46239 3.77185,-2.46239 2.58435,0 2.59451,0.003 2.87624,0.7276 0.34057,0.87643 0.12438,5.72245 -0.45148,10.12031 -2.17617,16.6196 -11.59998,32.13109 -25.3893,41.79054 -1.68976,1.18369 -2.22143,1.29839 -2.82262,0.60894 z M 75.602178,192.37598 c -1.305935,-0.466 -1.712968,-0.82771 -2.361088,-2.09813 -1.001218,-1.96255 -0.08385,-4.62521 1.895366,-5.5013 l 0.79896,-0.35365 v -4.48323 -4.48322 l 4.7625,-4.78783 4.7625,-4.78783 v -2.02254 c 0,-1.4859 0.110318,-2.13286 0.415774,-2.43832 0.491884,-0.49188 0.527248,-0.4961 1.189119,-0.14188 0.452118,0.24196 0.511773,0.57383 0.511773,2.84703 v 2.57313 l -4.7625,4.75699 -4.7625,4.75698 v 4.15212 c 0,3.77531 0.04349,4.16592 0.479163,4.3042 0.263541,0.0836 0.878507,0.56409 1.366592,1.06767 0.729496,0.75265 0.908389,1.16837 1.005218,2.33601 0.176932,2.13358 -0.844275,3.71756 -2.824308,4.38074 -1.104648,0.36999 -1.235503,0.36592 -2.476569,-0.0769 z m 58.938442,0.0675 c -3.33949,-1.20247 -3.76477,-5.58103 -0.72792,-7.4945 l 0.83983,-0.52917 0.0102,-4.09196 0.0102,-4.09196 -4.7625,-4.78783 -4.7625,-4.78783 v -2.55413 c 0,-2.2544 0.0601,-2.58627 0.51178,-2.82802 0.66187,-0.35422 0.69723,-0.35 1.18912,0.14188 0.30587,0.30588 0.41577,0.9535 0.41577,2.45015 v 2.03438 l 4.7625,4.75699 4.7625,4.75698 v 4.50224 4.50223 l 0.79896,0.35365 c 0.43943,0.19451 1.12404,0.77985 1.52135,1.30076 1.41884,1.8602 0.78593,4.95638 -1.22583,5.9967 -1.04782,0.54184 -2.43802,0.69546 -3.34344,0.36944 z m -45.403057,-6.3753 c -1.298144,-0.86721 -1.87702,-2.1355 -1.751317,-3.83704 0.111006,-1.5026 0.8958,-2.62607 2.373649,-3.39799 0.652999,-0.34108 0.727604,-0.52238 0.727604,-1.76816 v -1.38811 l 2.24332,-2.23167 2.243323,-2.23167 0.07178,-4.87768 c 0.06202,-4.21444 0.131728,-4.91545 0.512628,-5.15548 0.319717,-0.20147 0.555979,-0.18224 0.859896,0.07 0.356795,0.29612 0.419052,1.13421 0.419052,5.64113 v 5.29334 l -2.248958,2.29825 c -2.689646,2.74859 -2.892709,3.47635 -1.26527,4.53459 1.379355,0.89692 2.191401,2.20272 2.190901,3.52304 -9.15e-4,2.41571 -1.701887,4.12806 -4.100631,4.12806 -0.991108,0 -1.628876,-0.16829 -2.275978,-0.60059 z m 29.924797,0.005 c -2.5902,-1.76805 -2.42225,-5.26005 0.33937,-7.05579 1.62744,-1.05824 1.42437,-1.786 -1.26527,-4.53459 l -2.24896,-2.29825 v -5.29334 c 0,-5.65757 0.10977,-6.14005 1.31022,-5.75904 0.52045,0.16519 0.54186,0.366 0.54186,5.08301 v 4.91104 l 2.24896,2.29825 c 2.23464,2.28362 2.24896,2.30694 2.24896,3.6633 0,1.22062 0.077,1.40526 0.7276,1.7451 0.40018,0.20903 1.07719,0.74774 1.50446,1.19715 1.04518,1.09934 1.25581,3.40845 0.43078,4.72266 -1.20235,1.91526 -4.02973,2.55479 -5.83798,1.3205 z m -14.55487,-9.525 c -1.57408,-0.7986 -2.51808,-2.55695 -2.24393,-4.17965 0.19855,-1.1752 1.60312,-3.00654 2.53202,-3.30136 0.46829,-0.14863 0.50859,-0.44148 0.50859,-3.69657 0,-2.86099 0.0793,-3.61443 0.41577,-3.95092 0.22867,-0.22867 0.51783,-0.41576 0.64256,-0.41576 0.12473,0 0.41388,0.18709 0.64256,0.41577 0.33648,0.33648 0.41577,1.08993 0.41577,3.95092 0,3.25509 0.0403,3.54794 0.50859,3.69657 0.9241,0.29329 2.33347,2.12618 2.53018,3.29049 0.27559,1.63121 -0.66793,3.40032 -2.23493,4.19052 -0.6493,0.32742 -1.48728,0.59531 -1.86217,0.59531 -0.37489,0 -1.20965,-0.26789 -1.85501,-0.59531 z M 74.985808,157.70417 c -2.57715,-0.56561 -4.780987,-1.83375 -6.8556,-3.94489 -1.989006,-2.02402 -2.996393,-3.78137 -3.679852,-6.41936 -1.626335,-6.27727 1.516862,-13.10516 7.355351,-15.97784 2.537841,-1.24868 4.637063,-1.68805 7.172417,-1.5012 4.948986,0.36475 9.494401,3.38373 11.623638,7.72024 1.01791,2.07313 1.369621,3.38835 1.616183,6.04376 0.174649,1.88093 0.557681,2.3951 1.31563,1.76606 0.510659,-0.42381 0.509157,-3.00371 -0.003,-5.15658 -1.072891,-4.50996 -4.866701,-9.10545 -8.912577,-10.79593 -0.519787,-0.21718 -1.011621,-0.50256 -1.092967,-0.63418 -0.08135,-0.13162 0.122242,-1.01241 0.452421,-1.95732 2.644915,-7.56928 8.172267,-12.84684 15.956574,-15.23546 2.102064,-0.64502 2.724534,-0.71417 6.428474,-0.71417 3.70394,0 4.32641,0.0691 6.42847,0.71417 8.03753,2.46632 13.55172,7.92991 16.20384,16.05518 0.95131,2.91448 1.2193,8.5679 0.54323,11.45965 -0.53633,2.29405 -0.53239,3.06644 0.0167,3.27715 1.26487,0.48537 2.07616,-2.6922 2.07376,-8.12222 -0.002,-4.13055 -0.44254,-6.44469 -1.87592,-9.85025 -0.36672,-0.8713 -0.59038,-1.66057 -0.49701,-1.75394 0.0934,-0.0934 1.73742,-0.16702 3.65345,-0.16368 3.12698,0.005 3.70014,0.082 5.5978,0.74709 2.84361,0.99668 4.9486,2.31892 7.014,4.40582 2.05638,2.07777 3.46897,4.4055 4.41574,7.27642 0.60038,1.82057 0.69711,2.56082 0.69146,5.29167 -0.008,3.90808 -0.73026,6.44214 -2.69258,9.44812 -2.44666,3.74791 -5.56887,6.17578 -9.69066,7.5356 -1.93683,0.63898 -2.49881,0.70022 -6.61458,0.72083 l -4.49792,0.0225 -0.0762,-2.30048 c -0.0681,-2.05608 -0.13421,-2.31887 -0.62195,-2.47367 -0.83753,-0.26583 -0.99178,0.0964 -1.07601,2.52668 l -0.0779,2.24749 -3.77032,0.0734 -3.77031,0.0734 v -3.98432 c 0,-3.44467 -0.0586,-4.00682 -0.43284,-4.15041 -0.23806,-0.0914 -0.62501,-0.0451 -0.85989,0.10288 -0.35551,0.2239 -0.43933,0.9191 -0.50031,4.14966 l -0.0733,3.8807 -4.29237,-0.0727 -4.29237,-0.0727 -0.13229,-5.95313 -0.13229,-5.95312 h -0.66146 -0.66146 l -0.13229,5.95312 -0.13229,5.95313 -4.29948,0.0727 -4.299482,0.0727 v -3.59582 c 0,-3.72306 -0.201666,-4.61937 -1.039334,-4.61937 -0.726969,0 -0.812749,0.47701 -0.812749,4.51955 v 3.68253 h -3.675859 c -4.248108,0 -3.997058,0.17637 -3.997058,-2.80807 0,-1.51533 -0.09254,-2.00655 -0.400243,-2.12463 -0.822569,-0.31564 -1.164061,0.40999 -1.243087,2.64143 l -0.07646,2.15898 -4.497916,0.0481 c -2.946133,0.0315 -5.053735,-0.0738 -6.108983,-0.30542 z m 2.745372,-47.03699 c -0.60874,-0.47704 -2.854098,-4.20327 -2.854098,-4.73646 0,-0.71491 1.161259,-1.46421 5.688542,-3.67049 9.783069,-4.767592 19.489476,-6.690698 30.486096,-6.040138 7.80136,0.461532 15.94185,2.573266 22.30825,5.787018 1.93889,0.97875 1.96577,1.22429 0.44549,4.07012 -1.442,2.6993 -1.64523,2.82015 -3.42036,2.03383 -8.02291,-3.55389 -14.93513,-5.10763 -22.83198,-5.1322 -9.252576,-0.0288 -16.119005,1.5844 -24.629968,5.78656 -2.486901,1.22787 -4.577504,2.23249 -4.645785,2.23249 -0.06828,0 -0.314063,-0.14883 -0.546187,-0.33073 z M 68.411423,96.247387 c -1.890943,-2.951094 -1.893062,-3.543483 -0.01663,-4.64887 11.912608,-7.017601 24.715385,-10.527468 38.496877,-10.553872 8.08377,-0.01549 13.86905,0.78879 21.66355,3.011695 4.38056,1.249286 11.72968,4.222802 12.79842,5.178353 0.70474,0.630092 0.56413,1.309857 -0.80751,3.90384 -1.14887,2.172694 -1.33344,2.388486 -2.1073,2.463884 -0.54338,0.05294 -1.58629,-0.24933 -2.90234,-0.841197 -13.23704,-5.953094 -27.14952,-7.614013 -41.261497,-4.925936 -7.622085,1.451866 -14.254657,3.917828 -21.414491,7.961812 -0.745318,0.420968 -1.717493,0.765395 -2.160387,0.765395 -0.722921,0 -0.956955,-0.236736 -2.28869,-2.315104 z M 61.510018,84.772832 c -0.645245,-0.313825 -3.301685,-4.357582 -3.301685,-5.025981 0,-1.473402 1.502105,-2.584037 7.638494,-5.647798 9.307322,-4.646935 18.56868,-7.459125 29.800047,-9.048712 5.361656,-0.758841 18.354906,-0.689047 23.944796,0.128621 9.28725,1.358504 17.31994,3.642596 25.12443,7.144123 4.95573,2.223412 5.19007,2.629373 3.48074,6.030013 -1.66371,3.309889 -2.42924,3.614191 -5.52609,2.196642 -21.39214,-9.792018 -45.098432,-10.42138 -66.867626,-1.775222 -2.592824,1.029802 -7.566856,3.445038 -10.980208,5.33165 -1.780892,0.984325 -2.402552,1.109424 -3.312898,0.666664 z"
             id="path99"
             inkscape:connector-curvature="0" />
          <path
             style="fill:#0158fe;stroke-width:0.26458332"
             d="m 74.94081,191.96184 c -1.255723,-0.76563 -1.913649,-1.99977 -1.914821,-3.59183 -7.94e-4,-1.15336 0.129878,-1.49433 0.932405,-2.4319 0.513368,-0.59975 1.168212,-1.16499 1.455208,-1.25608 0.491792,-0.15609 0.521814,-0.41865 0.521814,-4.56372 v -4.3981 l 4.88401,-4.91063 4.884009,-4.91063 0.07693,-2.24896 c 0.07194,-2.10317 0.115491,-2.25444 0.671814,-2.33345 0.439661,-0.0624 0.664036,0.0974 0.859896,0.61254 0.338722,0.89091 0.342863,3.59836 0.0069,4.48213 -0.141986,0.37345 -2.341515,2.79222 -4.887844,5.37504 l -4.629687,4.69603 -0.007,4.0028 -0.007,4.00279 0.809858,0.33546 c 2.042459,0.84601 2.9376,3.68806 1.780902,5.65432 -1.11397,1.89364 -3.636573,2.58219 -5.437449,1.48419 z m 58.93423,0.0372 c -2.69581,-1.43448 -2.77894,-5.2577 -0.14903,-6.85402 l 1.19476,-0.72521 5.3e-4,-3.96875 5.3e-4,-3.96875 -4.76382,-4.83291 -4.76381,-4.83291 0.0754,-2.70771 c 0.0748,-2.69175 0.0791,-2.70772 0.7367,-2.70772 0.64764,0 0.66306,0.047 0.73838,2.24896 l 0.0769,2.24896 4.88401,4.91063 4.88401,4.91063 v 4.3981 c 0,4.1064 0.0337,4.40881 0.50859,4.55952 0.27972,0.0888 0.93456,0.63293 1.4552,1.20922 0.83285,0.92185 0.94651,1.21467 0.94564,2.4361 -0.002,3.23521 -3.0441,5.15507 -5.82397,3.67586 z m -44.448565,-5.92558 c -1.269095,-0.86374 -1.892046,-1.83279 -2.021621,-3.14478 -0.146727,-1.48569 0.723104,-3.06254 2.096469,-3.80054 0.935434,-0.50266 0.984782,-0.5957 0.985462,-1.85792 7.93e-4,-1.31504 0.02387,-1.35179 2.24415,-3.56054 l 2.243439,-2.23178 0.07167,-5.03842 0.07167,-5.03842 0.631537,-0.0893 c 0.347345,-0.0491 0.732475,0.07 0.855845,0.26458 0.123367,0.19463 0.226131,2.60163 0.228359,5.34889 l 0.004,4.995 -2.248958,2.29825 c -2.054056,2.09908 -2.248781,2.38848 -2.246921,3.33937 0.0019,0.9357 0.108601,1.10197 1.054476,1.64211 1.300313,0.74254 1.945608,1.92223 1.951307,3.56724 0.0073,2.09143 -1.817867,3.90156 -3.933859,3.90156 -0.718011,0 -1.422469,-0.21105 -1.987066,-0.59531 z m 29.887895,-8e-4 c -1.18436,-0.79813 -1.92787,-2.13852 -1.9262,-3.47248 0.002,-1.47324 0.61412,-2.54592 1.90622,-3.33964 0.96164,-0.59072 1.07755,-0.7728 1.08391,-1.70257 0.007,-0.95346 -0.18225,-1.23464 -2.24184,-3.33937 l -2.24896,-2.29825 0.004,-4.99501 c 0.002,-2.74725 0.10499,-5.15425 0.22836,-5.34888 0.12337,-0.19464 0.5085,-0.3137 0.85584,-0.26459 l 0.63154,0.0892 0.0723,4.8839 0.0723,4.88389 2.24277,2.29193 2.24278,2.29193 v 1.45718 c 0,1.37608 0.0451,1.47585 0.80986,1.79264 0.44542,0.1845 1.13003,0.75522 1.52135,1.26827 0.92612,1.2142 1.00081,3.32287 0.158,4.46034 -1.43359,1.9348 -3.69875,2.49621 -5.41234,1.34142 z m -15.00481,-9.72111 c -1.37567,-0.83875 -1.9635,-2.00388 -1.84172,-3.65042 0.11511,-1.55628 0.68032,-2.49847 1.91028,-3.18439 0.43657,-0.24346 0.85329,-0.48188 0.92605,-0.52981 0.0728,-0.0479 0.19182,-1.77434 0.26458,-3.83646 l 0.13229,-3.7493 h 0.66146 0.66146 l 0.13229,3.7493 c 0.0728,2.06212 0.19182,3.78853 0.26458,3.83646 0.0728,0.0479 0.4868,0.26881 0.92009,0.49083 1.19662,0.61317 1.9905,1.9723 1.98934,3.40576 -0.002,2.28632 -1.69821,3.99379 -3.96776,3.99379 -0.72236,0 -1.52977,-0.20677 -2.05294,-0.52576 z M 76.18777,157.82491 c -4.631063,-0.55127 -9.150871,-4.09218 -11.066812,-8.66997 -3.430531,-8.19663 2.116953,-17.8377 10.986593,-19.0938 8.062068,-1.14173 15.223691,4.72556 15.923241,13.04541 0.192569,2.29024 0.638887,2.97193 1.565561,2.39118 1.57806,-0.98897 -0.327671,-8.30099 -3.001486,-11.51627 -1.448594,-1.74194 -3.684143,-3.53768 -5.445514,-4.37418 -1.532231,-0.72769 -1.570998,-0.77183 -1.413788,-1.60984 0.541494,-2.8864 3.260344,-7.49003 6.061292,-10.26314 7.504986,-7.43038 18.434623,-9.03903 27.648133,-4.06933 5.44779,2.9385 9.20535,7.4393 11.28678,13.51927 1.29853,3.79309 1.51268,9.02722 0.52191,12.75607 -0.5148,1.93749 -0.35084,2.60376 0.6133,2.49225 0.58718,-0.0679 0.77872,-0.30388 1.14696,-1.41297 1.43551,-4.32357 0.97645,-11.722 -1.00704,-16.23013 -0.34411,-0.78209 -0.62565,-1.5756 -0.62565,-1.76336 0,-0.52407 3.65453,-0.78055 5.88151,-0.41277 4.36505,0.72087 7.11218,2.12133 10.12969,5.16402 2.42708,2.44734 3.7559,4.72502 4.64294,7.9583 0.48213,1.75738 0.55486,2.58079 0.45466,5.14746 -0.19288,4.9409 -1.68645,8.38273 -5.11479,11.78667 -4.04035,4.0116 -8.75607,5.62222 -15.72943,5.37228 l -2.24896,-0.0806 -0.13229,-2.11667 c -0.14486,-2.3178 -0.31744,-2.77812 -1.04155,-2.77812 -0.80668,0 -1.04753,0.59524 -1.12917,2.79066 l -0.0782,2.10413 -3.41887,0.0744 c -2.55747,0.0556 -3.47307,-0.011 -3.63397,-0.26458 -0.1183,-0.18644 -0.21692,-1.9719 -0.21915,-3.96769 -0.004,-3.26579 -0.0533,-3.65508 -0.49667,-3.89235 -0.34306,-0.1836 -0.62285,-0.16635 -0.92161,0.0568 -0.35491,0.26513 -0.44117,0.98295 -0.49957,4.15693 l -0.0706,3.83646 h -4.10104 -4.10105 l -0.13229,-5.82083 c -0.0728,-3.20146 -0.22861,-5.96967 -0.34634,-6.15157 -0.11773,-0.1819 -0.43813,-0.33073 -0.71199,-0.33073 -0.27387,0 -0.59426,0.14883 -0.71199,0.33073 -0.11773,0.1819 -0.27358,2.95011 -0.34634,6.15157 l -0.1323,5.82083 h -4.10104 -4.101039 l -0.07058,-3.83646 c -0.05839,-3.17398 -0.144658,-3.8918 -0.49957,-4.15693 -0.298757,-0.22319 -0.578544,-0.24044 -0.92161,-0.0568 -0.445532,0.23844 -0.492617,0.62895 -0.492617,4.08575 0,4.51829 0.377803,4.15763 -4.233334,4.04126 l -3.042708,-0.0768 -0.07824,-2.10413 c -0.08163,-2.19542 -0.322482,-2.79066 -1.129168,-2.79066 -0.724109,0 -0.896688,0.46032 -1.04155,2.77812 l -0.132292,2.11667 -3.704167,0.0348 c -2.037291,0.0191 -4.483576,-0.058 -5.436187,-0.17136 z"
             id="path97"
             inkscape:connector-curvature="0" />
        </g>
      </g>
    </g>
    <path
       style="fill:#1befc5;fill-opacity:0;stroke-width:1.07986498;stroke-miterlimit:4;stroke-dasharray:none"
       d="m 265.71429,478.17475 c -18.46442,-7.34112 -32.08792,-27.98482 -32.08792,-48.62284 0,-38.13536 39.08587,-61.98551 73.93525,-45.11522 13.8438,6.70167 22.90561,19.42223 27.96539,39.25659 3.71876,14.5775 8.18024,17.4975 9.74886,6.38054 2.38341,-16.89147 -12.70962,-42.87652 -31.5641,-54.34261 l -7.71698,-4.69298 6.61498,-14.11642 c 8.7874,-18.75237 24.96848,-34.75241 43.92025,-43.42881 13.5275,-6.19309 18.4539,-6.93186 39.02482,-5.85216 18.81228,0.98739 26.11292,2.74181 36.33303,8.73119 30.39194,17.81086 46.19586,44.40897 46.17168,77.7073 -0.008,11.08506 -0.53902,21.9225 -1.17994,24.08321 -0.64093,2.16072 0.43391,4.51522 2.38852,5.23224 9.17881,3.36707 12.40839,-33.73127 5.04851,-57.99243 -2.34013,-7.71404 -4.2687,-14.34695 -4.28571,-14.73981 -0.0172,-0.39285 4.64133,-0.71428 10.35187,-0.71428 26.16017,0 48.85377,14.52235 59.95786,38.36896 20.88751,44.85699 -11.41012,92.94493 -62.48352,93.0317 -16.35541,0.0278 -16.42857,-0.0103 -16.42857,-8.54352 0,-5.77674 -1.42063,-8.57143 -4.35714,-8.57143 -2.55556,0 -5.06596,3.54411 -6.07143,8.57143 -1.5491,7.74548 -2.77589,8.57143 -12.73128,8.57143 -11.67394,0 -12.72429,-1.49373 -14.62813,-20.80311 -1.31032,-13.28972 -6.44169,-8.77277 -7.36133,6.4799 l -0.8636,14.32321 h -13.82412 -13.82411 l -1.07239,-21.23629 c -1.73937,-34.44455 -10.85813,-32.81825 -10.937,1.95057 l -0.0437,19.28572 h -14.28572 -14.28571 v -11.1949 c 0,-24.10674 -7.02733,-27.32241 -9.87638,-4.51939 l -1.96337,15.71429 h -10.99597 c -9.89462,0 -11.18453,-0.85851 -12.87857,-8.57143 -1.03543,-4.71429 -3.70902,-8.57143 -5.9413,-8.57143 -2.6049,0 -4.0587,3.07022 -4.0587,8.57143 v 8.57143 l -19.28571,-0.18112 c -10.60715,-0.0996 -22.5,-1.45903 -26.42857,-3.02096 z"
       id="path16647"
       inkscape:connector-curvature="0"
       transform="scale(0.26458333)" />
    <path
       style="fill:#1befc5;fill-opacity:0;stroke-width:0.26996624;stroke-miterlimit:4;stroke-dasharray:none"
       d="m 281.61745,482.20614 c -12.49776,-0.85125 -21.13213,-4.36915 -31.27991,-12.74441 -7.26403,-5.99521 -14.57291,-17.67349 -17.0503,-27.24332 -1.41831,-5.47874 -1.58251,-17.88066 -0.30692,-23.18193 2.29266,-9.52816 7.99821,-19.84375 14.66046,-26.506 15.51834,-15.51834 39.21821,-19.72478 58.61953,-10.40424 17.46266,8.38918 27.73138,23.06809 30.40685,43.4659 1.08465,8.26943 2.18416,10.91198 4.54023,10.91198 3.24046,0 4.22863,-2.65328 3.79884,-10.20002 -0.63942,-11.22792 -6.42295,-26.01838 -13.60162,-34.78396 -4.45279,-5.43712 -12.55716,-12.00435 -19.55092,-15.84275 -2.94569,-1.61669 -5.52628,-3.3837 -5.73465,-3.92668 -0.63178,-1.64641 1.13678,-7.38366 4.41584,-14.32501 8.93586,-18.9161 24.59754,-34.91216 42.86828,-43.78354 23.9623,-11.63492 52.24725,-11.48348 76.28987,0.40846 10.18291,5.03666 16.08201,9.33389 24.42442,17.7921 8.70681,8.82767 13.68743,16.13964 18.36591,26.96271 4.93049,11.40605 6.39166,18.39911 6.80967,32.59056 0.32201,10.93273 0.17305,13.37768 -1.26507,20.76402 -1.91039,9.81201 -1.64613,12.20126 1.34953,12.20126 2.79513,0 4.33559,-1.99627 5.90713,-7.65501 4.60151,-16.56889 3.01914,-39.56244 -4.01505,-58.34314 -1.38009,-3.68474 -2.50926,-7.04227 -2.50926,-7.46118 0,-1.25833 4.87916,-1.90378 13.57142,-1.79533 21.0485,0.26261 39.23488,9.61655 52.4522,26.97813 6.73927,8.85236 11.10546,19.23831 12.68745,30.17995 1.21791,8.42345 -0.0649,22.07154 -2.90455,30.90173 -3.6875,11.46673 -11.20422,21.9834 -21.73427,30.40848 -10.35729,8.28686 -21.4764,12.80359 -35.85797,14.56598 -7.22866,0.88584 -23.86645,1.04851 -25.07554,0.24516 -0.43441,-0.28862 -1.00987,-3.41763 -1.27881,-6.95335 -0.26894,-3.53571 -0.82238,-7.47321 -1.22986,-8.75 -0.6361,-1.99317 -1.07032,-2.32142 -3.07082,-2.32142 -3.1551,0 -4.03028,2.10388 -4.51944,10.86442 l -0.38727,6.93587 -2.95916,0.44375 c -3.96799,0.59503 -22.28789,0.11851 -23.00211,-0.59832 -0.31157,-0.3127 -0.69837,-6.70045 -0.85957,-14.19498 -0.26118,-12.14275 -0.43908,-13.77241 -1.63383,-14.96716 -1.8268,-1.82679 -3.22615,-1.68337 -4.6408,0.47566 -0.96767,1.47686 -1.25651,4.34752 -1.54517,15.35714 l -0.35503,13.54076 h -15.14532 -15.14531 l -0.48409,-18.03572 c -0.64751,-24.12417 -0.94293,-26.89242 -2.96835,-27.81526 -1.08905,-0.49621 -2.03708,-0.48543 -3.00802,0.0342 -1.76949,0.94701 -2.12302,4.56147 -2.78712,28.49535 l -0.48061,17.32143 H 371.24443 356.0905 l -0.32341,-13.50235 c -0.26662,-11.13168 -0.53678,-13.82802 -1.5387,-15.35715 -1.37636,-2.10058 -2.43937,-2.3023 -4.43871,-0.84227 -1.26552,0.92414 -1.41769,2.20718 -1.74366,14.70177 -0.32597,12.4946 -0.47814,13.77763 -1.74366,14.70177 -1.04782,0.76518 -3.92691,1.01013 -11.78572,1.00277 -14.31295,-0.0134 -13.60096,0.31591 -13.67096,-6.32356 -0.0317,-2.99882 -0.4334,-6.89883 -0.89286,-8.66669 -0.78053,-3.00327 -1.00674,-3.22857 -3.44566,-3.43191 -2.39959,-0.20005 -2.67047,-0.0271 -3.35573,2.14286 -0.41,1.29826 -0.96106,5.29189 -1.22458,8.87473 l -0.47913,6.51426 -4.30563,0.45003 c -5.12851,0.53602 -15.19613,0.42695 -25.52464,-0.27654 z"
       id="path16649"
       inkscape:connector-curvature="0"
       transform="scale(0.26458333)" />
    <path
       style="opacity:1;vector-effect:none;fill:#26064c;fill-opacity:1;stroke-width:0.6263842;stroke-linecap:butt;stroke-linejoin:miter;stroke-miterlimit:4;stroke-dasharray:none;stroke-dashoffset:0;stroke-opacity:1"
       d="m 281.61745,482.20614 c -12.49776,-0.85125 -21.13213,-4.36915 -31.27991,-12.74441 -7.26403,-5.99521 -14.57291,-17.67349 -17.0503,-27.24332 -1.41831,-5.47874 -1.58251,-17.88066 -0.30692,-23.18193 2.29266,-9.52816 7.99821,-19.84375 14.66046,-26.506 15.51834,-15.51834 39.21821,-19.72478 58.61953,-10.40424 17.46266,8.38918 27.73138,23.06809 30.40685,43.4659 1.08465,8.26943 2.18416,10.91198 4.54023,10.91198 3.24046,0 4.22863,-2.65328 3.79884,-10.20002 -0.63942,-11.22792 -6.42295,-26.01838 -13.60162,-34.78396 -4.45279,-5.43712 -12.55716,-12.00435 -19.55092,-15.84275 -2.94569,-1.61669 -5.52628,-3.3837 -5.73465,-3.92668 -0.63178,-1.64641 1.13678,-7.38366 4.41584,-14.32501 8.93586,-18.9161 24.59754,-34.91216 42.86828,-43.78354 23.9623,-11.63492 52.24725,-11.48348 76.28987,0.40846 10.18291,5.03666 16.08201,9.33389 24.42442,17.7921 8.70681,8.82767 13.68743,16.13964 18.36591,26.96271 4.93049,11.40605 6.39166,18.39911 6.80967,32.59056 0.32201,10.93273 0.17305,13.37768 -1.26507,20.76402 -1.91039,9.81201 -1.64613,12.20126 1.34953,12.20126 2.79513,0 4.33559,-1.99627 5.90713,-7.65501 4.60151,-16.56889 3.01914,-39.56244 -4.01505,-58.34314 -1.38009,-3.68474 -2.50926,-7.04227 -2.50926,-7.46118 0,-1.25833 4.87916,-1.90378 13.57142,-1.79533 21.0485,0.26261 39.23488,9.61655 52.4522,26.97813 6.73927,8.85236 11.10546,19.23831 12.68745,30.17995 1.21791,8.42345 -0.0649,22.07154 -2.90455,30.90173 -3.6875,11.46673 -11.20422,21.9834 -21.73427,30.40848 -10.35729,8.28686 -21.4764,12.80359 -35.85797,14.56598 -7.22866,0.88584 -23.86645,1.04851 -25.07554,0.24516 -0.43441,-0.28862 -1.00987,-3.41763 -1.27881,-6.95335 -0.26894,-3.53571 -0.82238,-7.47321 -1.22986,-8.75 -0.6361,-1.99317 -1.07032,-2.32142 -3.07082,-2.32142 -3.1551,0 -4.03028,2.10388 -4.51944,10.86442 l -0.38727,6.93587 -2.95916,0.44375 c -3.96799,0.59503 -22.28789,0.11851 -23.00211,-0.59832 -0.31157,-0.3127 -0.69837,-6.70045 -0.85957,-14.19498 -0.26118,-12.14275 -0.43908,-13.77241 -1.63383,-14.96716 -1.8268,-1.82679 -3.22615,-1.68337 -4.6408,0.47566 -0.96767,1.47686 -1.25651,4.34752 -1.54517,15.35714 l -0.35503,13.54076 h -15.14532 -15.14531 l -0.48409,-18.03572 c -0.64751,-24.12417 -0.94293,-26.89242 -2.96835,-27.81526 -1.08905,-0.49621 -2.03708,-0.48543 -3.00802,0.0342 -1.76949,0.94701 -2.12302,4.56147 -2.78712,28.49535 l -0.48061,17.32143 H 371.24443 356.0905 l -0.32341,-13.50235 c -0.26662,-11.13168 -0.53678,-13.82802 -1.5387,-15.35715 -1.37636,-2.10058 -2.43937,-2.3023 -4.43871,-0.84227 -1.26552,0.92414 -1.41769,2.20718 -1.74366,14.70177 -0.32597,12.4946 -0.47814,13.77763 -1.74366,14.70177 -1.04782,0.76518 -3.92691,1.01013 -11.78572,1.00277 -14.31295,-0.0134 -13.60096,0.31591 -13.67096,-6.32356 -0.0317,-2.99882 -0.4334,-6.89883 -0.89286,-8.66669 -0.78053,-3.00327 -1.00674,-3.22857 -3.44566,-3.43191 -2.39959,-0.20005 -2.67047,-0.0271 -3.35573,2.14286 -0.41,1.29826 -0.96106,5.29189 -1.22458,8.87473 l -0.47913,6.51426 -4.30563,0.45003 c -5.12851,0.53602 -15.19613,0.42695 -25.52464,-0.27654 z"
       id="path16651"
       inkscape:connector-curvature="0"
       transform="scale(0.26458333)" />
    <path
       style="opacity:1;vector-effect:none;fill:#26064c;fill-opacity:1;stroke-width:0.6263842;stroke-linecap:butt;stroke-linejoin:miter;stroke-miterlimit:4;stroke-dasharray:none;stroke-dashoffset:0;stroke-opacity:1"
       d="m 496.46846,611.60057 c -6.33888,-2.8797 -9.77369,-9.57862 -8.26796,-16.12504 1.02345,-4.44967 3.28415,-7.42712 7.87691,-10.37429 l 3.61147,-2.31747 v -15.10936 -15.10936 l -18.1276,-18.11715 -18.1276,-18.11714 0.35219,-9.3776 c 0.35808,-9.53484 0.97868,-11.63764 3.18477,-10.79109 1.26652,0.48601 1.98632,4.61283 2.03927,11.69175 l 0.0353,4.72173 18.52357,18.92857 18.52357,18.92857 0.0125,15.89985 c 0.0122,15.41715 0.0593,15.93759 1.5531,17.14286 8.45729,6.82381 9.48017,8.57147 8.99397,15.36675 -0.28118,3.92989 -0.77022,5.52395 -2.40797,7.849 -4.00951,5.69215 -11.49916,7.76071 -17.77554,4.90942 z"
       id="path16653"
       inkscape:connector-curvature="0"
       transform="scale(0.26458333)" />
    <path
       style="fill:#26064c;fill-opacity:1;stroke-width:0.26996624;stroke-miterlimit:4;stroke-dasharray:none"
       d="m 442.18888,589.77464 c -1.17857,-0.5276 -3.17121,-2.04181 -4.42809,-3.3649 -6.67795,-7.02977 -5.81766,-16.71972 1.99348,-22.45362 3.9761,-2.91873 4.93579,-4.3249 4.93194,-7.22647 -0.004,-2.99042 -2.17402,-6.0441 -10.04183,-14.13086 l -7.09836,-7.29589 0.0626,-16.00653 c 0.0344,-8.80359 0.27548,-17.61368 0.53571,-19.57796 0.44384,-3.35029 0.61009,-3.58478 2.68498,-3.78708 l 2.21183,-0.21566 0.46674,6.57539 c 0.2567,3.61646 0.47361,11.90993 0.48203,18.42994 l 0.0153,11.85455 8.52274,9.0029 8.52273,9.0029 0.21197,5.23861 0.21197,5.23862 3.21279,1.87612 c 8.30226,4.84812 10.44099,15.62295 4.42542,22.29511 -4.5493,5.04586 -11.58447,6.93511 -16.92392,4.54483 z"
       id="path16655"
       inkscape:connector-curvature="0"
       transform="scale(0.26458333)" />
    <path
       style="fill:#26064c;fill-opacity:1;stroke-width:0.26996624;stroke-miterlimit:4;stroke-dasharray:none"
       d="m 384.09479,552.11432 c -8.27691,-4.09696 -9.84182,-16.82357 -2.84588,-23.14399 1.54131,-1.39248 3.56016,-2.87705 4.48634,-3.29904 2.12493,-0.96819 2.32179,-2.14675 2.93317,-17.56002 l 0.48873,-12.32143 h 1.95812 c 1.70781,0 2.01471,0.3424 2.40086,2.67857 0.24351,1.47321 0.4482,5.25 0.45488,8.39286 0.007,3.14285 0.21871,8.3679 0.47119,11.61121 l 0.45904,5.89692 3.37031,2.07377 c 6.11552,3.76292 8.71692,9.49325 7.23135,15.9291 -1.67253,7.2458 -6.73988,11.27516 -14.17842,11.27415 -2.78914,-3.8e-4 -5.14297,-0.4992 -7.22969,-1.5321 z"
       id="path16657"
       inkscape:connector-curvature="0"
       transform="scale(0.26458333)" />
    <path
       style="fill:#26064c;fill-opacity:1;stroke-width:0.26996624;stroke-miterlimit:4;stroke-dasharray:none"
       d="m 330.40316,590.29689 c -2.82198,-1.00129 -6.70502,-4.36726 -8.42611,-7.30407 -4.05611,-6.92122 -1.98291,-14.34568 5.50878,-19.72794 3.67805,-2.64241 4.32053,-3.92091 4.33615,-8.62872 0.0119,-3.57277 0.90648,-4.83656 9.92446,-14.01974 l 6.83393,-6.95913 0.28082,-18.93373 0.28083,-18.93372 h 1.91628 c 3.57136,0 3.63058,0.34099 3.63058,20.90737 v 19.19309 l -7.40302,7.62834 c -4.07165,4.19559 -7.76808,8.33042 -8.21428,9.18852 -0.4462,0.85811 -0.81127,2.98258 -0.81127,4.72106 0,2.97214 0.22043,3.32681 3.69169,5.93982 4.74061,3.56851 6.15247,5.55685 6.92837,9.75729 1.72189,9.32164 -4.97719,17.75658 -13.98447,17.60811 -1.88172,-0.031 -3.90345,-0.22746 -4.49274,-0.43655 z"
       id="path16659"
       inkscape:connector-curvature="0"
       transform="scale(0.26458333)" />
    <path
       style="fill:#26064c;fill-opacity:1;stroke-width:0.26996624;stroke-miterlimit:4;stroke-dasharray:none"
       d="m 274.33173,611.92708 c -4.82192,-2.13704 -7.8284,-6.45641 -8.61353,-12.37495 -0.71807,-5.41309 0.49547,-8.06939 5.98424,-13.09885 l 4.77176,-4.37245 0.23401,-16.18121 0.23402,-16.18121 18.20891,-18.26924 18.20891,-18.26924 0.35089,-7.08791 c 0.47648,-9.62462 0.65454,-10.30218 2.70738,-10.30218 2.37815,0 3.27117,3.00582 3.26789,10.99944 -0.002,5.05147 -0.29562,6.98093 -1.31684,8.65551 -1.1785,1.9325 -27.33637,29.73369 -32.8775,34.94297 l -2.23156,2.09792 v 15.44319 15.44318 l 2.84236,1.25405 c 7.12431,3.14324 10.52711,12.26097 7.23202,19.37802 -3.34019,7.21447 -12.23436,10.92275 -19.00296,7.92296 z"
       id="path16661"
       inkscape:connector-curvature="0"
       transform="scale(0.26458333)" />
    <path
       style="fill:#1befc5;fill-opacity:0;stroke-width:0.26996624;stroke-miterlimit:4;stroke-dasharray:none"
       d="m 284.08628,304.5438 c -1.17722,-0.42461 -8.53058,-11.54363 -10.40679,-15.7361 l -1.36653,-3.05357 2.02073,-2.10919 c 4.13207,-4.31295 32.00049,-17.43603 49.28376,-23.20744 50.66768,-16.91949 110.75226,-14.33032 160.35714,6.91012 10.34199,4.42836 14.05824,6.60024 14.68785,8.58397 0.71351,2.24807 -7.19322,17.62012 -9.82185,19.09538 -1.79876,1.00951 -2.27131,0.92787 -7.5,-1.29564 -32.62433,-13.8736 -55.01581,-18.67832 -87.08933,-18.68746 -35.7667,-0.0102 -58.01516,5.30659 -92.85964,22.19094 -14.96639,7.25217 -16.11635,7.73786 -17.30534,7.30899 z"
       id="path16663"
       inkscape:connector-curvature="0"
       transform="scale(0.26458333)" />
    <path
       style="fill:#1befc5;fill-opacity:1;stroke-width:0.26996624;stroke-miterlimit:4;stroke-dasharray:none"
       d="m 284.08628,304.5438 c -1.17722,-0.42461 -8.53058,-11.54363 -10.40679,-15.7361 l -1.36653,-3.05357 2.02073,-2.10919 c 4.13207,-4.31295 32.00049,-17.43603 49.28376,-23.20744 50.66768,-16.91949 110.75226,-14.33032 160.35714,6.91012 10.34199,4.42836 14.05824,6.60024 14.68785,8.58397 0.71351,2.24807 -7.19322,17.62012 -9.82185,19.09538 -1.79876,1.00951 -2.27131,0.92787 -7.5,-1.29564 -32.62433,-13.8736 -55.01581,-18.67832 -87.08933,-18.68746 -35.7667,-0.0102 -58.01516,5.30659 -92.85964,22.19094 -14.96639,7.25217 -16.11635,7.73786 -17.30534,7.30899 z"
       id="path16665"
       inkscape:connector-curvature="0"
       transform="scale(0.26458333)" />
    <path
       style="fill:#1befc5;fill-opacity:1;stroke-width:0.26996624;stroke-miterlimit:4;stroke-dasharray:none"
       d="m 515.52531,670.35504 c -3.54968,-4.30637 -8.74588,-14.04301 -8.53208,-15.98741 0.14537,-1.32207 2.69895,-3.8002 9.93647,-9.64286 13.29796,-10.73508 19.3325,-16.32494 27.72204,-25.67924 15.53579,-17.32234 24.57735,-30.29403 32.88846,-47.18426 13.51072,-27.45714 20.44818,-54.94815 21.8814,-86.70926 0.66021,-14.63078 0.0257,-13.93634 13.00841,-14.2367 l 10.0135,-0.23166 1.23285,1.88157 c 1.09082,1.6648 1.18093,3.21389 0.78219,13.44595 -0.75723,19.43064 -2.94043,34.9114 -7.27197,51.56438 -9.04642,34.77974 -25.51227,66.25426 -48.95174,93.57143 -15.28209,17.81028 -43.70092,41.78571 -49.52992,41.78571 -0.58019,0 -2.01102,-1.15994 -3.17961,-2.57765 z"
       id="path16667"
       inkscape:connector-curvature="0"
       transform="scale(0.26458333)" />
    <path
       style="fill:#1befc5;fill-opacity:1;stroke-width:0.26996624;stroke-miterlimit:4;stroke-dasharray:none"
       d="m 546.98478,718.69014 c -4.19489,-4.1949 -10.86733,-15.45645 -10.86733,-18.34157 0,-1.75164 1.63179,-3.21103 19.37487,-17.32791 22.11922,-17.59866 38.15372,-35.08211 53.79794,-58.65939 18.53223,-27.92978 30.69917,-56.13218 37.93161,-87.92374 3.54379,-15.57738 4.80276,-25.67665 6.08354,-48.80102 0.80763,-14.58189 1.61203,-17.99738 4.37211,-18.564 0.90982,-0.18677 5.67207,-0.52878 10.58279,-0.76001 l 8.92857,-0.42041 2.56295,2.11986 2.56295,2.11986 -0.26552,5.93616 c -1.03968,23.24363 -2.56029,38.02723 -5.64327,54.86472 -12.37788,67.60111 -47.73497,126.89972 -102.05606,171.16178 -13.25379,10.79948 -21.59372,16.69537 -23.6162,16.69537 -0.90708,0 -2.59411,-0.94487 -3.74895,-2.0997 z"
       id="path16669"
       inkscape:connector-curvature="0"
       transform="scale(0.26458333)" />
    <path
       style="fill:#1befc5;fill-opacity:1;stroke-width:0.26996624;stroke-miterlimit:4;stroke-dasharray:none"
       d="m 580.01234,769.95017 c -3.02795,-2.65858 -7.71729,-9.35991 -9.72367,-13.89567 -2.53811,-5.73781 -1.02524,-8.19236 10.153,-16.47278 43.02877,-31.87405 75.67259,-70.26159 98.44605,-115.76772 21.51284,-42.98714 31.32945,-82.07705 34.36932,-136.85914 1.15631,-20.83808 1.01468,-20.64874 15.74831,-21.05336 l 9.77135,-0.26835 2.42037,2.16633 2.42038,2.16632 -0.0639,18.44773 c -0.0419,12.07897 -0.47983,22.23071 -1.26871,29.40549 -7.2748,66.16427 -33.38774,128.85669 -76.35194,183.30712 -16.14686,20.46362 -49.73498,51.66512 -71.44028,66.36405 -8.31192,5.62886 -10.45622,5.99315 -14.48028,2.45998 z"
       id="path16671"
       inkscape:connector-curvature="0"
       transform="scale(0.26458333)" />
    <path
       style="fill:#1befc5;fill-opacity:1;stroke-width:0.26996624;stroke-miterlimit:4;stroke-dasharray:none"
       d="M 281.47459,681.36684 C 272.8269,676.81858 257.96491,666.25592 245.39807,655.72667 199.50806,617.27725 169.25921,558.37458 164.831,498.84087 l -0.54344,-7.3061 2.09296,-0.72961 c 1.15113,-0.40128 6.22357,-0.72961 11.27209,-0.72961 11.65314,0 11.53007,-0.0976 12.71717,10.087 3.23142,27.72362 9.08394,47.94306 20.75318,71.69872 16.48901,33.56748 43.5726,63.22025 76.31456,83.55382 4.57754,2.84277 8.7925,5.99348 9.36659,7.00159 0.98178,1.72404 0.8413,2.24086 -2.36457,8.69875 -3.66222,7.37719 -7.04167,11.83644 -8.9318,11.78569 -0.64681,-0.0173 -2.46172,-0.70778 -4.03315,-1.53428 z"
       id="path16673"
       inkscape:connector-curvature="0"
       transform="scale(0.26458333)" />
    <path
       style="fill:#1befc5;fill-opacity:1;stroke-width:0.26996624;stroke-miterlimit:4;stroke-dasharray:none"
       d="m 253.16123,730.49214 c -19.09209,-9.79813 -41.50082,-26.91495 -61.73098,-47.15296 -27.26461,-27.27519 -47.30652,-57.17881 -62.44726,-93.17472 -11.35161,-26.98757 -20.20327,-64.47544 -20.90604,-88.5397 -0.15882,-5.43814 -0.0337,-6.06464 1.45187,-7.27234 1.87259,-1.52229 6.36181,-2.20427 15.61736,-2.37249 5.42403,-0.0986 6.77286,0.10174 7.97148,1.1839 1.83387,1.65571 1.91269,2.00868 3.69686,16.55458 7.32145,59.68998 33.27427,112.9812 75.53739,155.10758 12.72456,12.68338 25.2133,22.57277 43.56555,34.49799 16.43997,10.68263 16.1457,10.42854 15.72349,13.57639 -0.4211,3.13949 -6.54162,15.6757 -8.8896,18.20789 -2.23202,2.40713 -3.90912,2.29939 -9.59012,-0.61612 z"
       id="path16675"
       inkscape:connector-curvature="0"
       transform="scale(0.26458333)" />
    <path
       style="fill:#1befc5;fill-opacity:1;stroke-width:0.26996624;stroke-miterlimit:4;stroke-dasharray:none"
       d="M 221.55837,784.78238 C 209.30714,778.37398 189.66154,765.16653 175.81555,754.03014 105.74603,697.67295 58.583774,613.76417 47.262395,525.31465 c -1.72266,-13.45847 -2.123724,-23.829 -1.003705,-25.95338 1.781229,-3.37854 5.649021,-4.54677 15.220931,-4.59732 7.155465,-0.0378 8.957873,0.17355 10.590851,1.24181 3.057989,2.00049 3.356689,3.22934 5.850712,24.06979 7.642704,63.86363 36.509606,126.39482 80.911406,175.26949 19.08232,21.0046 46.09979,43.35518 69.69087,57.65274 4.76597,2.88846 10.03149,6.50711 11.70113,8.04144 4.13852,3.80314 4.107,6.21753 -0.19297,14.77929 -3.62037,7.20859 -7.94617,12.11418 -10.68241,12.11418 -0.97253,0 -4.4784,-1.41764 -7.79084,-3.15031 z"
       id="path16677"
       inkscape:connector-curvature="0"
       transform="scale(0.26458333)" />
    <path
       style="fill:#1befc5;fill-opacity:1;stroke-width:0.26996624;stroke-miterlimit:4;stroke-dasharray:none"
       d="m 253.3677,256.68269 c -1.9565,-1.65307 -9.08632,-13.15611 -10.14761,-16.37185 -0.72722,-2.20351 -0.65444,-2.78053 0.55755,-4.42052 2.52593,-3.41792 20.47314,-13.21086 37.98642,-20.72739 56.63607,-24.30765 122.08395,-29.42445 182.56767,-14.27339 16.59627,4.15734 39.60943,12.38193 52.14286,18.63517 6.99442,3.48968 8.21429,4.52378 8.21429,6.96339 0,2.19032 -5.65871,14.20752 -8.36994,17.77495 -1.73416,2.28181 -2.00778,2.38521 -5.4777,2.07018 -2.25112,-0.20438 -7.62593,-1.99541 -14.00951,-4.66834 -34.94672,-14.63289 -65.6781,-21.01029 -101.42857,-21.04854 -24.3055,-0.026 -43.77396,2.40861 -66.84305,8.35899 -20.29468,5.23475 -34.10873,10.66046 -56.59396,22.22826 -7.43537,3.82521 -13.9514,6.72909 -15.09944,6.72909 -1.11077,0 -2.68532,-0.5625 -3.49901,-1.25 z"
       id="path16679"
       inkscape:connector-curvature="0"
       transform="scale(0.26458333)" />
    <path
       style="fill:#1befc5;fill-opacity:1;stroke-width:0.26996624;stroke-miterlimit:4;stroke-dasharray:none"
       d="m 219.66242,203.53005 c -3.42809,-3.75027 -9.97441,-14.66255 -9.97087,-16.62076 0.008,-4.58979 5.51139,-8.86103 23.1062,-17.93392 22.25143,-11.4741 41.67986,-19.26203 64.00756,-25.65755 22.51992,-6.45058 47.48582,-11.14357 66.455,-12.49194 13.2794,-0.94392 44.94527,-0.95873 59.65505,-0.0279 38.3917,2.42942 85.33566,14.77208 118.632,31.19111 8.69598,4.28815 10.99866,6.34349 10.99866,9.81729 0,4.95056 -7.09829,18.18498 -10.77264,20.08506 -3.03775,1.57088 -5.4234,1.26446 -12.0845,-1.55218 -25.5575,-10.80694 -39.45555,-15.68375 -57.54368,-20.19201 -22.32469,-5.56417 -39.57186,-8.11644 -63.42896,-9.38635 -37.84704,-2.01459 -77.95436,3.6496 -116.07179,16.39233 -16.43047,5.49274 -24.4954,8.98242 -46.52799,20.13258 -21.30424,10.78156 -22.12865,10.97616 -26.45404,6.24424 z"
       id="path16681"
       inkscape:connector-curvature="0"
       transform="scale(0.26458333)" />
  </g>
</svg>
