<?xml version="1.0" encoding="UTF-8" standalone="no"?>
<!-- Created with Inkscape (http://www.inkscape.org/) -->

<svg
   xmlns:dc="http://purl.org/dc/elements/1.1/"
   xmlns:cc="http://creativecommons.org/ns#"
   xmlns:rdf="http://www.w3.org/1999/02/22-rdf-syntax-ns#"
   xmlns:svg="http://www.w3.org/2000/svg"
   xmlns="http://www.w3.org/2000/svg"
   xmlns:sodipodi="http://sodipodi.sourceforge.net/DTD/sodipodi-0.dtd"
   xmlns:inkscape="http://www.inkscape.org/namespaces/inkscape"
   width="210mm"
   height="297mm"
   viewBox="0 0 210 297"
   version="1.1"
   id="svg16689"
   inkscape:version="0.92.4 (5da689c313, 2019-01-14)"
   sodipodi:docname="COLORVECTOR_LOGO.svg">
  <defs
     id="defs16683" />
  <sodipodi:namedview
     id="base"
     pagecolor="#ffffff"
     bordercolor="#666666"
     borderopacity="1.0"
     inkscape:pageopacity="0.0"
     inkscape:pageshadow="2"
     inkscape:zoom="0.98994949"
     inkscape:cx="292.87427"
     inkscape:cy="504.54932"
     inkscape:document-units="mm"
     inkscape:current-layer="layer1"
     showgrid="false"
     inkscape:window-width="1920"
     inkscape:window-height="1001"
     inkscape:window-x="-9"
     inkscape:window-y="1341"
     inkscape:window-maximized="1" />
  <metadata
     id="metadata16686">
    <rdf:RDF>
      <cc:Work
         rdf:about="">
        <dc:format>image/svg+xml</dc:format>
        <dc:type
           rdf:resource="http://purl.org/dc/dcmitype/StillImage" />
        <dc:title></dc:title>
      </cc:Work>
    </rdf:RDF>
  </metadata>
  <g
     inkscape:label="Capa 1"
     inkscape:groupmode="layer"
     id="layer1">
    <g
       id="layer1-3"
       inkscape:label="Capa 1"
       transform="translate(-3.1820778,-12.371646)">
      <g
         transform="matrix(0.50961706,0,0,0.56329047,-20.781521,40.195233)"
         id="g108">
        <path
           inkscape:connector-curvature="0"
           id="path114"
           d="M 77.076889,264.49403 V 191.57487 H 255.5119 433.94692 v 72.91916 72.91917 H 255.5119 77.076889 Z"
           style="fill:#fdfdfe;stroke-width:0.21166667" />
        <path
           inkscape:connector-curvature="0"
           id="path112"
           d="m 115.70437,335.58185 c -2.0382,-1.08279 -5.49261,-3.34659 -8.13053,-5.32822 -15.700719,-11.79451 -26.162103,-29.24238 -29.088584,-48.51499 -0.778229,-5.1251 -0.874013,-6.5935 -0.479818,-7.35579 0.422864,-0.81773 0.689653,-0.90768 3.101313,-1.04572 1.9147,-0.10959 2.049829,-0.0891 2.615071,0.39713 0.563377,0.4846 0.612262,0.66886 0.892002,3.36207 2.301352,22.15639 14.840327,41.41196 34.233556,52.571 0.70802,0.4074 1.12274,0.82433 1.34204,1.3492 0.31172,0.74605 0.301,0.79146 -0.60088,2.54572 -1.39123,2.70606 -1.99807,3.0216 -3.88417,2.0196 z m 76.68425,-3.0899 c -0.18655,-0.14552 -0.77626,-0.94801 -1.31045,-1.78331 -0.70406,-1.10091 -0.97127,-1.73362 -0.97127,-2.2998 0,-0.91073 0.0732,-0.98413 3.54158,-3.55238 7.46872,-5.53035 13.91994,-12.90079 18.60535,-21.25636 5.40466,-9.63823 8.22371,-19.86424 8.6769,-31.47523 0.19155,-4.90768 0.14044,-4.83155 3.32279,-4.94935 2.1656,-0.0802 2.24853,-0.0664 2.77534,0.4604 0.54002,0.54002 0.54303,0.56282 0.541,4.09808 -0.004,7.33624 -1.41607,15.45492 -3.9679,22.8167 -5.20817,15.02505 -14.61518,27.619 -27.56839,36.90809 -1.8764,1.34562 -2.87978,1.63003 -3.64495,1.03316 z m -71.05221,-9.16149 c -14.81657,-8.68667 -25.548261,-23.63083 -28.997811,-40.3802 -0.557739,-2.70812 -0.779293,-4.20162 -1.189444,-8.0181 -0.165677,-1.54163 0.263888,-2.07729 1.665852,-2.07729 0.506798,0 1.483111,-0.0559 2.169584,-0.1243 1.924405,-0.19164 1.982428,-0.10515 2.440563,3.63794 1.556847,12.71989 6.665206,23.50613 15.404416,32.52624 3.71073,3.83 8.32845,7.43549 12.27173,9.58169 1.59778,0.86962 1.67157,1.25689 0.63515,3.33354 -0.94726,1.89803 -1.56105,2.6928 -2.07687,2.68927 -0.18344,-0.001 -1.22886,-0.52722 -2.32317,-1.16879 z m 64.05085,-1.84518 c -0.56906,-0.42346 -2.47703,-3.58797 -2.47703,-4.10833 0,-0.36267 0.68518,-0.98788 2.90911,-2.65449 3.21618,-2.41022 7.83291,-6.84433 10.09351,-9.69426 2.4139,-3.0432 4.73427,-6.72308 6.47317,-10.26583 2.05133,-4.17929 2.98934,-6.7003 4.01657,-10.795 1.08036,-4.30646 1.50754,-7.35655 1.64204,-11.72429 0.1403,-4.55603 0.0776,-4.45358 2.75269,-4.50113 2.51591,-0.0447 2.86847,-10e-5 3.175,0.40187 0.55534,0.72825 0.23492,7.21049 -0.60954,12.33105 -2.64971,16.06707 -12.14251,31.11439 -25.35732,40.19465 -1.64649,1.13134 -2.0325,1.25161 -2.6182,0.81576 z m -58.17561,-8.86267 c -11.5277,-6.81211 -20.14259,-18.86349 -22.90504,-32.04191 -0.63015,-3.0062 -1.0902,-6.84675 -0.9074,-7.5751 0.15437,-0.61507 0.86291,-0.77985 3.36847,-0.7834 1.97767,-0.003 1.91016,-0.10058 2.26368,3.2785 1.35519,12.95364 9.46568,25.52733 20.85637,32.33363 1.29961,0.77656 1.9257,1.27906 1.97015,1.58125 0.0669,0.45504 -1.23085,3.25866 -1.8148,3.92054 -0.4891,0.55438 -0.83215,0.46793 -2.83143,-0.71351 z m 51.6011,-1.35046 c -0.53439,-0.5344 -2.25252,-3.40069 -2.25252,-3.75781 0,-0.1847 1.0769,-1.14468 2.3931,-2.13328 8.99696,-6.75759 14.95155,-16.49354 16.98052,-27.76369 0.18863,-1.04775 0.40883,-3.44958 0.48933,-5.33741 0.0975,-2.28673 0.23462,-3.52066 0.41077,-3.69681 0.37672,-0.37672 4.39068,-0.52028 4.81028,-0.17204 0.25098,0.20829 0.31577,0.83403 0.31486,3.04092 -0.002,4.62264 -1.04128,10.38542 -2.75354,15.267 -0.85896,2.44885 -3.20833,7.32942 -4.62687,9.61184 -3.34349,5.37963 -8.4607,10.8153 -13.34655,14.17715 -1.70241,1.17138 -1.93778,1.24573 -2.41938,0.76413 z m -52.14776,-12.82534 c -1.21725,-0.60253 -1.75143,-1.52183 -1.75143,-3.01414 0,-1.02696 0.0887,-1.28582 0.66642,-1.94375 0.36653,-0.41746 0.93803,-0.89947 1.27,-1.07113 l 0.60358,-0.31213 v -3.54218 -3.54219 l 3.81,-3.80559 3.81,-3.80559 v -1.73333 c 0,-1.29354 0.0844,-1.81774 0.33262,-2.06596 0.18294,-0.18294 0.41426,-0.33262 0.51405,-0.33262 0.0998,0 0.33111,0.14968 0.51404,0.33262 0.25412,0.25412 0.33262,0.79166 0.33262,2.27756 v 1.94495 l -3.91583,3.91154 -3.91583,3.91154 0.002,3.28298 0.002,3.28298 0.84352,0.48169 c 2.32264,1.32636 2.15105,4.67087 -0.29667,5.78249 -1.12462,0.51074 -1.72535,0.50227 -2.82035,-0.0397 z m 47.87391,0.15686 c -0.77008,-0.34919 -1.73703,-1.44518 -1.92072,-2.17707 -0.19956,-0.79512 0.0517,-2.1955 0.50411,-2.81007 0.22169,-0.30112 0.75229,-0.738 1.1791,-0.97083 l 0.77603,-0.42333 6.4e-4,-3.28298 5e-4,-3.28298 -3.92109,-3.91369 -3.9211,-3.91369 0.0582,-2.11666 0.0582,-2.11667 h 0.635 0.635 l 0.0605,1.80892 0.0605,1.80891 3.90822,3.90394 3.90822,3.90394 6.4e-4,3.60048 6.3e-4,3.60048 0.78663,0.42333 c 2.23941,1.20517 2.36276,4.09524 0.24183,5.6659 -0.71274,0.52781 -2.21407,0.67154 -3.05093,0.29207 z m -36.50211,-5.05839 c -2.07217,-1.41443 -1.93781,-4.20804 0.27149,-5.64462 0.73854,-0.48024 0.78695,-0.57817 0.78695,-1.59218 0,-1.07417 0.0104,-1.09085 1.79475,-2.86588 l 1.79475,-1.78543 0.0573,-4.03073 0.0573,-4.03074 h 0.635 0.635 l 0.0574,4.3208 0.0574,4.32081 -1.80366,1.84319 c -1.589,1.62383 -1.80366,1.93395 -1.80366,2.60584 0,0.61717 0.11104,0.82066 0.58209,1.06669 0.32014,0.16723 0.86175,0.5982 1.20356,0.95773 0.83614,0.87947 1.00465,2.72676 0.34463,3.77813 -0.96188,1.5322 -3.22379,2.04383 -4.67038,1.05639 z m 24.39275,0.0541 c -0.99171,-0.60465 -1.53091,-1.60208 -1.53185,-2.83366 -0.001,-1.29579 0.53691,-2.20754 1.68208,-2.85117 0.70678,-0.39723 0.85713,-0.59409 0.85713,-1.12228 0,-0.51939 -0.36035,-1.01369 -1.905,-2.6132 l -1.905,-1.97264 v -4.13147 c 0,-3.47367 0.0529,-4.18444 0.33262,-4.4641 0.18293,-0.18294 0.41426,-0.33262 0.51404,-0.33262 0.0998,0 0.33111,0.14968 0.51405,0.33262 0.2779,0.2779 0.33262,0.96339 0.33262,4.16664 v 3.83403 l 1.79917,1.8386 1.79916,1.8386 v 1.19142 c 0,0.88939 0.0764,1.19142 0.30126,1.19142 0.48391,0 1.63637,1.08473 1.95002,1.83541 0.38888,0.9307 0.35681,1.69837 -0.11426,2.73563 -0.75499,1.66242 -3.03026,2.32973 -4.62604,1.35677 z m -11.79848,-7.60901 c -1.2661,-0.51652 -2.187,-2.28756 -1.92252,-3.69733 0.15908,-0.84799 1.53409,-2.45313 2.10141,-2.45313 0.30916,0 0.35028,-0.34609 0.35028,-2.94822 0,-2.43264 0.0598,-3.00804 0.3421,-3.29031 0.29903,-0.29903 0.39897,-0.30439 0.79375,-0.0426 0.41981,0.27842 0.45577,0.5067 0.51006,3.23867 l 0.0584,2.93914 0.77894,0.42206 c 1.03565,0.56117 1.61981,1.60462 1.61981,2.89341 0,1.15381 -0.43475,1.89511 -1.56093,2.66158 -0.72696,0.49476 -2.20943,0.62833 -3.07132,0.27671 z m 88.36696,-7.85156 c -0.4096,-0.0973 -1.19855,-0.37145 -1.75323,-0.60921 l -1.0085,-0.43229 0.0599,-2.38579 0.0599,-2.38578 h 0.83769 0.83768 l 0.35402,1.77099 c 0.19471,0.97404 0.4845,1.85476 0.64398,1.95716 0.52916,0.33974 1.7583,0.60864 2.78756,0.60984 1.86832,0.002 2.8999,-0.97626 2.8999,-2.75049 0,-1.69701 -0.7349,-2.49815 -3.89065,-4.24133 -2.1004,-1.16022 -3.32877,-2.1877 -3.87253,-3.23922 -0.44707,-0.86454 -0.60097,-2.87153 -0.29198,-3.80777 0.33577,-1.01741 1.86758,-2.33991 3.13179,-2.70387 1.87967,-0.54114 4.99805,-0.18347 6.8785,0.78895 0.58424,0.30212 0.58487,0.30494 0.58487,2.60066 0,2.19607 -0.0209,2.30367 -0.46986,2.42108 -1.08787,0.28448 -1.38594,-0.008 -1.65765,-1.62703 -0.37495,-2.23411 -0.45783,-2.376 -1.54819,-2.65055 -2.14174,-0.5393 -3.52024,-0.0464 -3.95814,1.41515 -0.49746,1.66036 0.44957,2.99933 3.03926,4.29713 2.26767,1.13643 3.90404,2.43167 4.59568,3.63761 1.63759,2.85532 0.13084,6.23503 -3.22386,7.23126 -1.15629,0.34339 -3.79778,0.39767 -5.03612,0.1035 z m 14.10613,-0.0915 c -1.0576,-0.37698 -2.11422,-1.40936 -2.69607,-2.63423 -0.7005,-1.47462 -0.80592,-4.56859 -0.21338,-6.26231 1.27102,-3.63309 5.89183,-5.10099 8.21728,-2.61039 0.70257,0.75246 1.28577,2.24497 1.45011,3.71105 0.18009,1.60669 0.37734,1.52844 -4.03269,1.5997 l -3.175,0.0513 0.0701,1.16416 c 0.0961,1.59597 0.67977,2.84767 1.53393,3.28937 0.95154,0.49206 2.48297,0.32045 3.57209,-0.4003 0.46603,-0.3084 0.8948,-0.56073 0.95282,-0.56073 0.058,0 0.26312,0.24056 0.45577,0.53459 0.3293,0.50258 0.32643,0.56141 -0.048,0.9825 -0.21907,0.24635 -0.87456,0.6716 -1.45665,0.94501 -1.23263,0.57897 -3.3013,0.66397 -4.63025,0.19027 z m 3.81437,-8.05378 c 0.17016,-0.44341 -0.30714,-2.24363 -0.71448,-2.69484 -0.57419,-0.63601 -1.61511,-0.47463 -2.352,0.36463 -0.5398,0.6148 -1.08594,1.86313 -1.09062,2.49287 -6.4e-4,0.0873 0.90668,0.15875 2.01629,0.15875 1.60895,0 2.04245,-0.0651 2.14081,-0.32141 z m 20.18339,8.2285 c -0.17463,-0.0566 -0.72232,-0.24742 -1.21709,-0.42413 l -0.89958,-0.32131 v -1.67583 -1.67582 h 0.83166 0.83166 l 0.23857,1.14918 0.23857,1.14918 1.01621,0.21793 c 1.21321,0.26019 2.44851,-0.0106 2.7675,-0.60664 0.62262,-1.16337 0.0382,-1.98962 -2.32274,-3.28379 -2.72233,-1.49228 -3.75675,-3.12797 -3.18499,-5.03634 0.6748,-2.25226 3.43053,-3.0463 6.62148,-1.90791 l 1.00541,0.35868 v 1.65152 1.65152 h -0.80319 c -0.80098,0 -0.80405,-0.003 -1.11125,-1.21708 l -0.30806,-1.21709 -0.9922,-0.19175 c -0.80221,-0.15504 -1.09605,-0.12371 -1.53458,0.16363 -1.17399,0.76923 -0.39343,2.13812 1.9493,3.41853 2.79163,1.52576 3.48383,2.34511 3.48383,4.12376 0,1.67299 -1.01705,2.97912 -2.77918,3.5691 -0.70836,0.23717 -3.21107,0.30553 -3.83133,0.10466 z m 11.70804,-0.1337 c -2.74275,-1.05419 -4.28006,-4.20055 -3.68347,-7.53886 0.49905,-2.79251 2.11999,-4.59433 4.59546,-5.10823 3.94714,-0.81943 7.08573,2.39624 6.80525,6.97238 -0.15636,2.55099 -1.32852,4.48382 -3.30064,5.44253 -0.95168,0.46265 -3.4722,0.59516 -4.4166,0.23218 z m 3.67796,-2.13988 c 0.85996,-0.93126 1.16093,-2.06626 1.14442,-4.31571 -0.0221,-3.00415 -1.10566,-4.70447 -2.99815,-4.70447 -1.01835,0 -2.18872,1.26981 -2.49702,2.70917 -0.65691,3.06691 0.16155,6.36607 1.74689,7.04157 0.81905,0.34899 1.8825,0.0506 2.60386,-0.73056 z m 16.0465,2.00533 -1.05833,-0.37168 -0.0615,-1.72858 -0.0615,-1.72858 h 0.83168 c 0.79491,0 0.83788,0.0351 0.97233,0.79375 0.25299,1.42745 0.30592,1.49439 1.36051,1.72055 1.18656,0.25448 1.85788,0.13067 2.51469,-0.46375 0.97567,-0.88299 0.32323,-2.13123 -1.67583,-3.20618 -3.02298,-1.62554 -3.90377,-2.71716 -3.72165,-4.61246 0.11893,-1.23775 0.62913,-1.98592 1.75823,-2.57822 1.16495,-0.61112 3.61385,-0.59243 5.01508,0.0383 l 1.00542,0.45255 v 1.5994 1.5994 h -0.8324 c -0.89229,0 -0.92658,-0.0442 -1.19035,-1.53267 -0.12466,-0.70349 -0.23417,-0.81711 -0.9815,-1.01834 -1.14461,-0.30821 -2.04307,-0.0871 -2.20089,0.54176 -0.28368,1.13021 0.29775,1.81684 2.62955,3.10544 2.67424,1.47781 3.42617,2.5804 3.15229,4.62231 -0.26409,1.96898 -2.10763,3.17743 -4.81004,3.15303 -0.93523,-0.008 -2.02235,-0.16706 -2.64583,-0.38602 z m 38.3442,-0.23034 c -1.00787,-0.88492 -1.1967,-1.86833 -1.1967,-6.23223 v -3.71627 h -0.74083 c -0.69916,0 -0.74084,-0.0399 -0.74084,-0.70873 0,-0.62753 0.0948,-0.74595 0.82726,-1.03368 0.69603,-0.27341 0.92268,-0.52998 1.42875,-1.6174 0.55245,-1.18708 0.65682,-1.29263 1.28014,-1.29465 l 0.67865,-0.002 0.0622,1.53459 0.0622,1.53458 1.54729,0.0625 1.54728,0.0624 -0.0656,0.67839 c -0.0636,0.65812 -0.10672,0.68561 -1.44145,0.92012 -0.75671,0.13296 -1.44727,0.25202 -1.53458,0.26459 -0.22399,0.0322 -0.18847,6.09536 0.0415,7.08664 0.27569,1.18822 0.45897,1.2987 1.61692,0.9745 0.90928,-0.25459 1.01811,-0.24477 1.28158,0.11554 0.48683,0.66578 0.33064,0.94741 -0.82334,1.48467 -1.60095,0.74534 -2.89605,0.70703 -3.83039,-0.11333 z m 8.84881,0.13384 c -1.14298,-0.53224 -1.95334,-1.35911 -2.70021,-2.75519 -0.39935,-0.74647 -0.46613,-1.20494 -0.46613,-3.19965 0,-2.11796 0.0514,-2.42568 0.56849,-3.40572 1.06939,-2.02667 2.77207,-3.10553 4.93484,-3.1268 1.62188,-0.016 2.70013,0.35894 3.74354,1.30161 2.69174,2.43183 2.97711,6.8339 0.63237,9.75511 -1.50958,1.88071 -4.41612,2.50016 -6.7129,1.43064 z m 3.6743,-1.41045 c 2.09991,-1.28025 2.3274,-6.84869 0.36017,-8.8159 -1.31608,-1.31608 -2.97844,-0.84844 -3.92347,1.10371 -0.37977,0.78453 -0.46501,1.33884 -0.47058,3.06031 -0.006,1.84133 0.0613,2.24118 0.54178,3.22154 0.87025,1.77555 2.09984,2.27918 3.4921,1.43034 z m 17.49423,1.62542 c -5.2288,-1.69755 -7.5649,-8.0569 -4.97084,-13.53159 1.60371,-3.38459 5.55445,-5.42001 9.38629,-4.83582 1.94808,0.29699 2.83384,0.55646 3.6876,1.0802 l 0.68791,0.42201 v 2.20879 2.2088 l -0.62691,0.13769 c -1.06094,0.23302 -1.34065,-0.10411 -1.69585,-2.04397 l -0.32307,-1.76425 -1.05833,-0.37398 c -1.34544,-0.47544 -3.13754,-0.36479 -4.45992,0.27537 -3.36409,1.62853 -4.41677,8.36694 -1.89527,12.13207 1.05556,1.57618 1.96706,2.11964 3.72142,2.21877 1.72074,0.0972 3.12143,-0.31265 4.64138,-1.35821 0.57826,-0.39775 1.14645,-0.72319 1.26268,-0.72319 0.11623,0 0.35569,0.27915 0.53213,0.62034 0.31695,0.61293 0.31007,0.62952 -0.57664,1.38858 -0.49361,0.42253 -1.51408,1.07206 -2.26772,1.44341 -1.1942,0.58842 -1.61573,0.68139 -3.28083,0.72361 -1.13375,0.0288 -2.25757,-0.0642 -2.76403,-0.22863 z m 20.10648,-0.21497 c -1.14298,-0.53224 -1.95335,-1.35911 -2.70022,-2.75519 -0.39935,-0.74647 -0.46613,-1.20494 -0.46613,-3.19965 0,-2.11796 0.0514,-2.42568 0.5685,-3.40572 1.08978,-2.06534 2.78096,-3.11464 5.04257,-3.1287 1.73446,-0.0108 3.0498,0.5856 4.21763,1.9123 1.106,1.25649 1.58577,2.7145 1.56513,4.75652 -0.0378,3.74498 -2.39327,6.3173 -5.78466,6.3173 -0.99955,0 -1.66766,-0.13589 -2.44282,-0.49686 z m 3.6743,-1.41045 c 1.12155,-0.68378 1.61105,-2.02561 1.61923,-4.43856 0.011,-3.25688 -1.00764,-5.08 -2.83841,-5.08 -1.01738,0 -1.74109,0.56066 -2.35158,1.82177 -0.69175,1.42896 -0.68446,4.5869 0.0142,6.19433 0.78759,1.8118 2.12344,2.37615 3.55647,1.50246 z m 8.55853,1.52693 c -1.36292,-0.72708 -1.41819,-0.94184 -1.53501,-5.96549 l -0.10583,-4.55083 -0.635,-0.0717 c -0.85914,-0.0969 -1.19802,-0.42065 -1.12196,-1.07177 0.0614,-0.52553 0.1379,-0.55322 2.18029,-0.78905 1.58629,-0.18316 2.15563,-0.18382 2.27218,-0.003 0.0855,0.13298 0.15697,2.43514 0.15875,5.11593 0.004,5.4386 0.0877,5.81501 1.29915,5.81501 0.79004,0 1.364,-0.28711 2.2495,-1.12525 l 0.68792,-0.65113 v -3.66264 -3.66265 l -0.58208,-0.003 c -0.85037,-0.005 -1.15464,-0.27799 -1.07529,-0.9657 0.0691,-0.59843 0.0933,-0.60839 2.0807,-0.85371 1.5058,-0.18588 2.04989,-0.18753 2.16635,-0.007 0.0855,0.13293 0.15697,2.59732 0.15875,5.47641 l 0.003,5.23472 0.47625,0.10162 c 0.26194,0.0559 0.66675,0.13012 0.89959,0.16495 0.45536,0.0681 0.70722,0.9181 0.37151,1.2538 -0.1064,0.10642 -0.94763,0.27806 -1.86937,0.38143 -1.88542,0.21144 -2.20631,0.0862 -2.20631,-0.86132 0,-0.7493 -0.0849,-0.7537 -0.92193,-0.0478 -0.36606,0.30868 -0.97206,0.68968 -1.34669,0.84666 -0.94332,0.3953 -2.77222,0.34503 -3.60471,-0.0991 z m 13.53576,0.0307 c -1.02137,-0.50337 -2.05312,-1.82181 -2.47482,-3.16247 -0.50872,-1.61739 -0.36646,-4.41963 0.30196,-5.94811 1.22779,-2.80754 4.14879,-4.16228 7.15751,-3.3196 0.46996,0.13163 0.47625,0.10671 0.47625,-1.88936 v -2.02274 l -0.79375,-0.0657 c -0.75351,-0.0624 -0.79375,-0.10325 -0.79375,-0.80653 v -0.74083 l 1.48167,-0.14466 c 0.81491,-0.0796 1.73992,-0.1955 2.05553,-0.25765 0.32442,-0.0639 0.63955,-0.007 0.72496,0.13144 0.0831,0.13444 0.12679,3.80332 0.0971,8.15307 -0.0404,5.91676 0.0102,7.98587 0.20056,8.2153 0.13997,0.16866 0.57622,0.30666 0.96941,0.30666 0.67308,0 0.71493,0.0425 0.71493,0.7256 v 0.72561 l -1.21709,0.12996 c -0.66939,0.0715 -1.52671,0.17791 -1.90515,0.23652 -0.69297,0.10731 -0.7163,0.0858 -1.21458,-1.11984 -0.01,-0.0236 -0.5754,0.2383 -1.25696,0.58208 -1.45521,0.73403 -3.35378,0.84786 -4.52379,0.27124 z m 4.57713,-2.34372 0.77794,-0.62932 0.058,-3.51419 0.058,-3.51419 -0.55374,-0.36283 c -0.30457,-0.19955 -1.07019,-0.40565 -1.7014,-0.45799 -1.09154,-0.0905 -1.18207,-0.0587 -1.85238,0.65207 -0.87389,0.9266 -1.26822,2.2779 -1.27502,4.36932 -0.006,1.96467 0.32652,3.00434 1.19634,3.73625 0.88143,0.74166 2.16493,0.63284 3.29227,-0.27912 z m -166.4824,2.13086 c -0.0526,-0.13705 -0.0643,-0.47043 -0.026,-0.74083 0.0565,-0.39845 0.21799,-0.50397 0.85225,-0.55667 0.7437,-0.0618 0.78894,-0.10915 0.91025,-0.9525 0.0702,-0.48811 0.099,-2.50551 0.0641,-4.48311 -0.0603,-3.40834 -0.0856,-3.59896 -0.48692,-3.65949 -1.33596,-0.20153 -1.40389,-0.24973 -1.33578,-0.94774 l 0.0658,-0.67418 2.01084,-0.24953 c 2.2479,-0.27895 2.54,-0.18539 2.54,0.81359 v 0.631 l 0.71788,-0.6303 c 2.07206,-1.81929 5.59413,-1.12514 6.27129,1.23599 0.11412,0.39792 0.2075,2.50825 0.2075,4.68962 v 3.96611 l 0.58208,0.12754 c 1.09749,0.24049 1.1403,0.28004 1.07185,0.99032 l -0.0664,0.68937 -3.06917,-0.009 -3.06917,-0.009 -0.0658,-0.67187 c -0.0681,-0.69542 6.3e-4,-0.74402 1.33578,-0.94544 0.40128,-0.0605 0.42636,-0.24899 0.48142,-3.61768 0.0653,-3.99476 -0.12379,-5.13969 -0.8974,-5.43381 -0.79103,-0.30075 -1.8946,0.1266 -2.73818,1.06034 l -0.76167,0.84308 v 3.48786 3.48786 l 0.58208,0.12754 c 1.0975,0.24049 1.14031,0.28004 1.07185,0.99032 l -0.0664,0.68937 h -3.04317 c -2.13898,0 -3.07158,-0.074 -3.13882,-0.24919 z m 36.73955,-0.12123 c -0.30974,-0.57861 0.13451,-1.18008 0.92813,-1.25661 l 0.68764,-0.0663 0.0571,-4.49792 0.0571,-4.49792 -0.58629,-0.003 c -0.85457,-0.005 -1.15896,-0.27704 -1.0795,-0.96569 0.069,-0.5979 0.0951,-0.6087 2.0807,-0.86017 2.21431,-0.28043 2.54,-0.16003 2.54,0.93898 0,0.51011 0,0.50995 0.76435,-0.16047 1.00993,-0.88672 1.65684,-1.10984 2.74492,-0.94667 1.0644,0.15962 1.29525,0.6621 0.92902,2.02214 -0.22003,0.81719 -0.26556,0.8536 -1.01143,0.80915 -1.77205,-0.10559 -2.18442,-0.002 -2.91886,0.7323 l -0.71967,0.71967 v 3.27731 c 0,3.65947 -0.0604,3.52823 1.62616,3.53546 0.71837,0.003 1.05363,0.49899 0.82482,1.21998 -0.10535,0.33193 -0.4608,0.37041 -3.42176,0.37041 -2.93021,0 -3.32664,-0.0419 -3.50249,-0.37041 z m 27.97071,0.27749 c -2.6039,-0.10829 -2.86197,-0.15475 -2.93342,-0.52808 -0.0984,-0.51382 0.50025,-0.96649 1.2781,-0.96649 h 0.59455 v -7.40583 -7.40583 l -0.85792,-0.13719 c -0.8087,-0.12931 -0.85425,-0.17501 -0.79375,-0.79625 l 0.0642,-0.65906 h 3.28084 3.28083 v 0.63405 c 0,0.57506 -0.0837,0.65171 -0.89958,0.82382 l -0.89959,0.18977 v 7.35121 7.35121 l 0.85973,0.13747 c 0.81799,0.1308 0.85653,0.17068 0.79375,0.82081 -0.0768,0.7955 0.18347,0.75471 -3.76771,0.59039 z m 4.92809,-0.15626 c -0.0526,-0.13705 -0.0643,-0.47043 -0.026,-0.74083 0.0567,-0.39984 0.21772,-0.5039 0.86257,-0.55729 0.61099,-0.0506 0.81904,-0.17199 0.90678,-0.52917 0.0626,-0.25493 0.0868,-2.27327 0.0538,-4.48519 l -0.0601,-4.02166 -0.635,-0.0717 c -0.85914,-0.0969 -1.19802,-0.42065 -1.12196,-1.07177 0.0614,-0.52553 0.1379,-0.55322 2.18029,-0.78905 2.32025,-0.26791 2.42521,-0.23085 2.43093,0.85811 l 0.003,0.61898 0.47625,-0.43547 c 1.37469,-1.25697 3.80433,-1.63286 5.19033,-0.80298 1.33246,0.79781 1.53009,1.61247 1.53009,6.30746 v 4.16247 l 0.58208,0.12754 c 1.0975,0.24049 1.14032,0.28004 1.07186,0.99032 l -0.0664,0.68937 h -3.02545 c -2.96613,0 -3.02783,-0.009 -3.14573,-0.479 -0.16053,-0.63941 0.23415,-1.06971 1.05404,-1.14918 l 0.67214,-0.0651 0.0579,-3.65525 c 0.0319,-2.01039 -0.0217,-3.96301 -0.11913,-4.33917 -0.36764,-1.42008 -1.90115,-1.44639 -3.35068,-0.0575 l -0.92729,0.88849 v 3.52475 3.52475 l 0.58208,0.12754 c 1.09749,0.24049 1.14031,0.28004 1.07186,0.99032 l -0.0664,0.68937 h -3.04316 c -2.13899,0 -3.0716,-0.074 -3.13882,-0.24919 z m 56.13769,-0.0327 c -0.34665,-0.9031 -0.12186,-1.14306 1.26763,-1.35313 0.41272,-0.0624 0.42473,-0.24801 0.47898,-7.40363 l 0.0556,-7.33963 -0.77504,-0.0659 c -0.91001,-0.0773 -1.36542,-0.60641 -1.00871,-1.17191 0.29533,-0.46821 4.11643,-1.00822 4.36797,-0.6173 0.0855,0.13293 0.15697,3.88318 0.15875,8.3339 l 0.003,8.09222 0.58208,0.12754 c 1.09749,0.24049 1.14031,0.28004 1.07186,0.99032 l -0.0664,0.68937 h -3.01388 c -2.31453,0 -3.03898,-0.0654 -3.12208,-0.28189 z m -260.0349,-7.13729 c -5.14351,-1.1199 -8.89956,-5.8388 -8.88687,-11.16499 0.0148,-6.20874 5.20232,-11.36666 11.43189,-11.36666 1.3409,0 4.02333,0.71152 5.35534,1.4205 0.60251,0.3207 1.76983,1.25147 2.59403,2.06838 2.12583,2.10701 3.01533,4.1274 3.38139,7.68045 0.15607,1.51486 0.62589,2.02709 1.26921,1.38378 0.29744,-0.29744 0.3348,-0.60943 0.22176,-1.85166 -0.31732,-3.48718 -1.40605,-5.84218 -3.82852,-8.28138 -1.22609,-1.23456 -2.10608,-1.90871 -3.17739,-2.43417 -0.81492,-0.39971 -1.51748,-0.74667 -1.56125,-0.77104 -0.22468,-0.12508 1.26728,-3.76791 2.13585,-5.21497 2.00377,-3.33831 4.64762,-5.77575 8.07126,-7.44113 3.01064,-1.46449 4.77058,-1.86285 8.28747,-1.87586 2.45516,-0.009 3.24951,0.0704 4.63212,0.46354 3.65932,1.04048 6.5682,2.69858 8.9994,5.12978 2.20375,2.20374 3.6992,4.70539 4.80047,8.03045 0.55076,1.66288 0.59674,2.05569 0.60696,5.18583 0.008,2.58278 -0.0756,3.69984 -0.35408,4.70604 -0.41711,1.50721 -0.32903,1.96146 0.38033,1.96146 0.64147,0 0.82878,-0.37466 1.26595,-2.53218 0.7239,-3.5726 0.1556,-8.85267 -1.29718,-12.05214 -0.28557,-0.62891 -0.46449,-1.19822 -0.39758,-1.26512 0.31973,-0.31974 4.58945,-0.26897 6.12578,0.0728 7.08507,1.57628 12.02582,8.5238 11.11872,15.63477 -0.44037,3.45221 -1.73583,6.11515 -4.13635,8.50267 -1.75597,1.74648 -3.58645,2.87 -5.9212,3.63439 -1.54131,0.50461 -2.01639,0.55638 -5.29167,0.57666 l -3.59833,0.0223 -0.10584,-1.90286 c -0.0898,-1.61459 -0.16349,-1.91385 -0.48642,-1.97539 -0.77441,-0.14759 -0.99524,0.34298 -0.99524,2.21084 v 1.77325 h -2.96334 -2.96333 v -3.05405 c 0,-2.49418 -0.061,-3.11502 -0.33262,-3.38667 -0.38418,-0.38417 -0.50266,-0.40008 -0.93738,-0.12583 -0.25396,0.16021 -0.33114,0.83735 -0.38567,3.38342 l -0.0682,3.18313 h -3.37142 -3.37142 v -4.43122 c 0,-4.57847 -0.13595,-5.51711 -0.79909,-5.51711 -0.83744,0 -0.89424,0.33242 -0.89424,5.2334 v 4.72541 l -3.43959,-0.0582 -3.43958,-0.0582 -0.0584,-3.10076 c -0.0634,-3.36273 -0.21564,-3.83142 -1.09219,-3.36231 -0.41149,0.22023 -0.43686,0.41773 -0.43686,3.40135 v 3.16756 h -2.96333 -2.96334 v -1.65288 c 0,-1.78949 -0.28046,-2.46759 -0.96649,-2.33675 -0.3587,0.0684 -0.42243,0.31348 -0.51517,1.98093 l -0.10584,1.90286 -3.59833,0.0385 c -2.44726,0.0262 -4.03845,-0.0573 -4.97417,-0.26104 z m 155.8461,-12.73237 -0.68142,-0.0885 -5.6355,-17.07915 c -3.09953,-9.39354 -5.70082,-17.14863 -5.78064,-17.23355 -0.0798,-0.0849 -0.90433,-0.25983 -1.83224,-0.38871 -0.92792,-0.12887 -1.7221,-0.26901 -1.76486,-0.3114 -0.0428,-0.0424 -0.1253,-0.49903 -0.18342,-1.01475 -0.20059,-1.77963 -0.56802,-1.69339 7.03586,-1.65131 3.69675,0.0205 6.80418,0.0884 6.90541,0.15096 0.22573,0.1395 0.23903,2.00294 0.0168,2.35251 -0.0884,0.1391 -0.82242,0.35861 -1.63108,0.48779 -0.80866,0.12919 -1.51197,0.27655 -1.5629,0.32749 -0.0509,0.0509 1.20126,4.45105 2.78265,9.77804 1.5814,5.32699 3.13457,10.66357 3.4515,11.85906 0.31692,1.1955 0.60617,2.1437 0.64275,2.10711 0.0366,-0.0366 1.54661,-4.15761 3.3556,-9.15783 l 3.28907,-9.09131 -0.87321,-2.64663 c -0.48028,-1.45565 -0.93557,-2.7161 -1.01179,-2.80102 -0.0762,-0.0849 -0.89731,-0.25991 -1.82463,-0.38889 -0.92733,-0.12898 -1.75651,-0.34525 -1.84263,-0.48061 -0.24997,-0.3929 -0.18719,-2.21704 0.082,-2.38343 0.34873,-0.21553 13.14619,-0.11357 13.36624,0.10649 0.23368,0.23368 0.2384,2.13033 0.006,2.36116 -0.097,0.0963 -0.84038,0.28089 -1.65196,0.41018 -0.81155,0.12929 -1.50901,0.26853 -1.5499,0.30941 -0.0409,0.0409 1.30615,4.29813 2.99343,9.46054 1.68726,5.16241 3.32395,10.29108 3.63707,11.39704 0.31309,1.10596 0.63595,2.08327 0.71744,2.17181 0.0815,0.0885 0.40488,-0.72108 0.71865,-1.79916 0.31376,-1.07809 1.94219,-6.29403 3.61876,-11.59098 3.45756,-10.92389 3.35297,-9.7786 0.91804,-10.05321 l -1.21708,-0.13725 -2e-5,-1.41353 -2e-5,-1.41351 5.20979,0.0552 c 2.8654,0.0304 5.29427,0.10742 5.39752,0.17124 0.10325,0.0638 0.18773,0.66842 0.18773,1.34359 v 1.22756 l -1.61163,0.27568 -1.61165,0.27568 -0.59648,1.32945 c -0.32806,0.73119 -2.56129,7.31192 -4.96271,14.62384 -2.40143,7.31192 -4.75095,14.46586 -5.22119,15.89765 l -0.85496,2.60325 -1.09027,-0.0632 -1.09032,-0.0632 -3.91583,-11.37007 c -2.15371,-6.25354 -3.9704,-11.41986 -4.03712,-11.48073 -0.0667,-0.0609 -2.07522,5.1033 -4.46337,11.47591 -4.68177,12.49296 -4.30234,11.74212 -5.83343,11.54334 z m 43.68356,-0.7077 c -1.55421,-0.26086 -3.8804,-1.00803 -5.59006,-1.79552 l -1.53458,-0.70685 v -4.76104 -4.76104 l 1.11641,-0.13949 c 0.61405,-0.0767 1.44749,-0.0542 1.85209,0.0499 l 0.73567,0.18941 0.74083,3.57567 c 0.71162,3.43469 0.76615,3.59039 1.38267,3.94909 1.84103,1.07111 6.48839,1.48141 8.40467,0.74204 2.47294,-0.95417 3.72301,-4.18764 2.80892,-7.26571 -0.67344,-2.26771 -2.1936,-3.60116 -7.08577,-6.21549 -6.05426,-3.23534 -8.13977,-5.23986 -9.01796,-8.66774 -0.52421,-2.04626 -0.35706,-5.27172 0.35135,-6.77983 1.09798,-2.33743 3.82774,-4.2363 7.17506,-4.99108 1.23829,-0.27922 2.16384,-0.33036 4.23333,-0.23393 3.3525,0.15623 4.86816,0.53126 8.09898,2.004 l 1.64042,0.74777 v 4.70443 c 0,4.69975 0,4.70456 -0.47625,4.83206 -0.8294,0.22228 -2.60448,0.14368 -2.96234,-0.13117 -0.23817,-0.18291 -0.54449,-1.3728 -0.9924,-3.85481 -0.35636,-1.97463 -0.76723,-3.70592 -0.91305,-3.84732 -0.46467,-0.45058 -2.76743,-1.10429 -4.41632,-1.25371 -2.02882,-0.18385 -3.59903,0.2318 -4.61568,1.2218 -1.00066,0.97443 -1.2873,1.80209 -1.2873,3.71694 0,3.21902 1.23844,4.59006 6.6675,7.38135 3.58667,1.84405 5.60462,3.20703 7.32746,4.94916 6.09551,6.16377 2.76534,15.40825 -6.20727,17.23135 -1.73214,0.35194 -5.64896,0.40974 -7.43638,0.10974 z m 20.63602,-0.61301 c -0.28743,-0.19073 -0.447,-1.38908 -0.27206,-2.04318 0.17647,-0.65985 0.53239,-0.7907 2.83265,-1.04149 l 1.21709,-0.1327 -0.002,-13.90185 c 0,-7.64602 -0.0606,-14.39123 -0.1325,-14.98937 l -0.13067,-1.08752 -1.08458,-0.13695 c -2.47603,-0.31264 -2.42769,-0.28855 -2.57693,-1.28387 -0.0807,-0.53792 -0.0386,-1.08854 0.10357,-1.3541 0.233,-0.43536 0.36751,-0.44734 4.94165,-0.43998 l 4.70213,0.008 7.3025,9.96419 c 8.20224,11.19184 10.73663,14.66399 11.26014,15.42652 0.34013,0.49539 0.35975,-0.0646 0.36718,-10.48332 0.004,-6.05367 -0.0673,-11.12501 -0.15913,-11.26964 -0.0919,-0.14464 -1.01587,-0.38425 -2.05336,-0.53248 l -1.88635,-0.26949 -0.18553,-0.7845 c -0.10926,-0.46206 -0.10543,-1.02475 0.009,-1.36903 l 0.19486,-0.58454 5.69851,-0.0176 c 3.25347,-0.01 5.81205,0.0677 5.96312,0.18117 0.35157,0.2641 0.34266,2.14695 -0.0117,2.44092 -0.15189,0.12606 -1.05676,0.29429 -2.01083,0.37385 l -1.73469,0.14467 v 16.59396 16.59396 l -1.74625,-0.0615 -1.74625,-0.0615 -10.32032,-13.97 c -5.67618,-7.6835 -10.50483,-14.20812 -10.73034,-14.49917 -0.40726,-0.52564 -0.41008,-0.46209 -0.42174,9.54445 -0.007,5.54049 0.0499,11.35927 0.12524,12.93062 l 0.13703,2.85701 1.92046,0.25569 c 1.05625,0.14063 1.99326,0.37023 2.08222,0.51021 0.21013,0.33054 0.20926,1.87317 -0.002,2.20436 -0.11906,0.18733 -1.688,0.27615 -5.81855,0.3294 -3.11057,0.0401 -5.73541,0.0199 -5.83298,-0.0448 z M 128.44052,232.16195 c -0.28393,-0.37835 -0.87043,-1.24689 -1.30332,-1.93008 -0.6396,-1.00943 -0.74813,-1.32763 -0.57922,-1.69835 0.11472,-0.25177 1.09699,-0.94871 2.19213,-1.55536 6.0175,-3.33336 13.23592,-5.45639 20.43722,-6.01086 8.00291,-0.61618 17.25232,1.09637 24.30373,4.49991 1.10899,0.53528 1.4988,0.83585 1.54978,1.19499 0.079,0.55689 -1.74785,4.03846 -2.21272,4.21685 -0.16954,0.0651 -1.42711,-0.35932 -2.79459,-0.94307 -7.89172,-3.3688 -16.17113,-4.38862 -24.48609,-3.01609 -4.92306,0.81264 -8.59599,2.03179 -13.19337,4.37926 -1.67035,0.8529 -3.11806,1.55072 -3.21715,1.55072 -0.0991,0 -0.41246,-0.30956 -0.6964,-0.68792 z m -6.11508,-9.63083 c -0.94349,-1.07404 -2.29966,-3.52137 -2.23933,-4.0411 0.0852,-0.73426 1.27553,-1.51569 5.35662,-3.51658 8.67776,-4.25456 17.33978,-6.2539 27.09203,-6.25331 9.2465,5.5e-4 17.15723,1.68081 25.61297,5.44026 2.86734,1.27483 2.93864,1.48905 1.44089,4.32969 -0.72291,1.37107 -1.12917,1.91797 -1.4925,2.00916 -0.3359,0.0843 -1.10159,-0.15258 -2.34047,-0.72409 -8.18006,-3.77352 -17.61211,-5.53603 -26.37945,-4.92935 -8.3341,0.5767 -14.51274,2.2627 -21.92264,5.98217 -2.27013,1.13951 -4.27943,2.07222 -4.46511,2.0727 -0.18569,4.2e-4 -0.48404,-0.16582 -0.66301,-0.36955 z m -6.56952,-10.78275 c -0.66943,-0.17456 -2.69569,-3.44185 -2.69569,-4.34673 0,-0.86422 0.58023,-1.37359 3.21593,-2.82315 8.83322,-4.85804 17.89646,-7.70121 28.74573,-9.01764 2.92633,-0.35508 12.13901,-0.35415 15.13417,0.002 9.14802,1.08632 18.02448,3.57215 24.62521,6.89623 1.23099,0.61992 1.51869,0.8667 1.71941,1.47487 0.22303,0.67578 0.1692,0.87344 -0.71999,2.64393 -1.38319,2.7541 -1.74269,2.85823 -4.93288,1.42889 -6.26887,-2.80871 -12.46665,-4.57707 -19.52758,-5.57162 -3.72389,-0.52452 -13.61644,-0.52796 -17.295,-0.006 -9.30009,1.31959 -17.27906,3.95522 -24.84518,8.2069 -2.13286,1.19854 -2.56135,1.3378 -3.42413,1.11281 z"
           style="fill:#7e817e;stroke-width:0.21166667" />
        <path
           inkscape:connector-curvature="0"
           id="path110"
           d="m 127.03033,298.65207 c -2.2911,-0.91359 -2.84672,-3.95358 -1.02563,-5.61162 0.273,-0.24856 0.71067,-0.51692 0.97261,-0.59635 0.46982,-0.14248 0.47625,-0.19355 0.47625,-3.78356 v -3.63913 l 3.90822,-3.90394 3.90822,-3.90394 0.0605,-1.80653 c 0.0533,-1.59174 0.1092,-1.81585 0.46987,-1.88485 0.70258,-0.13442 0.96649,0.5435 0.96649,2.48258 v 1.79896 l -3.91583,3.93559 -3.91583,3.9356 v 3.3319 c 0,3.28696 0.007,3.33441 0.48934,3.51795 0.74313,0.28253 1.80076,1.60692 1.95965,2.45391 0.15988,0.85224 -0.32496,2.3774 -0.92976,2.92473 -0.5057,0.45765 -1.82381,0.98942 -2.41202,0.97308 -0.26568,-0.007 -0.72112,-0.10835 -1.01211,-0.22438 z m 47.75599,0.0281 c -2.62174,-0.82481 -3.00821,-4.46541 -0.62723,-5.9086 l 0.90609,-0.54921 0.007,-3.28298 0.007,-3.28298 -3.91583,-3.91154 -3.91583,-3.91154 0.003,-1.90715 c 0.004,-2.13491 0.13732,-2.50514 0.86736,-2.40191 0.48191,0.0681 0.50802,0.15491 0.56576,1.88035 l 0.0605,1.80891 3.90823,3.90394 3.90822,3.90394 6.3e-4,3.60048 6.4e-4,3.60048 0.77603,0.42333 c 1.22376,0.66758 1.65699,1.41469 1.65699,2.8575 0,1.31803 -0.3543,2.02862 -1.38891,2.78562 -0.63018,0.46109 -1.9952,0.65058 -2.81917,0.39136 z m -36.63133,-5.07194 c -1.36743,-0.9014 -1.92251,-2.63785 -1.31104,-4.1013 0.31365,-0.75068 1.46611,-1.83541 1.95002,-1.83541 0.22577,0 0.30126,-0.30613 0.30126,-1.22175 v -1.22176 l 1.79916,-1.78982 1.79917,-1.78982 0.003,-3.81467 c 0.002,-2.09807 0.084,-3.94207 0.18269,-4.09778 0.0987,-0.1557 0.4068,-0.25095 0.68467,-0.21166 l 0.50523,0.0714 0.0571,4.33973 0.0571,4.33972 -1.8033,1.79394 c -1.70194,1.69309 -1.80331,1.84476 -1.80331,2.69819 0,0.65313 0.0861,0.90425 0.31014,0.90425 0.4673,0 1.71885,1.18231 2.01925,1.90754 0.60446,1.4593 -0.21402,3.56429 -1.61322,4.14891 -1.00595,0.42032 -2.39947,0.36714 -3.13807,-0.11974 z m 24.27455,-0.009 c -1.12281,-0.68459 -1.56911,-1.59585 -1.47788,-3.01761 0.064,-0.99715 0.1905,-1.33551 0.69959,-1.87098 0.34181,-0.35952 0.88342,-0.7905 1.20356,-0.95772 0.47105,-0.24604 0.58209,-0.44952 0.58209,-1.06669 0,-0.67189 -0.21466,-0.98201 -1.80366,-2.60585 l -1.80366,-1.84319 0.0574,-4.31804 c 0.0542,-4.07653 0.0803,-4.32246 0.46675,-4.39674 0.82816,-0.1592 0.96649,0.46856 0.96649,4.38611 v 3.70286 l 1.79917,1.83859 1.79916,1.8386 v 1.13976 c 0,1.06447 0.0422,1.15844 0.63917,1.42267 1.08395,0.47981 1.77179,1.59617 1.78423,2.89582 0.0121,1.2674 -0.39919,1.99839 -1.57458,2.79835 -0.90221,0.61404 -2.38014,0.63797 -3.33784,0.0541 z m -11.81005,-7.61245 c -0.75023,-0.30383 -1.73627,-1.61847 -1.88813,-2.51734 -0.10562,-0.62517 -0.0345,-1.09607 0.26932,-1.78287 0.38623,-0.87315 1.40252,-1.84682 1.92764,-1.84682 0.15696,0 0.23191,-0.94933 0.23191,-2.93742 0,-3.0926 0.13194,-3.53997 0.99525,-3.37467 0.33892,0.0649 0.39217,0.40167 0.48642,3.07623 l 0.10583,3.00336 0.98141,0.64946 c 0.53978,0.35721 1.10046,0.93686 1.24595,1.28811 0.9179,2.21601 -0.63906,4.66329 -2.94658,4.63151 -0.53576,-0.007 -1.16982,-0.0927 -1.40902,-0.18955 z m 88.52958,-7.86072 c -0.44293,-0.10423 -1.27937,-0.39343 -1.85874,-0.64267 l -1.05342,-0.45317 0.0596,-2.34978 c 0.0644,-2.53864 0.13833,-2.67275 1.31159,-2.37828 0.40589,0.10187 0.5185,0.35124 0.74929,1.65916 0.14938,0.8466 0.3499,1.6892 0.44558,1.87244 0.36566,0.70025 3.27048,1.10128 4.52424,0.6246 0.76505,-0.29087 1.38798,-1.4134 1.38892,-2.50287 0.001,-1.72542 -0.76851,-2.58813 -3.80921,-4.26779 -2.54676,-1.40681 -3.72157,-2.51707 -4.1344,-3.9072 -0.41139,-1.38531 -0.38539,-2.37439 0.0895,-3.40325 0.4936,-1.06948 1.13441,-1.65906 2.42255,-2.22887 1.77213,-0.7839 5.30512,-0.51539 7.38752,0.56146 0.58447,0.30225 0.58487,0.30403 0.58487,2.61063 0,2.23132 -0.0159,2.31056 -0.47625,2.37983 -1.20253,0.18095 -1.35887,0.0192 -1.64476,-1.70222 -0.34942,-2.10385 -0.46617,-2.30105 -1.5323,-2.58813 -2.05527,-0.55343 -3.81263,0.14252 -4.08973,1.61961 -0.33179,1.76857 0.41304,2.70516 3.46079,4.3518 3.46171,1.87029 4.90513,3.57249 4.91054,5.79089 0.006,2.26534 -1.50811,4.16713 -3.87634,4.87042 -1.15559,0.34318 -3.57905,0.38476 -4.85978,0.0834 z m 14.0345,-0.046 c -1.23773,-0.39231 -2.60847,-1.95042 -3.02646,-3.44016 -0.66949,-2.38601 -0.35892,-5.22718 0.7515,-6.87492 2.10067,-3.11719 6.65791,-3.22782 8.20304,-0.19913 0.55369,1.08534 0.94106,3.5426 0.61952,3.93002 -0.18194,0.21923 -1.07744,0.30449 -3.65883,0.34833 l -3.41794,0.0581 0.0509,1.05833 c 0.0668,1.38926 0.59118,2.74909 1.2643,3.27856 0.86879,0.68339 2.47945,0.58414 3.76654,-0.2321 l 1.0371,-0.65771 0.38017,0.46949 c 0.20909,0.25822 0.38017,0.54934 0.38017,0.64694 0,0.26688 -1.2948,1.20084 -2.17418,1.56827 -0.89079,0.3722 -3.07094,0.39622 -4.17582,0.046 z m 3.65149,-8.89001 c -0.0616,-1.19081 -0.30132,-1.71409 -0.99306,-2.16734 -0.83045,-0.54413 -1.82738,0.0113 -2.52189,1.40498 -0.93299,1.87227 -0.90024,1.91239 1.50388,1.84182 l 2.06375,-0.0606 z m 20.26685,9.04426 c -0.17463,-0.0634 -0.72232,-0.25988 -1.21709,-0.43659 l -0.89958,-0.32131 v -1.67583 -1.67582 h 0.81298 c 0.81273,0 0.81307,4.2e-4 1.07346,1.16393 0.2933,1.31057 0.57122,1.4802 2.39455,1.46148 1.25545,-0.0129 1.85734,-0.50018 1.85734,-1.50367 0,-0.91723 -0.50378,-1.41851 -2.55387,-2.5412 -2.70907,-1.48357 -3.6814,-2.9984 -3.1622,-4.92655 0.24532,-0.91107 0.78636,-1.53289 1.80024,-2.06905 0.96648,-0.51109 3.5518,-0.4511 4.81542,0.11175 l 1.00541,0.44784 v 1.5994 1.5994 h -0.83369 c -0.82457,0 -0.83525,-0.0103 -0.97511,-0.94295 -0.21729,-1.449 -0.49847,-1.70288 -1.88602,-1.70288 -1.26135,0 -1.58747,0.22408 -1.5936,1.09501 -0.005,0.75483 0.95389,1.66691 2.89307,2.75094 1.22069,0.68238 2.03497,1.30395 2.44855,1.86905 0.55494,0.75826 0.61139,0.98021 0.54057,2.12567 -0.1473,2.38256 -1.54854,3.50789 -4.5096,3.62163 -0.93133,0.0358 -1.83621,0.0132 -2.01083,-0.0503 z m 11.68719,-0.14223 c -0.98743,-0.3164 -2.47199,-1.69413 -2.99934,-2.7835 -1.41672,-2.92655 -0.81141,-6.65169 1.39575,-8.5896 1.09955,-0.96542 2.08353,-1.32397 3.63559,-1.32478 1.61589,-8.4e-4 3.36339,0.79661 4.3045,1.96429 1.42253,1.76498 1.85001,4.81449 0.99934,7.12875 -0.56026,1.52423 -2.2066,3.22748 -3.49009,3.61071 -1.03335,0.30855 -2.87327,0.30574 -3.84575,-0.006 z m 3.1227,-1.52965 c 0.38098,-0.19701 0.82256,-0.75414 1.18516,-1.4953 1.10321,-2.25486 0.67749,-6.37199 -0.78623,-7.60362 -1.26268,-1.06248 -2.99115,-0.56381 -3.81006,1.09922 -0.43251,0.87835 -0.49734,1.31708 -0.49343,3.33953 0.004,1.96041 0.0755,2.46212 0.45373,3.175 0.89085,1.679 2.08344,2.19227 3.45083,1.48517 z m 17.57511,1.65942 c -0.17463,-0.0566 -0.72231,-0.24742 -1.21708,-0.42413 l -0.89959,-0.32131 v -1.67583 -1.67582 h 0.82264 c 0.81238,0 0.8244,0.0119 0.96508,0.94997 0.17873,1.19175 0.48865,1.50243 1.67646,1.68055 1.90549,0.28575 3.17843,-0.85973 2.43652,-2.19252 -0.1665,-0.29911 -0.75142,-0.82959 -1.29981,-1.17884 -0.54838,-0.34925 -1.56237,-0.99438 -2.25329,-1.43363 -3.31434,-2.10706 -2.61934,-6.06093 1.15633,-6.57844 1.05029,-0.14396 3.08426,0.17962 3.95305,0.6289 0.56136,0.29028 0.58636,0.37068 0.58636,1.88528 v 1.58206 h -0.82229 -0.82228 l -0.28897,-1.21708 -0.28896,-1.21709 -1.00309,-0.19378 c -1.40494,-0.27143 -2.06608,0.0502 -2.06608,1.00501 0,0.86866 0.58045,1.54546 2.02353,2.35938 2.09207,1.17998 3.03748,1.90848 3.46587,2.6707 0.51186,0.9107 0.56913,2.28554 0.13058,3.13362 -0.44579,0.86204 -1.6771,1.86912 -2.59795,2.12485 -0.80635,0.22393 -3.06934,0.27847 -3.65703,0.0882 z m 37.59516,-0.30578 c -1.15365,-0.90745 -1.27278,-1.42789 -1.36183,-5.94912 l -0.0821,-4.16863 -0.66603,-0.0647 c -0.5719,-0.0555 -0.67503,-0.15678 -0.72966,-0.7163 -0.0574,-0.58766 0.0217,-0.68514 0.80624,-0.99329 0.75222,-0.29549 0.94649,-0.51507 1.43652,-1.62382 0.52629,-1.19075 0.61591,-1.28212 1.25751,-1.28212 h 0.69086 v 1.5875 1.5875 h 1.60092 1.6009 l -0.0663,0.68792 c -0.0656,0.68052 -0.0823,0.69022 -1.548,0.90267 l -1.48167,0.21476 v 3.85256 c 0,3.38244 0.0451,3.8976 0.36928,4.22154 0.32747,0.32721 0.48103,0.33907 1.35695,0.1048 1.03767,-0.27754 1.20959,-0.21467 1.43211,0.52368 0.11636,0.38607 -0.0284,0.53607 -0.97028,1.00542 -1.40093,0.69812 -2.84217,0.74146 -3.6454,0.10963 z m 9.10433,0.13126 c -2.15604,-0.76854 -3.52717,-2.84597 -3.68569,-5.58427 -0.24024,-4.15001 2.10175,-7.08327 5.64968,-7.07605 0.7735,0.001 1.73912,0.14782 2.16607,0.32806 4.95963,2.09375 4.81165,10.60716 -0.21414,12.31962 -1.16506,0.39697 -2.8227,0.40232 -3.91592,0.0126 z m 3.7193,-1.99576 c 1.09561,-1.22609 1.51898,-3.93527 0.99604,-6.37369 -0.33253,-1.55052 -1.49708,-2.74979 -2.67017,-2.74979 -1.05449,0 -1.78101,0.53805 -2.35907,1.74707 -0.83617,1.74884 -0.78818,4.76433 0.10579,6.64823 0.78243,1.64884 2.77465,2.01822 3.92741,0.72818 z m 17.39555,2.11755 c -2.18596,-0.56123 -4.44845,-2.43158 -5.40436,-4.4677 -2.86228,-6.0968 0.56642,-13.18095 6.75014,-13.94658 1.8031,-0.22326 3.91331,0.0286 5.49559,0.65589 l 1.22679,0.48637 0.0599,2.3805 c 0.059,2.3489 0.0534,2.38082 -0.42333,2.40557 -0.56782,0.0295 -1.08477,-0.0329 -1.20019,-0.14485 -0.0451,-0.0437 -0.23944,-0.86812 -0.43182,-1.83196 -0.40335,-2.0206 -0.65725,-2.24638 -2.73603,-2.43303 -2.51326,-0.22566 -4.3362,0.83541 -5.51772,3.21171 -0.6455,1.29821 -0.73459,1.68874 -0.81922,3.59158 -0.16476,3.70487 0.99393,6.56311 3.11133,7.67496 1.80296,0.94672 4.68364,0.51183 6.80932,-1.02801 l 0.90756,-0.65744 0.51945,0.6039 0.51946,0.6039 -0.9285,0.80907 c -0.51067,0.44499 -1.54762,1.10929 -2.30433,1.47623 -1.16063,0.5628 -1.65725,0.67593 -3.175,0.72322 -0.98954,0.0308 -2.0961,-0.0202 -2.459,-0.11333 z m 20.16015,-0.12179 c -2.15603,-0.76854 -3.52717,-2.84597 -3.68569,-5.58427 -0.24024,-4.15001 2.10175,-7.08327 5.64969,-7.07605 0.77349,0.001 1.73911,0.14782 2.16606,0.32806 4.9508,2.09002 4.8027,10.6102 -0.21414,12.31962 -1.16505,0.39697 -2.8227,0.40232 -3.91592,0.0126 z m 3.7193,-1.99576 c 1.09561,-1.22609 1.51899,-3.93527 0.99604,-6.37369 -0.33252,-1.55052 -1.49707,-2.74979 -2.67017,-2.74979 -0.53095,0 -1.05366,0.15949 -1.39012,0.42416 -2.17107,1.70776 -2.07353,7.74188 0.1477,9.13695 0.93303,0.58601 2.16736,0.4008 2.91655,-0.43763 z m 8.22793,1.93578 c -1.5255,-0.77787 -1.59497,-1.03208 -1.66713,-6.09998 l -0.0646,-4.53595 h -0.53143 c -1.10223,0 -1.82238,-0.93943 -1.08566,-1.41625 0.4651,-0.30101 3.83923,-0.65217 4.1275,-0.42956 0.19817,0.15303 0.26459,1.43463 0.26459,5.10547 0,4.09335 0.0543,4.97869 0.3295,5.37158 0.58871,0.84051 2.07751,0.57087 3.23412,-0.58574 l 0.66971,-0.66973 v -3.66083 -3.66083 l -0.85973,-0.13748 c -0.81697,-0.13063 -0.85646,-0.17128 -0.79375,-0.81711 l 0.066,-0.67964 1.905,-0.235 c 1.21088,-0.14938 2.0001,-0.16164 2.16601,-0.0337 0.19183,0.14799 0.27595,1.61125 0.3175,5.52298 l 0.0565,5.32164 0.79375,0.0657 c 0.75066,0.0621 0.79375,0.10523 0.79375,0.79375 0,0.60862 -0.0781,0.73099 -0.47625,0.74592 -0.26194,0.01 -1.04775,0.0919 -1.74625,0.18245 -1.45684,0.1888 -1.79917,0.0249 -1.79917,-0.86123 0,-0.33499 -0.0577,-0.60908 -0.12829,-0.60908 -0.0706,0 -0.48548,0.28289 -0.92204,0.62865 -0.43654,0.34576 -1.05177,0.72676 -1.36715,0.84667 -0.87743,0.3336 -2.47445,0.25929 -3.28247,-0.15273 z m 13.42579,0.019 c -1.77942,-0.93809 -2.65959,-2.55591 -2.80816,-5.16155 -0.12546,-2.20007 0.27091,-3.77782 1.28206,-5.10355 1.66775,-2.18655 3.72464,-2.81725 6.71193,-2.05805 0.38481,0.0978 0.52906,-1.23177 0.31852,-2.93556 -0.12182,-0.98579 -0.19338,-1.11125 -0.63394,-1.11125 -0.86098,0 -1.16624,-0.22649 -1.16624,-0.86528 0,-0.68809 0.003,-0.68909 2.61569,-0.98129 1.29419,-0.14472 1.68632,-0.12574 1.76739,0.0855 0.0573,0.14933 0.11849,3.91659 0.13596,8.37169 l 0.0318,8.1002 0.84667,0.10583 c 0.77317,0.0967 0.84666,0.1602 0.84666,0.73216 0,0.54558 -0.0953,0.64581 -0.73933,0.77753 -0.40663,0.0832 -1.26378,0.18232 -1.90474,0.22034 -1.14339,0.0678 -1.16953,0.0565 -1.38157,-0.59874 l -0.21614,-0.66787 -0.55585,0.40492 c -1.38153,1.00637 -3.90458,1.34189 -5.1507,0.68495 z m 4.55081,-2.29412 c 1.03169,-0.71494 1.09792,-1.02419 1.01545,-4.74009 -0.0623,-2.8043 -0.0692,-2.83974 -0.63623,-3.26269 -0.35153,-0.2622 -1.02525,-0.46509 -1.74159,-0.52449 -1.10494,-0.0916 -1.20769,-0.0575 -1.89482,0.62964 -0.92837,0.92837 -1.2664,2.1197 -1.27997,4.51096 -0.009,1.62912 0.062,2.03238 0.49179,2.78462 0.27641,0.48379 0.7044,0.98263 0.95106,1.10852 0.72392,0.36945 2.1725,0.13235 3.09431,-0.50647 z m -163.98874,2.28029 -2.59292,-0.0708 v -0.60584 c 0,-0.6346 0.30649,-0.86279 1.15883,-0.86279 0.26907,0 0.54703,-0.15066 0.61769,-0.33481 0.0707,-0.18415 0.12848,-2.18739 0.12848,-4.45164 0,-3.11486 -0.0644,-4.13395 -0.26458,-4.18714 -1.3633,-0.36225 -1.53699,-0.47412 -1.60156,-1.03156 -0.0368,-0.318 -0.0368,-0.58451 0,-0.59226 0.0368,-0.008 0.97185,-0.13656 2.07781,-0.28627 2.24756,-0.30424 2.54,-0.21369 2.54,0.7865 v 0.64597 l 0.47625,-0.43547 c 1.62924,-1.48973 4.21502,-1.62446 5.73929,-0.29904 0.73002,0.63479 0.85623,1.38028 0.97188,5.74072 l 0.11508,4.33917 0.74083,0.10583 c 0.6854,0.0979 0.74084,0.16127 0.74084,0.84667 0,0.67028 -0.0554,0.73957 -0.58209,0.7276 -0.32014,-0.007 -1.68045,-0.0311 -3.02289,-0.0529 -2.04074,-0.0332 -2.46259,-0.0965 -2.57369,-0.38596 -0.20617,-0.53727 0.22442,-1.01905 1.01475,-1.1354 l 0.71892,-0.10583 0.0641,-3.59834 c 0.0691,-3.87604 -0.10987,-5.02548 -0.84366,-5.41819 -0.72074,-0.38573 -1.89767,0.0952 -2.90361,1.18654 l -0.87846,0.95301 0.0583,3.30988 c 0.0629,3.57105 0.0421,3.51013 1.28824,3.77342 0.52193,0.11028 0.58688,0.20924 0.52916,0.80636 -0.0757,0.7833 0.18365,0.73916 -3.71703,0.63261 z m 37.24036,-0.004 -3.02923,-0.0651 0.0659,-0.68203 c 0.06,-0.62131 0.13654,-0.68787 0.85964,-0.74772 l 0.79375,-0.0657 v -4.511 -4.511 l -0.85973,-0.13748 c -0.81798,-0.1308 -0.85653,-0.17068 -0.79375,-0.82081 0.0653,-0.67681 0.0791,-0.68463 1.44181,-0.82045 0.75671,-0.0754 1.70921,-0.17067 2.11667,-0.21166 0.73112,-0.0736 0.74223,-0.0625 0.84666,0.84468 l 0.10584,0.91922 0.52916,-0.57756 c 1.23798,-1.35118 3.6122,-1.70285 4.03253,-0.5973 0.10391,0.2733 0.15193,0.6168 0.10672,0.76333 -0.0452,0.14653 -0.14217,0.53852 -0.21543,0.87108 -0.12698,0.57637 -0.17486,0.59852 -1.02309,0.47347 -1.13951,-0.168 -2.18157,0.13787 -2.9377,0.8623 l -0.59803,0.57294 v 3.32442 c 0,3.6641 -0.032,3.58138 1.3857,3.58138 0.86458,0 1.30486,0.59318 0.94264,1.27 -0.12461,0.23283 -0.34227,0.40235 -0.4837,0.37671 -0.14142,-0.0256 -1.62029,-0.0759 -3.28636,-0.11173 z m 25.32765,-0.006 c -2.49891,-0.0471 -3.12481,-0.11908 -3.22127,-0.37042 -0.21628,-0.56365 0.1121,-0.9473 0.92166,-1.07676 0.77904,-0.12457 0.79968,-0.15163 0.92757,-1.21589 0.0719,-0.59866 0.13159,-3.91656 0.13261,-7.3731 l 0.002,-6.28463 -0.89958,-0.1779 c -0.81633,-0.16144 -0.89958,-0.23604 -0.89958,-0.80621 v -0.6283 l 3.22582,-0.0146 c 2.84158,-0.0129 3.23922,0.0277 3.33853,0.3406 0.19842,0.62516 -0.11303,0.99646 -0.94784,1.12995 l -0.81316,0.13003 -0.13902,2.17035 c -0.0765,1.19369 -0.10946,4.50101 -0.0733,7.34959 l 0.0657,5.17925 0.89958,0.17779 c 0.80912,0.15992 0.89958,0.23914 0.89958,0.78785 0,0.33553 -0.0714,0.63948 -0.15875,0.67546 -0.0873,0.036 -1.55446,0.0391 -3.26032,0.007 z m 7.12324,-0.0328 -2.54,-0.12043 -0.0663,-0.5747 c -0.0676,-0.58654 0.0358,-0.6522 1.33627,-0.84858 0.40594,-0.0613 0.42569,-0.24861 0.48047,-4.55907 l 0.0571,-4.49516 h -0.5473 c -0.77007,0 -1.36612,-0.3672 -1.36612,-0.84162 0,-0.58428 0.32137,-0.71916 2.32833,-0.97719 2.00694,-0.25803 2.32834,-0.15145 2.32834,0.77209 v 0.59476 l 1.03213,-0.69457 c 1.21795,-0.81961 2.27793,-1.03653 3.6083,-0.73839 0.96704,0.21672 1.74208,0.76759 2.20525,1.56742 0.15407,0.26606 0.28448,2.07482 0.35098,4.86834 l 0.10584,4.445 0.74083,0.10583 c 0.6854,0.0979 0.74083,0.16127 0.74083,0.84667 0,0.63164 -0.0702,0.7386 -0.47625,0.72571 -0.26193,-0.008 -1.61283,-0.0321 -3.00198,-0.0529 -2.34239,-0.0351 -2.53572,-0.0693 -2.66332,-0.47129 -0.18614,-0.58646 0.21247,-1.01016 1.02441,-1.08886 l 0.67214,-0.0651 0.0623,-3.59834 c 0.0732,-4.22594 -0.0104,-4.86096 -0.69863,-5.31197 -0.73334,-0.48051 -1.6779,-0.20482 -2.78054,0.81154 l -0.92233,0.85018 v 3.57802 c 0,2.67783 0.0666,3.59853 0.26458,3.65953 0.14552,0.0448 0.53232,0.14036 0.85954,0.21229 0.52112,0.11454 0.58678,0.21524 0.52916,0.81143 -0.0766,0.79304 0.0843,0.76715 -3.66412,0.58942 z m 56.09168,0 c -2.36887,-0.11232 -2.54426,-0.1502 -2.60315,-0.56229 -0.0786,-0.55036 0.29767,-0.87522 1.12148,-0.96816 l 0.635,-0.0716 0.0557,-7.35542 0.0556,-7.35541 h -0.62261 c -0.5678,0 -1.29259,-0.45637 -1.28463,-0.80887 0.0121,-0.53203 0.54837,-0.75863 2.31563,-0.97831 1.43739,-0.17866 1.98741,-0.17915 2.13451,-0.002 0.11335,0.13657 0.22194,3.71921 0.25367,8.36934 l 0.0555,8.13057 0.74084,0.10583 c 0.68539,0.0979 0.74083,0.16127 0.74083,0.84667 0,0.86604 0.20104,0.82975 -3.59833,0.6496 z m -262.14919,-7.2414 c -2.58775,-0.42748 -5.52019,-2.30858 -7.14214,-4.58155 -3.27173,-4.58492 -2.76708,-10.66743 1.21547,-14.64998 1.68147,-1.68147 3.50357,-2.64247 5.90867,-3.1163 5.71611,-1.12614 11.51516,2.55949 13.06276,8.30213 0.15687,0.58208 0.28634,1.64684 0.28773,2.36613 0.002,1.24538 0.31556,1.97304 0.84917,1.97304 1.29236,0 0.99567,-3.87 -0.54577,-7.11899 -1.20494,-2.53972 -3.11486,-4.47016 -5.83946,-5.9022 l -1.41107,-0.74165 0.21248,-0.7915 c 0.35919,-1.33796 1.98054,-4.58967 2.94133,-5.89895 2.678,-3.64939 6.38039,-6.13195 10.88666,-7.29985 2.57835,-0.66823 6.59315,-0.6678 9.10167,0.001 1.97686,0.52704 4.65478,1.76228 6.39355,2.94915 1.38473,0.94521 3.89282,3.47549 4.8633,4.90634 3.12228,4.6034 4.03275,10.54568 2.48426,16.21386 -0.17001,0.62234 0.44296,1.21305 0.96747,0.93234 1.0827,-0.57944 1.70975,-6.38661 1.07435,-9.94954 -0.2904,-1.62835 -0.96836,-3.80481 -1.53936,-4.94176 -0.22491,-0.44784 -0.34801,-0.87518 -0.27355,-0.94964 0.0745,-0.0745 1.15267,-0.16917 2.39601,-0.21047 2.77901,-0.0923 4.51664,0.27449 7.02314,1.48249 2.5387,1.22351 5.06899,3.75245 6.31609,6.31271 1.13978,2.33995 1.52311,3.89962 1.54138,6.2714 0.0324,4.21051 -1.4135,7.70842 -4.36354,10.5561 -3.13875,3.02985 -6.76311,4.23576 -12.2781,4.08522 l -2.32833,-0.0636 -0.10584,-1.905 c -0.10064,-1.81159 -0.1306,-1.9085 -0.61106,-1.97643 -0.72067,-0.1019 -0.8637,0.26763 -0.86736,2.24101 l -0.003,1.74618 h -2.96334 -2.96333 v -3.05405 c 0,-2.49418 -0.061,-3.11502 -0.33262,-3.38667 -0.41774,-0.41774 -0.61035,-0.41774 -1.02809,0 -0.27165,0.27165 -0.33262,0.89249 -0.33262,3.38667 v 3.05405 h -3.38667 -3.38667 v -4.56475 c 0,-4.66163 -0.10886,-5.38358 -0.81178,-5.38358 -0.8232,0 -0.88155,0.34638 -0.88155,5.2334 v 4.72541 l -3.43959,-0.0582 -3.43958,-0.0582 -0.0584,-3.21538 c -0.0547,-3.01471 -0.0851,-3.22386 -0.48641,-3.35123 -0.90995,-0.28881 -1.04273,0.15984 -1.04273,3.52336 v 3.14909 h -2.96333 -2.96334 v -1.75684 c 0,-1.80795 -0.17783,-2.26483 -0.88155,-2.26483 -0.58281,0 -0.81178,0.68265 -0.81178,2.42025 v 1.60142 l -3.43958,-0.0247 c -1.89177,-0.0136 -3.96346,-0.11128 -4.60375,-0.21705 z"
           style="fill:#0159fe;stroke-width:0.21166667" />
      </g>
    </g>
    <path
       style="fill:#26064c;fill-opacity:1;stroke-width:0.26996624;stroke-miterlimit:4;stroke-dasharray:none"
       d="m 152.46021,680.75409 c -3.69153,-1.06966 -9.0319,-5.16254 -11.51229,-8.82306 -8.27071,-12.20579 -4.24562,-29.7595 8.22847,-35.88497 5.35521,-2.6297 12.46462,-2.76524 17.16708,-0.32729 7.56144,3.92017 11.80827,10.24332 12.94155,19.26884 0.73111,5.82258 0.91241,6.20594 2.62425,5.54904 1.01114,-0.38801 1.14385,-1.26061 0.86132,-5.66302 -0.56264,-8.76727 -5.02092,-16.2443 -12.81591,-21.49375 l -3.34108,-2.25002 2.00484,-5.15288 c 5.33791,-13.71958 15.29476,-22.31236 28.4729,-24.57216 18.1068,-3.10497 36.30781,10.73937 40.54845,30.84261 1.104,5.23361 1.05207,12.14124 -0.149,19.82142 -0.42854,2.74027 -0.33195,3.03572 0.99248,3.03572 2.37437,0 3.33757,-4.14757 3.31761,-14.28572 -0.0151,-7.6645 -0.27147,-9.65616 -1.81092,-14.06786 l -1.79333,-5.13928 2.65841,-0.44914 c 5.99679,-1.01315 14.09587,1.62202 19.68262,6.40407 6.10549,5.22607 10.23791,14.54191 10.23791,23.07961 0,12.61409 -6.05456,23.15175 -16.16076,28.12703 -4.075,2.00611 -5.53435,2.32362 -12.00194,2.61127 l -7.36286,0.32745 -0.63007,-4.19657 c -0.44653,-2.97406 -0.9422,-4.19658 -1.70151,-4.19658 -0.80332,0 -1.12504,1.02775 -1.28564,4.10715 l -0.21423,4.10714 h -5.23655 -5.23655 l -0.50867,-6.78471 c -0.27978,-3.73159 -0.8489,-6.99498 -1.26473,-7.25198 -1.63137,-1.00825 -2.6822,2.16586 -2.6822,8.10178 v 5.93491 h -6.07143 -6.07143 v -7.04316 c 0,-9.87946 -0.59532,-13.67113 -2.14649,-13.67113 -1.61436,0 -2.12119,3.09985 -2.13136,13.03572 l -0.008,7.67857 h -6.02004 -6.02003 l -0.41328,-3.75 c -0.2273,-2.0625 -0.4915,-5.19643 -0.58711,-6.96429 -0.12458,-2.30369 -0.47736,-3.21428 -1.24526,-3.21428 -0.83653,0 -1.20799,1.52683 -1.6943,6.96428 l -0.62288,6.96429 h -5.26998 -5.26998 v -3.88641 c 0,-2.13753 -0.33551,-4.09378 -0.74558,-4.34721 -1.52391,-0.94184 -2.82585,1.24645 -2.82585,4.74965 v 3.48397 l -7.32143,-0.0644 c -4.02678,-0.0354 -8.3312,-0.35702 -9.56536,-0.71463 z"
       id="path16784"
       inkscape:connector-curvature="0"
       transform="scale(0.26458333)" />
    <path
       style="fill:#26064c;fill-opacity:1;stroke-width:0.09544748;stroke-miterlimit:4;stroke-dasharray:none"
       d="m 370.20059,697.19322 c -0.69448,-0.18111 -2.2685,-0.76494 -3.49784,-1.29742 l -2.23515,-0.96813 0.17748,-4.44166 c 0.20609,-5.15769 0.37525,-5.73499 1.65207,-5.63808 1.25517,0.0953 1.63727,0.72813 2.1259,3.52103 0.73694,4.21215 0.8027,4.35396 2.34702,5.06097 1.03607,0.47433 1.92187,0.647 3.80002,0.74073 2.20845,0.11021 2.56067,0.0644 3.58546,-0.4665 0.91571,-0.47439 1.28355,-0.883 1.89403,-2.10396 0.64858,-1.29716 0.75492,-1.78781 0.73888,-3.40926 -0.0345,-3.48605 -1.1351,-4.87258 -6.91525,-8.71171 -4.76359,-3.16394 -5.74212,-3.98927 -7.04755,-5.94416 -1.89838,-2.84285 -2.29888,-7.02178 -0.95441,-9.9585 1.75022,-3.82298 5.57759,-5.71143 10.85214,-5.35451 3.61915,0.2449 8.18235,1.74685 8.59798,2.82996 0.30534,0.79571 0.17734,9.08814 -0.14526,9.41074 -0.16668,0.16667 -0.79751,0.30304 -1.40185,0.30304 -1.00211,0 -1.12848,-0.0722 -1.43615,-0.82075 -0.18554,-0.45141 -0.47167,-1.67306 -0.63584,-2.71478 -0.42182,-2.67648 -0.93672,-4.39189 -1.45742,-4.85546 -0.57899,-0.51545 -2.93132,-1.20546 -4.10961,-1.20546 -3.40068,0 -5.55584,2.10694 -5.55584,5.43152 0,2.84989 1.06688,4.09751 6.68657,7.81941 4.47773,2.96558 6.90394,5.08258 8.03307,7.0093 2.7343,4.66573 1.36244,11.09961 -3.00784,14.10645 -2.17637,1.49737 -3.38184,1.81206 -7.29238,1.90366 -2.34735,0.055 -3.95989,-0.0279 -4.79823,-0.24647 z"
       id="path16786"
       inkscape:connector-curvature="0"
       transform="scale(0.26458333)" />
    <path
       style="fill:#26064c;fill-opacity:1;stroke-width:0.09544748;stroke-miterlimit:4;stroke-dasharray:none"
       d="m 414.61139,696.84171 c -2.30343,-0.0733 -2.57445,-0.13188 -2.69203,-0.58149 -0.34856,-1.33289 0.64259,-2.50138 2.12881,-2.50972 1.31719,-0.007 1.35016,-0.20657 1.43869,-8.69164 0.0451,-4.31933 -0.0124,-8.40955 -0.12766,-9.08937 -0.21393,-1.26168 -0.33634,-1.39307 -1.80669,-1.93938 -1.18118,-0.43887 -1.55685,-0.89459 -1.55685,-1.88857 0,-0.99696 -0.20084,-0.92107 4.0085,-1.51485 2.85453,-0.40267 4.02214,-0.34344 4.38199,0.22227 0.10344,0.16261 0.18981,0.83545 0.19194,1.49521 0.002,0.65975 0.0724,1.19955 0.15616,1.19955 0.0838,0 0.71429,-0.50528 1.40118,-1.12284 2.22665,-2.00196 5.40398,-2.6845 8.14657,-1.75 1.62842,0.55486 3.04813,1.9484 3.42923,3.36604 0.39576,1.47215 0.73585,6.26181 0.78085,10.99729 0.0198,2.08344 0.10851,4.86494 0.19714,6.18112 l 0.16114,2.39305 1.11831,0.18998 c 0.61507,0.10449 1.21857,0.29024 1.3411,0.41278 0.12253,0.12253 0.18751,0.77844 0.14438,1.45757 l -0.0784,1.23479 -5.17703,-0.0947 c -2.84737,-0.0521 -5.43273,-0.1913 -5.74525,-0.30943 -0.40736,-0.15397 -0.56821,-0.41992 -0.56821,-0.93949 0,-0.94704 0.67728,-1.53025 2.04807,-1.76362 l 1.10866,-0.18873 0.20084,-4.41296 c 0.21499,-4.7238 0.0556,-11.10601 -0.31791,-12.72716 -0.82166,-3.56661 -4.06424,-3.25481 -7.34439,0.70622 l -1.28115,1.54708 0.0957,6.69226 c 0.0549,3.83773 0.20801,6.96083 0.359,7.32192 0.18055,0.43176 0.69095,0.79237 1.62396,1.14737 1.26434,0.48107 1.36606,0.58174 1.43716,1.42237 0.0493,0.58236 -0.0696,1.0508 -0.33372,1.31487 -0.42418,0.42419 -1.59954,0.45363 -8.87008,0.22216 z"
       id="path16788"
       inkscape:connector-curvature="0"
       transform="scale(0.26458333)" />
    <path
       style="fill:#26064c;fill-opacity:1;stroke-width:0.09544748;stroke-miterlimit:4;stroke-dasharray:none"
       d="m 397.27452,697.14052 c -1.6131,-0.51293 -3.88874,-2.78554 -4.94754,-4.94094 -1.2213,-2.48621 -1.6111,-4.80571 -1.48002,-8.80687 0.0928,-2.83377 0.22467,-3.74043 0.78099,-5.37111 1.15542,-3.38675 2.9208,-5.49928 5.72049,-6.84537 1.46796,-0.70579 1.88179,-0.78872 3.91435,-0.78439 1.96427,0.004 2.44426,0.0954 3.53553,0.67193 0.69448,0.3669 1.62587,1.04657 2.06977,1.51039 1.67376,1.74888 2.94382,5.83394 2.80232,9.01347 l -0.0739,1.65982 -0.88388,0.19021 c -0.48614,0.10462 -3.54157,0.26953 -6.78984,0.36645 l -5.90596,0.17624 0.14248,2.42096 c 0.22878,3.88753 1.49847,6.72038 3.36086,7.49853 1.94623,0.81319 4.3279,0.31388 6.97119,-1.46149 l 1.44054,-0.96754 0.69129,1.17961 0.6913,1.1796 -1.22964,1.11326 c -0.67629,0.61229 -1.80608,1.41263 -2.51063,1.77854 -1.13249,0.58815 -1.61772,0.6733 -4.1852,0.73443 -2.06922,0.0493 -3.25216,-0.0415 -4.11453,-0.31573 z m 6.9366,-18.41976 c -0.11416,-2.45764 -0.44932,-3.5626 -1.38517,-4.56667 -2.03853,-2.18713 -4.48634,-0.66208 -6.11802,3.8117 -0.98084,2.68928 -0.99566,2.6791 3.77033,2.59225 l 3.81498,-0.0695 z"
       id="path16790"
       inkscape:connector-curvature="0"
       transform="scale(0.26458333)" />
    <path
       style="fill:#26064c;fill-opacity:1;stroke-width:0.09544748;stroke-miterlimit:4;stroke-dasharray:none"
       d="m 441.2278,696.68943 -1.95632,-0.79608 -8.5e-4,-3.4724 -8.6e-4,-3.4724 h 1.37923 1.37923 l 0.27725,1.07329 c 0.75832,2.93553 0.91427,3.31822 1.54371,3.78817 0.96878,0.72329 3.66259,0.89448 5.14811,0.32716 1.3635,-0.52073 1.88923,-1.37304 1.88923,-3.06283 0,-1.84495 -0.65797,-2.62125 -4.25059,-5.01499 -4.91577,-3.27536 -6.60178,-5.3135 -6.81318,-8.23618 -0.21082,-2.91456 1.02046,-5.31771 3.45913,-6.75135 1.10287,-0.64835 1.33305,-0.68421 4.32164,-0.67329 2.92582,0.0107 3.28604,0.0666 4.9245,0.76443 l 1.76776,0.75289 0.0703,3.46559 0.0703,3.46558 h -1.03389 c -1.62944,0 -1.92007,-0.28167 -2.25092,-2.18153 -0.40624,-2.33279 -0.82212,-3.04235 -1.97002,-3.36114 -1.86722,-0.51855 -4.14053,-0.1298 -4.63412,0.79248 -0.1563,0.29205 -0.22846,1.02537 -0.16036,1.6296 0.17824,1.58126 1.44283,2.97903 4.66148,5.15237 6.28291,4.24243 7.22615,5.79616 6.36074,10.4776 -0.81309,4.39838 -3.75476,6.22036 -9.93552,6.15378 -1.95214,-0.021 -2.57793,-0.14199 -4.24591,-0.82075 z"
       id="path16792"
       inkscape:connector-curvature="0"
       transform="scale(0.26458333)" />
    <path
       style="fill:#26064c;fill-opacity:1;stroke-width:0.09544748;stroke-miterlimit:4;stroke-dasharray:none"
       d="m 466.35085,697.28761 c -1.95852,-0.46454 -4.91638,-3.20956 -6.12839,-5.68741 -1.17396,-2.40005 -1.60765,-4.44905 -1.60358,-7.57614 0.006,-4.54047 1.29506,-8.08342 3.92469,-10.78615 1.75755,-1.8064 3.58978,-2.69854 5.94728,-2.89581 4.35659,-0.36455 8.43327,1.9529 10.31403,5.86317 1.14602,2.38267 1.61968,4.66804 1.62049,7.81879 0.001,4.73509 -1.1303,7.58072 -4.28221,10.76915 -1.57669,1.59497 -2.14552,2.00081 -3.27419,2.33598 -1.43326,0.42563 -5.02364,0.51289 -6.51812,0.15842 z m 4.28635,-2.79362 c 1.24923,-0.34695 2.30055,-1.44742 3.19868,-3.34822 0.99518,-2.10622 1.33355,-3.94937 1.32465,-7.21573 -0.0149,-5.47792 -1.58505,-9.40095 -4.15052,-10.37025 -2.40615,-0.9091 -5.02672,0.77291 -6.27024,4.02454 -0.66322,1.73425 -0.94185,7.69311 -0.49397,10.56438 0.45508,2.91747 1.80681,5.17709 3.63973,6.08437 1.20587,0.5969 1.45638,0.62066 2.75167,0.26091 z"
       id="path16794"
       inkscape:connector-curvature="0"
       transform="scale(0.26458333)" />
    <path
       style="fill:#26064c;fill-opacity:1;stroke-width:0.09544748;stroke-miterlimit:4;stroke-dasharray:none"
       d="m 485.92442,696.84106 -3.22164,-0.0789 0.16252,-1.06572 c 0.21841,-1.43222 0.4159,-1.62455 1.87404,-1.82509 l 1.24999,-0.17192 v -9.66617 -9.66616 l -1.51523,-0.2981 -1.51523,-0.29811 v -1.09279 c 0,-0.60103 0.15,-1.21727 0.33333,-1.36942 0.38409,-0.31877 6.84268,-1.15858 7.36593,-0.95779 0.22572,0.0866 0.41117,0.76916 0.52622,1.93676 l 0.17766,1.803 1.41741,-1.39721 c 1.69699,-1.67282 3.22559,-2.41955 4.96845,-2.42712 2.16548,-0.009 2.92805,1.16094 2.41642,3.70854 -0.39834,1.98348 -0.47614,2.03861 -2.67749,1.89734 -1.67288,-0.10736 -2.04458,-0.0446 -3.26093,0.55049 -0.75506,0.36941 -1.79822,1.14252 -2.31814,1.71801 l -0.94532,1.04635 0.15148,6.67206 c 0.178,7.84063 0.15468,7.76035 2.30589,7.93874 2.09177,0.17347 2.94904,1.26378 2.15711,2.7435 -0.282,0.52692 -0.32611,0.52829 -9.65247,0.29976 z"
       id="path16796"
       inkscape:connector-curvature="0"
       transform="scale(0.26458333)" />
    <path
       style="fill:#26064c;fill-opacity:1;stroke-width:0.09544748;stroke-miterlimit:4;stroke-dasharray:none"
       d="m 503.73013,696.72376 -2.08344,-0.81585 v -3.47968 -3.47968 h 1.37195 c 1.52359,0 1.42482,-0.12011 1.90838,2.32063 0.34952,1.7642 0.99904,2.63239 2.22387,2.97256 3.25047,0.90277 6.11256,-0.51145 6.11256,-3.02035 0,-1.68477 -1.09589,-2.86571 -5.62985,-6.06678 -4.19184,-2.95953 -5.53734,-4.91306 -5.56192,-8.07535 -0.021,-2.70302 1.26212,-4.82562 3.70794,-6.13381 0.90368,-0.48334 1.4347,-0.55845 3.94829,-0.55845 2.38613,0 3.2083,0.10504 4.60896,0.58884 2.35376,0.81301 2.46211,1.02297 2.46211,4.77065 v 3.10053 h -1.48712 -1.48712 l -0.17174,-0.94701 c -0.0945,-0.52086 -0.34171,-1.70626 -0.54946,-2.63422 l -0.37772,-1.6872 -1.25884,-0.26997 c -3.2361,-0.69402 -4.76952,-0.0505 -4.76952,2.00145 0,2.12682 1.03442,3.31757 5.32997,6.13546 4.73678,3.10734 5.86975,4.69574 5.89208,8.26063 0.0109,1.73297 -0.0916,2.34316 -0.53161,3.16681 -0.7291,1.36473 -2.28848,2.93739 -3.77832,3.81049 -1.14444,0.67069 -1.41775,0.71829 -4.50716,0.78507 -3.18884,0.0689 -3.3522,0.0463 -5.37229,-0.74477 z"
       id="path16798"
       inkscape:connector-curvature="0"
       transform="scale(0.26458333)" />
    <path
       style="fill:#26064c;fill-opacity:1;stroke-width:0.09544748;stroke-miterlimit:4;stroke-dasharray:none"
       d="m 535.77934,696.79262 c -3.68281,-0.13321 -4.16516,-0.20161 -4.48256,-0.63567 -0.19561,-0.26753 -0.35566,-0.58349 -0.35566,-0.70215 0,-0.45881 1.26997,-1.45549 1.85458,-1.45549 0.33816,0 0.86829,-0.20523 1.17806,-0.45606 0.49628,-0.40186 0.5879,-0.79951 0.77101,-3.34613 0.1143,-1.58954 0.21437,-8.53939 0.22238,-15.44411 l 0.0146,-12.55404 -1.07329,-0.26396 c -1.94541,-0.47846 -2.32743,-0.79078 -2.41363,-1.97325 l -0.0777,-1.06525 h 5.68019 c 3.12411,0 5.97169,0.11083 6.32798,0.24629 0.49678,0.18888 0.64778,0.42299 0.64778,1.00433 0,0.91987 -0.78464,1.51124 -2.26938,1.71039 -0.56426,0.0757 -1.08437,0.23216 -1.1558,0.34773 -0.31894,0.51607 -0.59488,15.51171 -0.42438,23.06276 l 0.18776,8.31503 1.31716,0.29629 c 0.72444,0.16296 1.49152,0.441 1.70463,0.61787 0.50289,0.41736 0.49758,1.62878 -0.009,2.13572 -0.42795,0.42795 -0.30136,0.4253 -7.64438,0.1597 z"
       id="path16800"
       inkscape:connector-curvature="0"
       transform="scale(0.26458333)" />
    <path
       style="fill:#26064c;fill-opacity:1;stroke-width:0.09544748;stroke-miterlimit:4;stroke-dasharray:none"
       d="m 550.26029,696.76633 c -1.52786,-0.0976 -3.09044,-0.19184 -3.4724,-0.20951 -0.63269,-0.0293 -0.69448,-0.11925 -0.69448,-1.01136 0,-1.162 0.27489,-1.43025 1.70792,-1.66662 0.72148,-0.119 1.17155,-0.35503 1.3645,-0.71556 0.19326,-0.3611 0.32821,-3.53829 0.41046,-9.66318 l 0.12254,-9.1252 -1.16772,-0.13162 c -1.69566,-0.19112 -2.48684,-0.78271 -2.38941,-1.78663 0.10474,-1.07924 0.78645,-1.37193 4.36778,-1.87532 3.74575,-0.52649 4.17022,-0.37974 4.17022,1.44175 0,0.69746 0.11333,1.26811 0.25183,1.26811 0.13851,0 0.93345,-0.50178 1.76654,-1.11507 2.18102,-1.60558 3.39316,-2.00755 5.61845,-1.86321 2.56053,0.16608 4.45914,1.24363 5.41414,3.07276 0.46222,0.88529 0.77357,5.24484 0.99111,13.87729 0.10947,4.34383 0.24605,6.29313 0.4447,6.34675 0.15769,0.0426 0.74128,0.17606 1.29687,0.29664 1.00882,0.21894 1.01025,0.22098 1.08658,1.54788 0.0546,0.94944 -0.0226,1.36667 -0.27073,1.46187 -0.19094,0.0733 -2.70288,0.0409 -5.58208,-0.072 -5.54409,-0.21735 -5.70131,-0.25809 -5.71024,-1.47982 -0.006,-0.76871 0.86825,-1.43885 2.08866,-1.60174 l 1.0642,-0.14203 0.15974,-2.52539 c 0.24944,-3.94338 0.23376,-12.20118 -0.0266,-14.01586 -0.19412,-1.35298 -0.37148,-1.76357 -1.00906,-2.33598 -1.53271,-1.37606 -3.33632,-0.83428 -5.96882,1.79296 l -1.68279,1.67944 0.12702,7.38423 c 0.0874,5.08229 0.21884,7.49486 0.42156,7.73913 0.162,0.19519 0.71665,0.43378 1.23256,0.53018 0.51591,0.0964 1.08008,0.29268 1.2537,0.43615 0.40245,0.33258 0.41126,2.02271 0.0126,2.42135 -0.32924,0.32924 -2.66744,0.34176 -7.39936,0.0396 z"
       id="path16802"
       inkscape:connector-curvature="0"
       transform="scale(0.26458333)" />
    <path
       style="fill:#26064c;fill-opacity:1;stroke-width:0.09544748;stroke-miterlimit:4;stroke-dasharray:none"
       d="m 580.31232,697.61195 c -0.27779,-0.0532 -0.75868,-0.15081 -1.06865,-0.21685 -0.71913,-0.15323 -2.26295,-1.50292 -2.7117,-2.37072 -0.69639,-1.34667 -0.95397,-4.10332 -1.11044,-11.88421 l -0.15997,-7.95495 -1.00695,-0.082 c -1.32138,-0.10754 -1.6447,-0.41412 -1.6447,-1.55955 0,-1.04195 0.27097,-1.35864 1.8438,-2.1549 1.0383,-0.52566 1.38676,-1.0395 2.90576,-4.28482 0.70649,-1.50943 0.71375,-1.51552 1.89417,-1.5922 l 1.18495,-0.077 v 3.4231 3.4231 h 3.03046 3.03046 v 0.86323 c 0,1.69478 -0.18813,1.80933 -3.97748,2.42194 l -1.8309,0.296 0.003,7.49019 c 0.003,8.24609 0.0739,9.10028 0.82177,9.90298 0.41744,0.44807 0.68856,0.51993 1.48458,0.39352 3.16548,-0.50269 3.05782,-0.5021 3.41142,-0.0185 0.6207,0.84886 0.40916,1.57864 -0.68802,2.37343 -1.44295,1.04527 -4.1501,1.84978 -5.41133,1.60815 z"
       id="path16804"
       inkscape:connector-curvature="0"
       transform="scale(0.26458333)" />
    <path
       style="fill:#26064c;fill-opacity:1;stroke-width:0.09544748;stroke-miterlimit:4;stroke-dasharray:none"
       d="m 724.13646,697.00647 c -1.36623,-0.67628 -2.86055,-2.12942 -3.74934,-3.64601 -2.3264,-3.96971 -2.48594,-11.94092 -0.32962,-16.46966 0.81579,-1.71332 3.07773,-4.33427 4.53391,-5.25352 2.03545,-1.28493 4.59131,-1.64383 7.7674,-1.09074 2.31719,0.40352 2.39035,0.27548 2.25553,-3.94762 -0.0576,-1.80564 -0.23527,-3.52531 -0.39472,-3.82147 -0.20168,-0.37461 -0.63768,-0.59064 -1.4327,-0.70986 -1.29983,-0.19492 -1.72341,-0.71956 -1.60117,-1.98319 0.0997,-1.03089 0.79355,-1.27744 4.84581,-1.72193 2.56605,-0.28148 2.99971,-0.27591 3.20024,0.0411 0.1279,0.20217 0.24942,4.44539 0.27086,9.45806 0.0214,5.00025 0.10837,12.84016 0.19327,17.42203 0.13225,7.13649 0.20868,8.33773 0.53319,8.38007 2.44577,0.31908 2.95451,0.72445 2.64988,2.11143 -0.20108,0.91549 -1.06287,1.19757 -4.34651,1.42269 -2.63776,0.18083 -2.99322,0.0351 -3.24981,-1.33266 -0.0889,-0.47371 -0.25718,-0.92038 -0.37402,-0.99259 -0.11685,-0.0722 -0.75741,0.25962 -1.42347,0.73742 -2.62472,1.88281 -7.03522,2.54163 -9.34873,1.39646 z m 7.41633,-4.15025 c 1.59426,-0.78 2.50246,-1.79274 2.88643,-3.21867 0.18641,-0.69229 0.25391,-3.14846 0.19604,-7.13403 -0.0998,-6.87554 -0.12967,-6.99168 -2.03336,-7.91324 -0.59808,-0.28953 -1.89418,-0.60139 -2.88023,-0.69303 l -1.79281,-0.16663 -1.04476,0.94388 c -1.30494,1.17894 -2.47183,3.54207 -2.80855,5.68775 -0.32769,2.08816 -0.33532,7.67878 -0.0121,8.8423 0.43102,1.55144 1.83221,3.62474 2.78112,4.11514 1.14564,0.59207 2.90467,0.41891 4.70819,-0.46347 z"
       id="path16806"
       inkscape:connector-curvature="0"
       transform="scale(0.26458333)" />
    <path
       style="fill:#26064c;fill-opacity:1;stroke-width:0.09544748;stroke-miterlimit:4;stroke-dasharray:none"
       d="m 698.60629,697.15113 c -2.94458,-1.27898 -3.32528,-2.21121 -3.5984,-8.81133 -0.11546,-2.79035 -0.21572,-7.09051 -0.22278,-9.55591 l -0.0129,-4.48255 h -0.76572 c -1.1757,0 -2.49025,-0.65366 -2.76433,-1.37455 -0.46972,-1.23546 0.1206,-1.67283 2.89871,-2.14765 1.99955,-0.34175 5.07862,-0.44647 5.34452,-0.18177 0.11622,0.1157 0.28307,4.83185 0.37078,10.48033 0.16969,10.92868 0.26728,11.76642 1.44405,12.39621 1.48657,0.79558 3.86035,-0.0379 5.69545,-1.99976 l 1.16107,-1.24127 v -7.93292 -7.93291 l -1.51523,-0.2981 -1.51523,-0.29811 v -1.34397 -1.34398 l 0.94702,-0.14617 c 3.59269,-0.55455 6.40245,-0.75114 6.68579,-0.46781 0.44222,0.44222 0.66007,5.10775 0.68179,14.60141 0.0211,9.22107 -0.0812,8.67211 1.61817,8.68032 1.24998,0.006 1.47187,0.27257 1.38373,1.66207 l -0.0786,1.23825 -2.0203,0.29925 c -2.65434,0.39316 -4.49889,0.40415 -4.87399,0.029 -0.16667,-0.16667 -0.31103,-0.70647 -0.32079,-1.19955 -0.0382,-1.93091 -0.20454,-1.96126 -2.19837,-0.4012 -0.99883,0.78154 -2.21205,1.58643 -2.69605,1.78865 -1.14167,0.47702 -4.53549,0.46739 -5.64847,-0.016 z"
       id="path16808"
       inkscape:connector-curvature="0"
       transform="scale(0.26458333)" />
    <path
       style="fill:#26064c;fill-opacity:1;stroke-width:0.09544748;stroke-miterlimit:4;stroke-dasharray:none"
       d="m 675.54001,697.19676 c -4.8112,-1.79088 -7.5368,-6.55464 -7.5368,-13.1727 0,-8.68552 4.82481,-14.25537 11.84274,-13.67146 4.3502,0.36194 7.31939,3.02678 9.17686,8.23621 0.7227,2.02684 0.90256,6.8933 0.34707,9.39014 -0.90458,4.06592 -3.25422,7.31479 -6.28721,8.69342 -1.32327,0.60149 -1.96373,0.72516 -4.09405,0.79054 -1.68592,0.0517 -2.83227,-0.0367 -3.44861,-0.26615 z m 5.45998,-3.26776 c 2.17651,-1.23275 3.46618,-4.88635 3.49632,-9.90494 0.0214,-3.57035 -0.34427,-5.51211 -1.42231,-7.55195 -2.17142,-4.10873 -6.33184,-4.15307 -8.40519,-0.0896 -1.00238,1.96453 -1.44618,4.30018 -1.45198,7.64154 -0.006,3.32427 0.39562,5.35624 1.51268,7.65766 1.28773,2.65306 3.90068,3.58951 6.27048,2.24728 z"
       id="path16810"
       inkscape:connector-curvature="0"
       transform="scale(0.26458333)" />
    <path
       style="fill:#26064c;fill-opacity:1;stroke-width:0.09544748;stroke-miterlimit:4;stroke-dasharray:none"
       d="m 657.94872,696.75777 c -3.24304,-0.20644 -3.83511,-0.4166 -3.83511,-1.36128 0,-0.7909 0.75426,-1.38001 2.04807,-1.59962 l 1.10866,-0.18819 0.15804,-1.76186 c 0.0869,-0.96902 0.17215,-8.02562 0.1894,-15.68133 l 0.0314,-13.91948 -1.05143,-0.14103 c -1.94798,-0.26127 -3.03559,-1.62095 -2.02684,-2.53386 0.60717,-0.54948 3.46729,-1.15262 5.87663,-1.23926 l 1.8547,-0.0667 0.19201,1.01015 c 0.1056,0.55558 0.27023,8.49272 0.36584,17.63808 0.12169,11.64044 0.2563,16.6498 0.44878,16.70082 0.15122,0.0401 0.72498,0.17155 1.27502,0.29213 0.89769,0.19679 1.02045,0.31795 1.1992,1.18352 0.35098,1.6996 0.0245,1.94575 -2.52382,1.90288 -1.21046,-0.0204 -3.60019,-0.12611 -5.31052,-0.23498 z"
       id="path16812"
       inkscape:connector-curvature="0"
       transform="scale(0.26458333)" />
    <path
       style="fill:#26064c;fill-opacity:1;stroke-width:0.09544748;stroke-miterlimit:4;stroke-dasharray:none"
       d="m 636.22711,697.30122 c -2.11755,-0.5434 -4.21871,-1.91026 -6.62028,-4.30666 -2.80407,-2.79803 -3.8926,-4.72188 -4.95115,-8.75057 -0.89247,-3.39658 -0.94883,-8.22736 -0.13459,-11.53398 1.80382,-7.32527 6.72211,-12.72032 12.92501,-14.17792 3.48212,-0.81825 8.12042,-0.35819 11.92952,1.18327 l 2.08634,0.84429 0.20418,4.41645 c 0.2395,5.18067 0.11683,5.79904 -1.14494,5.77195 -1.69281,-0.0363 -1.75247,-0.12628 -2.50742,-3.77991 -0.94708,-4.58353 -1.30669,-5.01373 -4.63788,-5.5483 -5.38312,-0.86385 -9.4027,1.71436 -11.81485,7.5782 -1.01882,2.47671 -1.21661,3.79926 -1.20842,8.08001 0.0117,6.10445 1.05169,9.9628 3.52213,13.06686 3.46345,4.35176 9.89423,4.29856 15.74552,-0.13026 l 1.60802,-1.21711 0.93746,1.18839 0.93747,1.18839 -1.73626,1.6019 c -1.7891,1.65065 -4.35243,3.31152 -6.34473,4.11099 -1.28109,0.51407 -7.30093,0.79744 -8.79513,0.41401 z"
       id="path16814"
       inkscape:connector-curvature="0"
       transform="scale(0.26458333)" />
    <path
       style="fill:#26064c;fill-opacity:1;stroke-width:0.09544748;stroke-miterlimit:4;stroke-dasharray:none"
       d="m 595.47971,696.94909 c -0.78871,-0.33322 -1.88105,-0.95991 -2.42742,-1.39265 -5.44574,-4.3131 -6.19028,-15.85559 -1.39985,-21.70168 2.01464,-2.45859 5.22867,-3.78069 8.54428,-3.51469 2.57304,0.20643 3.98519,0.78848 5.63677,2.32336 2.9756,2.76532 4.38367,6.35805 4.40298,11.23436 0.0135,3.4075 -0.41959,5.33737 -1.78011,7.93239 -1.14205,2.17835 -2.87308,3.93259 -4.77526,4.83931 -1.24607,0.59398 -1.85891,0.71186 -4.11572,0.79167 -2.35657,0.0833 -2.81124,0.0264 -4.08567,-0.51207 z m 6.25748,-3.15865 c 1.90913,-1.38392 3.06765,-4.54268 3.29406,-8.98141 0.24517,-4.80654 -0.94155,-8.74763 -3.13866,-10.42342 -2.89604,-2.20888 -5.95047,-0.71054 -7.39498,3.6276 -1.4211,4.26782 -0.82135,11.79909 1.15236,14.47064 1.55179,2.10045 4.20612,2.67019 6.08722,1.30659 z"
       id="path16816"
       inkscape:connector-curvature="0"
       transform="scale(0.26458333)" />
    <path
       style="fill:#26064c;fill-opacity:1;stroke-width:0.09544748;stroke-miterlimit:4;stroke-dasharray:none"
       d="m 155.27714,741.21926 c -1.21086,-0.26109 -2.24264,-0.89732 -3.2331,-1.99365 -1.3776,-1.52484 -1.77033,-2.61439 -1.78292,-4.94646 -0.009,-1.70324 0.0937,-2.22205 0.65543,-3.30573 0.63328,-1.22164 2.20463,-2.88146 2.72788,-2.88146 0.13406,0 0.47103,-0.22728 0.74882,-0.50508 0.48185,-0.48184 0.50565,-0.85065 0.51751,-8.01808 l 0.0124,-7.51301 7.53886,-8.29864 7.53886,-8.29864 0.18231,-3.64694 c 0.13259,-2.65228 0.28204,-3.74666 0.54797,-4.01259 0.41242,-0.41243 0.57917,-0.44009 1.00826,-0.16725 0.61433,0.39063 0.88737,1.79134 1.01968,5.23116 l 0.13599,3.53553 -7.61799,8.46003 -7.618,8.46003 0.0717,7.03747 0.0717,7.03746 0.58615,0.41241 c 1.46753,1.03253 2.25566,1.8574 3.07565,3.21899 0.79303,1.31683 0.88261,1.65038 0.87147,3.2449 -0.0138,1.97145 -0.81247,4.12993 -1.91254,5.16861 -1.3167,1.24321 -3.74405,2.08326 -5.14611,1.78094 z"
       id="path16818"
       inkscape:connector-curvature="0"
       transform="scale(0.26458333)" />
    <path
       style="fill:#26064c;fill-opacity:1;stroke-width:0.09544748;stroke-miterlimit:4;stroke-dasharray:none"
       d="m 176.2378,730.51095 c -2.61561,-1.17092 -4.21648,-5.17993 -3.31151,-8.29293 0.44401,-1.52733 2.46999,-4.04936 3.5147,-4.37525 0.83776,-0.26133 0.92517,-0.54478 0.92937,-3.01372 l 0.004,-2.27751 3.53124,-3.90968 3.53124,-3.90968 0.0342,-7.70241 c 0.0188,-4.23633 0.10647,-8.04334 0.19483,-8.46003 0.13808,-0.65114 0.28834,-0.76831 1.0692,-0.83377 l 0.90855,-0.0761 0.16361,1.56529 c 0.09,0.86092 0.1636,5.02152 0.1636,9.24578 v 7.68049 l -2.68731,2.95221 c -3.58868,3.94241 -4.13228,4.81172 -4.12735,6.60031 0.004,1.58087 0.13945,1.89247 0.92694,2.1381 0.97729,0.30484 3.2482,3.00567 3.60813,4.29121 0.87831,3.13701 -0.82939,7.28246 -3.45754,8.39322 -1.03382,0.43693 -4.00571,0.42773 -4.99574,-0.0155 z"
       id="path16820"
       inkscape:connector-curvature="0"
       transform="scale(0.26458333)" />
    <path
       style="fill:#26064c;fill-opacity:1;stroke-width:0.09544748;stroke-miterlimit:4;stroke-dasharray:none"
       d="m 199.69202,713.96592 c -0.88156,-0.37633 -2.32464,-2.02517 -3.02465,-3.45593 -0.95337,-1.94862 -0.91124,-3.90829 0.12948,-6.02229 0.77454,-1.57331 2.4736,-3.41732 3.1487,-3.41732 0.51555,0 0.66098,-1.16601 0.67327,-5.398 0.013,-4.47832 0.304,-7.39968 0.78498,-7.88067 0.567,-0.567 1.44445,-0.16127 1.60624,0.74272 0.0781,0.43611 0.2291,3.2798 0.33565,6.31932 l 0.19373,5.5264 0.64976,0.53452 c 0.35737,0.29398 1.06483,0.85457 1.57212,1.24575 3.54536,2.73385 3.32698,8.60561 -0.41656,11.20071 -0.89746,0.62213 -1.29653,0.72269 -3.07359,0.77447 -1.12322,0.0327 -2.28383,-0.0436 -2.57913,-0.16968 z"
       id="path16822"
       inkscape:connector-curvature="0"
       transform="scale(0.26458333)" />
    <path
       style="fill:#26064c;fill-opacity:1;stroke-width:0.09544748;stroke-miterlimit:4;stroke-dasharray:none"
       d="m 224.34632,730.88528 c -2.00349,-0.40266 -3.93868,-2.12957 -4.50514,-4.02026 -0.36634,-1.22273 -0.37689,-3.89068 -0.0205,-5.17429 0.2573,-0.92663 1.66573,-2.52984 3.72436,-4.23942 0.67873,-0.56365 0.80125,-0.83605 0.80125,-1.78146 0,-1.46306 -0.74712,-2.62386 -4.22924,-6.57096 l -2.73835,-3.10402 0.14003,-8.92405 c 0.12988,-8.2778 0.17363,-8.94863 0.60415,-9.26343 0.6011,-0.43954 1.14153,-0.21899 1.48833,0.60739 0.17208,0.41005 0.31811,3.63753 0.38556,8.5215 l 0.10856,7.86147 3.34543,3.77081 3.34542,3.77082 0.13524,2.37187 c 0.12253,2.14899 0.19516,2.42044 0.77295,2.88867 0.35075,0.28423 1.09052,0.88259 1.64395,1.32969 1.5651,1.2644 2.18906,2.79389 2.19247,5.37428 0.002,1.88611 -0.0808,2.2889 -0.68669,3.31951 -1.45562,2.47612 -4.02061,3.76175 -6.50781,3.26188 z"
       id="path16824"
       inkscape:connector-curvature="0"
       transform="scale(0.26458333)" />
    <path
       style="fill:#1befc5;fill-opacity:0.98623854;stroke-width:0.09544748;stroke-miterlimit:4;stroke-dasharray:none"
       d="m 245.96749,740.8675 c -1.3332,-0.49606 -2.78887,-1.97767 -3.44768,-3.5091 -0.43863,-1.01963 -0.52829,-1.64491 -0.45755,-3.19074 0.12319,-2.69168 0.85281,-4.04921 3.06185,-5.69689 l 1.69289,-1.26269 -0.004,-6.9448 -0.004,-6.9448 -7.56489,-8.33376 -7.56489,-8.33376 -0.004,-3.53553 c -0.002,-1.94454 0.11481,-3.96169 0.25946,-4.48255 0.22868,-0.82343 0.36114,-0.94702 1.01499,-0.94702 1.02478,0 1.24457,0.68332 1.24457,3.86931 0,1.41556 0.10381,2.93568 0.23067,3.37804 0.14937,0.52082 2.81968,3.65456 7.57615,8.89101 l 7.34547,8.08672 v 7.66984 7.66984 l 1.59269,1.08004 c 1.90735,1.29343 2.58079,2.20815 2.97324,4.03849 0.53602,2.49999 -0.007,5.12765 -1.4027,6.78243 -1.42488,1.68987 -4.46833,2.48799 -6.54333,1.71592 z"
       id="path16826"
       inkscape:connector-curvature="0"
       transform="scale(0.26458333)" />
    <path
       style="fill:#1befc5;fill-opacity:0.98623855;stroke-width:0.09544748;stroke-miterlimit:4;stroke-dasharray:none"
       d="m 253.88709,767.67731 c -0.63788,-0.68264 -2.7549,-4.33821 -3.67024,-6.33758 l -0.65809,-1.43746 0.71516,-0.86017 c 0.39335,-0.47309 2.19252,-2.13613 3.99817,-3.69564 15.37057,-13.27532 25.36377,-29.40441 30.55201,-49.31116 1.84986,-7.09769 2.48172,-11.45475 3.0273,-20.87482 0.44679,-7.71431 0.49876,-8.03287 1.3696,-8.39399 0.36489,-0.1513 2.38126,-0.28337 4.51823,-0.29591 3.13775,-0.0184 3.90231,0.0466 4.08954,0.34806 0.43353,0.69795 0.58521,3.67092 0.4256,8.34184 -0.41497,12.14396 -3.00605,25.00848 -7.17188,35.60787 -5.81593,14.79784 -12.18942,25.05147 -22.34591,35.94994 -4.69562,5.03866 -12.43843,11.52455 -13.76018,11.52644 -0.3071,5e-4 -0.79729,-0.2549 -1.08931,-0.56742 z"
       id="path16828"
       inkscape:connector-curvature="0"
       transform="scale(0.26458333)" />
    <path
       style="fill:#1befc5;fill-opacity:0.98623855;stroke-width:0.09544748;stroke-miterlimit:4;stroke-dasharray:none"
       d="m 266.46824,789.26932 c -1.52784,-1.6286 -4.49374,-7.1666 -4.49374,-8.39083 0,-0.75201 1.61031,-2.39807 5.80838,-5.93731 5.69562,-4.80178 14.21002,-13.83299 18.57396,-19.70137 7.64836,-10.28507 15.37914,-25.92033 18.79171,-38.00559 3.20842,-11.36231 4.58423,-20.06551 5.06346,-32.03071 0.29835,-7.44928 0.39585,-8.22467 1.14358,-9.09459 0.57601,-0.67014 0.5834,-0.67129 4.83911,-0.75473 5.34928,-0.10487 5.31188,-0.12465 5.66347,2.9951 0.27009,2.3966 -0.0474,10.15664 -0.6738,16.46984 -2.77557,27.97291 -13.62156,54.12063 -31.19591,75.20767 -6.70485,8.04499 -20.00978,19.937 -22.30576,19.937 -0.30962,0 -0.85612,-0.31251 -1.21446,-0.69448 z"
       id="path16830"
       inkscape:connector-curvature="0"
       transform="scale(0.26458333)" />
    <path
       style="fill:#1befc5;fill-opacity:0.98623855;stroke-width:0.09544748;stroke-miterlimit:4;stroke-dasharray:none"
       d="m 280.37203,813.20598 c -0.47578,-0.29456 -2.61178,-3.55599 -3.56443,-5.44247 -0.86255,-1.70808 -1.26167,-3.28893 -1.06101,-4.20254 0.24598,-1.11994 1.25678,-2.1397 6.15787,-6.21246 5.11579,-4.25118 14.16809,-13.18596 17.85394,-17.62218 18.00959,-21.67596 29.50039,-47.59168 33.54326,-75.65162 0.90721,-6.29664 1.3505,-11.20404 1.76771,-19.5695 0.5231,-10.48874 0.34881,-10.21332 6.58091,-10.39989 3.64906,-0.10924 3.81468,-0.0923 4.51316,0.46251 1.31888,1.04757 1.42172,1.66368 1.41899,8.5011 -0.008,19.29705 -3.36507,37.97332 -10.22734,56.89232 -6.56661,18.10389 -15.99804,34.55109 -28.23884,49.24494 -6.14167,7.37245 -19.93799,20.42211 -24.53801,23.21002 -1.49477,0.90593 -3.4313,1.26954 -4.20621,0.78977 z"
       id="path16832"
       inkscape:connector-curvature="0"
       transform="scale(0.26458333)" />
    <path
       style="fill:#1befc5;fill-opacity:0.98623855;stroke-width:0.09544748;stroke-miterlimit:4;stroke-dasharray:none"
       d="m 157.37924,600.00399 c -1.62141,-2.15074 -4.24868,-6.93879 -4.24868,-7.74299 0,-1.51844 8.8124,-6.78918 16.66752,-9.96892 7.48808,-3.03117 13.72576,-4.73962 22.06294,-6.04285 3.11546,-0.48699 4.56584,-0.55793 11.39836,-0.55745 8.16977,5.6e-4 10.16545,0.16993 16.54125,1.40379 7.79029,1.5076 15.52555,4.07811 22.00586,7.3128 4.7006,2.34632 5.04253,2.77125 4.14617,5.15263 -0.87773,2.33194 -3.17084,6.72182 -3.59655,6.88518 -0.47157,0.18096 -2.37523,-0.5138 -7.27692,-2.65579 -16.62566,-7.26522 -32.95773,-8.74947 -50.23199,-4.56505 -7.61237,1.84398 -12.60982,3.90607 -22.00243,9.07883 -2.22702,1.22648 -4.22656,2.29805 -4.44343,2.38127 -0.2586,0.0992 -0.61035,-0.13528 -1.0221,-0.68145 z"
       id="path16834"
       inkscape:connector-curvature="0"
       transform="scale(0.26458333)" />
    <path
       style="fill:#1befc5;fill-opacity:0.98623855;stroke-width:0.09544748;stroke-miterlimit:4;stroke-dasharray:none"
       d="m 156.61874,771.9238 c -7.24941,-4.37146 -14.85855,-10.83092 -20.99214,-17.82041 -12.87682,-14.67368 -21.73844,-33.01221 -25.28684,-52.32941 -1.35082,-7.35373 -2.01887,-14.70583 -1.43532,-15.7962 0.42883,-0.80127 1.79238,-1.06686 5.48551,-1.06843 4.45748,-0.002 4.16874,-0.38563 4.92478,6.545 1.39459,12.78425 4.39854,23.0438 10.03243,34.26427 7.13366,14.20741 16.74294,25.4435 29.33924,34.30625 3.85931,2.71541 4.54569,3.33945 4.54569,4.13285 0,0.79161 -1.57124,4.77112 -2.67469,6.77423 -1.20854,2.19389 -1.72823,2.32476 -3.93866,0.99185 z"
       id="path16836"
       inkscape:connector-curvature="0"
       transform="scale(0.26458333)" />
    <path
       style="fill:#1befc5;fill-opacity:0.98623855;stroke-width:0.09544748;stroke-miterlimit:4;stroke-dasharray:none"
       d="m 145.09782,794.57263 c -5.02283,-2.90038 -12.19096,-8.39396 -18.13766,-13.9005 -18.74483,-17.35742 -32.776534,-42.2515 -38.597181,-68.47645 -1.59812,-7.20033 -3.143717,-17.95383 -3.241284,-22.55124 -0.0384,-1.80951 0.0089,-2.00613 0.632171,-2.62943 0.623816,-0.62382 0.894518,-0.68866 3.657476,-0.8761 1.641089,-0.11133 3.328763,-0.25228 3.750386,-0.31322 2.572563,-0.37184 2.882544,0.29672 3.916681,8.44746 2.147967,16.92959 5.764721,29.45854 12.350531,42.78391 6.12063,12.38419 13.73387,22.81303 23.7821,32.57742 5.64719,5.48768 10.60402,9.47893 16.52726,13.30777 3.13715,2.02789 3.44584,2.5526 2.76904,4.7068 -0.60568,1.92783 -2.43785,5.72908 -3.39796,7.04984 -0.52474,0.72186 -0.96913,1.07329 -1.3572,1.07329 -0.31734,0 -1.5118,-0.5398 -2.65436,-1.19955 z"
       id="path16838"
       inkscape:connector-curvature="0"
       transform="scale(0.26458333)" />
    <path
       style="fill:#1befc5;fill-opacity:0.98623855;stroke-width:0.09544748;stroke-miterlimit:4;stroke-dasharray:none"
       d="m 133.05177,819.86196 c -3.35573,-1.75405 -11.15254,-7.37391 -17.17058,-12.3764 -4.5005,-3.74103 -14.49928,-13.7878 -18.431938,-18.5204 -17.656171,-21.24759 -29.600052,-46.4886 -35.078527,-74.13145 -1.442516,-7.27853 -2.93201,-18.60844 -2.931419,-22.29798 7.16e-4,-4.46918 0.745386,-5.07893 6.464173,-5.29299 l 3.66169,-0.13707 0.866762,0.8401 c 0.476718,0.46206 0.981058,1.18922 1.120755,1.61592 0.139696,0.4267 0.487934,2.99184 0.773862,5.70031 0.936567,8.8717 2.014896,15.31904 3.801373,22.72844 4.220558,17.50473 11.272611,33.85381 20.805721,48.23478 5.624188,8.48425 10.547538,14.48421 18.047558,21.99406 7.20156,7.21101 12.82991,11.86034 21.04586,17.38507 3.56847,2.39958 4.45254,3.26188 4.95512,4.83309 0.35041,1.09549 0.0921,1.92866 -1.78085,5.74482 -2.13684,4.35375 -3.40652,5.11349 -6.14956,3.6797 z"
       id="path16840"
       inkscape:connector-curvature="0"
       transform="scale(0.26458333)" />
    <path
       style="fill:#1befc5;fill-opacity:0.98623855;stroke-width:0.09544748;stroke-miterlimit:4;stroke-dasharray:none"
       d="m 144.96067,578.56486 c -0.93377,-1.09089 -3.82939,-6.62972 -4.09666,-7.83621 -0.30245,-1.36527 2.22425,-3.38869 8.61434,-6.89849 9.35358,-5.13753 17.52896,-8.46717 26.64547,-10.85209 17.78742,-4.65328 38.96921,-4.42296 56.80479,0.61766 6.29242,1.77834 13.46233,4.56728 19.42169,7.55461 4.5099,2.26074 5.1368,2.96777 4.55511,5.13727 -0.41187,1.53617 -2.85234,6.51729 -3.66808,7.48673 -0.94164,1.11908 -1.40474,1.01668 -6.60634,-1.46076 -11.32315,-5.39301 -21.84264,-8.3974 -33.90143,-9.68229 -4.28546,-0.45663 -14.48037,-0.38457 -19.1527,0.13537 -10.44923,1.1628 -18.6868,3.23473 -27.33242,6.87468 -4.05983,1.70927 -5.71589,2.53004 -13.24015,6.56207 -3.1946,1.7119 -6.10492,3.18466 -6.46737,3.27281 -0.55517,0.13501 -0.8035,-0.009 -1.57625,-0.91136 z"
       id="path16842"
       inkscape:connector-curvature="0"
       transform="scale(0.26458333)" />
    <path
       style="fill:#1befc5;fill-opacity:0.98623855;stroke-width:0.09544748;stroke-miterlimit:4;stroke-dasharray:none"
       d="m 132.497,555.85731 c -1.39053,-0.55984 -5.12533,-7.30107 -5.12533,-9.25111 0,-1.75861 1.45579,-3.06614 7.19734,-6.46437 15.98537,-9.46119 32.31898,-15.23301 51.2556,-18.11221 6.33897,-0.96381 17.30263,-1.27309 27.03122,-0.76255 15.26982,0.80134 35.86819,6.45971 49.96358,13.72499 4.09425,2.11033 5.33812,3.07613 5.75535,4.46871 0.38754,1.29349 0.11778,2.21903 -1.8097,6.2091 -2.45119,5.07421 -2.74003,5.12009 -10.23084,1.62533 -10.899,-5.08482 -19.64518,-8.02731 -30.04133,-10.10684 -6.28471,-1.25713 -8.5281,-1.51446 -15.9503,-1.82964 -7.9184,-0.33624 -19.37744,-0.007 -23.82446,0.68355 -16.79566,2.60988 -32.12468,8.10493 -46.42298,16.64141 -5.771,3.44545 -6.44336,3.71908 -7.79815,3.17363 z"
       id="path16844"
       inkscape:connector-curvature="0"
       transform="scale(0.26458333)" />
    <path
       style="fill:#26064c;fill-opacity:1;stroke-width:0.09544748;stroke-miterlimit:4;stroke-dasharray:none"
       d="m 245.81206,740.68942 c -0.79089,-0.31315 -2.45287,-1.89975 -2.91816,-2.78582 -0.66123,-1.25921 -0.8595,-2.79763 -0.59829,-4.64215 0.3071,-2.16849 0.96335,-3.21477 2.99877,-4.78098 l 1.52783,-1.17564 v -7.06108 -7.06107 l -7.61363,-8.37381 -7.61364,-8.37382 0.16491,-3.68011 c 0.0907,-2.02407 0.2324,-3.92796 0.31491,-4.23086 0.25129,-0.92256 1.39275,-1.02525 1.72657,-0.15533 0.0826,0.21522 0.21228,1.59855 0.28819,3.07407 0.0759,1.47552 0.18801,2.93145 0.24908,3.23541 0.15434,0.76805 2.6631,3.75428 9.30933,11.08108 l 5.69966,6.2833 v 7.62573 7.62572 l 1.64415,1.20722 c 2.23839,1.64354 2.90247,2.96394 2.89907,5.76431 -0.004,3.24353 -1.32085,5.45739 -3.7578,6.3172 -1.23127,0.43442 -3.36037,0.48696 -4.32095,0.10663 z"
       id="path16846"
       inkscape:connector-curvature="0"
       transform="scale(0.26458333)" />
    <path
       style="fill:#26064c;fill-opacity:1;stroke-width:0.09544748;stroke-miterlimit:4;stroke-dasharray:none"
       d="m 453.5202,654.168 c -0.51029,-0.0539 -1.03873,-0.23362 -1.17433,-0.39949 -0.13559,-0.16586 -2.65384,-8.37016 -5.5961,-18.23178 -5.6712,-19.00822 -15.35275,-51.12679 -16.0804,-53.34676 -0.50235,-1.53261 -0.40233,-1.48225 -4.3614,-2.19621 -3.24757,-0.58566 -3.05994,-0.40786 -3.38579,-3.20847 -0.24302,-2.08874 0.13453,-2.45586 2.86825,-2.7891 2.3062,-0.28112 23.19169,-0.0345 23.70032,0.2798 0.39692,0.24531 0.63368,2.28891 0.42579,3.67522 -0.20429,1.36232 -0.31223,1.42448 -3.8023,2.18974 -1.25006,0.2741 -2.35556,0.5801 -2.45666,0.68 -0.20984,0.20734 1.27448,6.0815 6.61507,26.17897 2.06693,7.77818 4.35096,16.44339 5.07564,19.25604 0.72467,2.81264 1.38927,5.11389 1.47687,5.11389 0.18104,0 0.60491,-1.25567 7.75755,-22.98097 l 5.19646,-15.78363 -1.56268,-5.17261 c -2.24914,-7.44487 -1.70536,-6.6572 -5.02426,-7.2777 -1.54045,-0.288 -3.1153,-0.67404 -3.49968,-0.85787 -0.67356,-0.32212 -0.7012,-0.41185 -0.7633,-2.47812 -0.0354,-1.17915 0.0253,-2.28145 0.13498,-2.44956 0.30445,-0.46664 9.03174,-0.65314 17.92596,-0.38307 4.20334,0.12763 7.71428,0.3039 7.80209,0.3917 0.26696,0.26697 0.41106,2.59872 0.23369,3.78151 -0.19098,1.27355 -0.27109,1.31288 -4.25656,2.08972 -1.79965,0.35078 -2.19384,0.50806 -2.10054,0.83807 0.0632,0.22344 0.3603,1.31539 0.6603,2.42656 0.3,1.11117 2.91224,10.14572 5.80498,20.07678 2.89274,9.93106 5.72978,19.76486 6.30454,21.85288 1.15178,4.18423 1.38688,4.7462 1.74983,4.18261 0.12565,-0.19511 0.76083,-2.24067 1.41151,-4.54568 0.65068,-2.30502 3.3945,-11.96521 6.09736,-21.46708 2.70286,-9.50188 5.07752,-17.96822 5.27701,-18.8141 0.45905,-1.94638 0.47727,-4.03889 0.0383,-4.40316 -0.2548,-0.21147 -3.86857,-0.78177 -5.03459,-0.79452 -0.10417,-0.001 -0.1894,-1.32723 -0.1894,-2.94686 v -2.94478 l 9.87381,0.15654 c 6.92653,0.10982 9.97947,0.24424 10.22779,0.45033 0.25928,0.21518 0.35399,0.95178 0.35399,2.75317 v 2.4594 l -3.03799,0.56628 -3.03799,0.56627 -0.39678,0.92088 c -1.28219,2.97585 -4.7788,14.34003 -14.73603,47.89298 -3.62727,12.22284 -6.75936,22.73474 -6.9602,23.35978 l -0.36516,1.13642 -2.02164,-0.0824 c -1.1119,-0.0453 -2.02163,-0.12622 -2.02163,-0.17983 0,-0.15208 -12.74284,-40.87451 -14.06934,-44.96154 -0.66239,-2.04086 -1.2784,-3.54795 -1.40036,-3.426 -0.31407,0.31408 -3.5083,9.33607 -8.64094,24.40608 -5.19959,15.26657 -6.985,20.3339 -7.80948,22.16473 -0.64734,1.43748 -1.50954,2.48239 -1.99297,2.41528 -0.1682,-0.0234 -0.72334,-0.0865 -1.23363,-0.14037 z"
       id="path16848"
       inkscape:connector-curvature="0"
       transform="scale(0.26458333)" />
    <path
       style="fill:#26064c;fill-opacity:1;stroke-width:0.09544748;stroke-miterlimit:4;stroke-dasharray:none"
       d="m 539.77436,652.82674 c -3.71339,-0.30524 -8.18067,-1.75206 -13.22377,-4.28281 l -2.52833,-1.26878 V 637.2111 627.14706 l 1.32582,-0.15925 c 1.96458,-0.23597 3.73948,-0.17355 4.72789,0.16628 0.74672,0.25674 0.90414,0.45117 1.0619,1.31158 1.52954,8.34231 2.60231,13.32437 3.01531,14.0035 0.99265,1.63228 5.33959,2.9847 10.3469,3.21914 5.1664,0.24189 7.94811,-0.60364 9.89866,-3.00883 1.83832,-2.26679 2.66849,-4.58953 2.86883,-8.02663 0.26104,-4.47876 -0.97415,-8.05287 -3.82883,-11.07898 -1.9526,-2.06986 -4.24742,-3.73702 -9.97105,-7.24386 -7.69305,-4.71349 -11.11255,-7.28555 -13.53175,-10.17821 -1.61227,-1.92781 -3.38763,-5.42454 -4.05704,-7.99071 -0.66127,-2.53498 -0.66241,-10.63187 -0.002,-12.98768 1.52037,-5.42205 5.94998,-9.55524 12.79239,-11.93634 l 2.39911,-0.83487 5.42957,0.0183 c 7.69513,0.026 10.56529,0.72376 17.74928,4.31511 l 2.72326,1.36139 -0.0716,9.83024 c -0.0525,7.21162 -0.15212,9.91069 -0.37384,10.13223 -0.42794,0.4276 -3.78609,0.59176 -5.05962,0.24734 -1.00309,-0.27127 -1.0916,-0.36989 -1.44166,-1.60634 -0.20512,-0.72453 -0.83432,-3.87428 -1.3982,-6.99944 -0.56389,-3.12516 -1.19209,-6.26252 -1.39599,-6.97191 -0.35225,-1.22556 -0.44538,-1.32331 -1.86952,-1.96243 -2.81599,-1.26374 -5.16959,-1.74891 -8.60956,-1.77479 -2.97713,-0.0224 -3.24712,0.018 -4.74557,0.70993 -1.06485,0.49171 -1.99988,1.18342 -2.83522,2.09741 -1.71707,1.87875 -2.2682,3.70025 -2.2682,7.49653 0,7.27494 1.82284,9.50546 13.38969,16.38439 7.79838,4.63778 11.19534,7.28382 14.24627,11.09701 9.30475,11.62949 5.57446,27.75111 -7.85708,33.95686 -2.62432,1.21251 -5.17946,1.80743 -9.02181,2.10055 -3.61311,0.27564 -4.44553,0.27481 -7.88441,-0.008 z"
       id="path16850"
       inkscape:connector-curvature="0"
       transform="scale(0.26458333)" />
    <path
       style="fill:#26064c;fill-opacity:1;stroke-width:0.09544748;stroke-miterlimit:4;stroke-dasharray:none"
       d="m 577.17131,651.02626 c -0.1,-0.16176 -0.22592,-1.09931 -0.27987,-2.08344 -0.16473,-3.00452 0.37181,-3.42109 5.11679,-3.97266 l 2.63865,-0.30671 -0.022,-29.6909 c -0.02,-27.02291 -0.11624,-33.83301 -0.48309,-34.19169 -0.0694,-0.0679 -1.47594,-0.3515 -3.12554,-0.63022 -1.6496,-0.27872 -3.15446,-0.66196 -3.34414,-0.85164 -0.18967,-0.18967 -0.41829,-1.04733 -0.50803,-1.90591 -0.18955,-1.81352 0.17377,-2.97384 1.00061,-3.19563 0.30114,-0.0808 4.41136,-0.14259 9.13383,-0.13736 l 8.58629,0.01 14.82054,22.39981 c 8.15129,12.31989 16.2146,24.5302 17.91847,27.13401 2.15657,3.29563 3.17824,4.65393 3.36221,4.47006 0.31113,-0.31097 0.52937,-36.74673 0.2567,-42.85565 l -0.17193,-3.85189 -1.29921,-0.37212 c -0.71456,-0.20467 -2.37092,-0.54308 -3.6808,-0.75204 -1.30988,-0.20896 -2.48233,-0.48066 -2.60545,-0.60378 -0.3447,-0.3447 -0.5251,-3.87042 -0.23585,-4.60929 l 0.25701,-0.65648 6.27101,-0.15327 c 6.72073,-0.16426 15.81724,0.0687 16.16225,0.41399 0.11566,0.11575 0.2103,1.16288 0.2103,2.32696 0,1.5624 -0.10109,2.2176 -0.38611,2.50261 -0.22731,0.22732 -1.26589,0.49873 -2.52538,0.65997 -1.1766,0.15063 -2.70749,0.35134 -3.40197,0.44604 l -1.26269,0.17217 -0.064,35.29379 -0.064,35.29378 -3.21898,-0.16823 c -1.77044,-0.0925 -3.2758,-0.24856 -3.34525,-0.34673 -0.0694,-0.0982 -9.21764,-13.77177 -20.32932,-30.38577 -11.11168,-16.614 -20.32891,-30.21045 -20.48275,-30.21434 -0.51934,-0.0131 -0.60421,3.02517 -0.59864,21.43259 0.005,16.90779 0.29811,32.48627 0.61699,32.80514 0.073,0.073 1.08067,0.27285 2.23931,0.44416 2.82875,0.41824 4.75989,0.83243 5.21938,1.11946 0.28818,0.18002 0.3788,0.74735 0.3788,2.37137 0,1.17411 -0.0851,2.21979 -0.189,2.32374 -0.60264,0.60265 -22.20105,0.90568 -22.56512,0.3166 z"
       id="path16852"
       inkscape:connector-curvature="0"
       transform="scale(0.26458333)" />
  </g>
</svg>
