<svg height="512pt" viewBox="0 0 512 512" width="512pt" xmlns="http://www.w3.org/2000/svg"><path d="m502 30v40c-33.140625 0-60 26.859375-60 60v100h-372v-100c0-33.140625-26.859375-60-60-60v-40c0-11.050781 8.949219-20 20-20h452c11.050781 0 20 8.949219 20 20zm0 0" fill="#9bc6ff"/><path d="m442 290h-372c0-5.265625 0-44.867188 0-60h372zm0 0" fill="#edf2fa"/><path d="m502 70v180c0 11.050781-8.949219 20-20 20h-40c0-14.039062 0-126.292969 0-140 0-33.140625 26.859375-60 60-60zm0 0" fill="#537983"/><path d="m70 270h-40c-11.050781 0-20-8.949219-20-20v-180c33.140625 0 60 26.859375 60 60zm0 0" fill="#537983"/><path d="m412 190c0 5.523438-4.476562 10-10 10s-10-4.476562-10-10 4.476562-10 10-10 10 4.476562 10 10zm0 0"/><path d="m120 190c0 5.523438-4.476562 10-10 10s-10-4.476562-10-10 4.476562-10 10-10 10 4.476562 10 10zm0 0"/><path d="m482 0h-452c-16.542969 0-30 13.457031-30 30v220c0 16.542969 13.457031 30 30 30h30v10c0 5.523438 4.476562 10 10 10h66c5.523438 0 10-4.476562 10-10s-4.476562-10-10-10h-56v-40h352v40h-216c-5.523438 0-10 4.476562-10 10s4.476562 10 10 10h226c5.523438 0 10-4.476562 10-10v-10h30c16.542969 0 30-13.457031 30-30v-220c0-16.542969-13.457031-30-30-30zm-422 260h-30c-5.515625 0-10-4.484375-10-10v-168.992188c22.796875 4.644532 40 24.847657 40 48.992188zm432-10c0 5.515625-4.484375 10-10 10h-30v-130c0-24.144531 17.203125-44.347656 40-48.992188zm0-189.273438c-33.878906 4.867188-60 34.074219-60 69.273438v90h-352v-90c0-35.203125-26.121094-64.40625-60-69.273438v-30.726562c0-5.515625 4.484375-10 10-10h452c5.515625 0 10 4.484375 10 10zm0 0"/><path d="m96 320c-5.523438 0-10 4.476562-10 10v112c0 5.523438 4.476562 10 10 10s10-4.476562 10-10v-112c0-5.523438-4.476562-10-10-10zm0 0"/><path d="m96 472c-5.523438 0-10 4.476562-10 10v20c0 5.523438 4.476562 10 10 10s10-4.476562 10-10v-20c0-5.523438-4.476562-10-10-10zm0 0"/><path d="m176 380c-5.523438 0-10 4.476562-10 10v112c0 5.523438 4.476562 10 10 10s10-4.476562 10-10v-112c0-5.523438-4.476562-10-10-10zm0 0"/><path d="m176 320c-5.523438 0-10 4.476562-10 10v20c0 5.523438 4.476562 10 10 10s10-4.476562 10-10v-20c0-5.523438-4.476562-10-10-10zm0 0"/><path d="m256 320c-5.523438 0-10 4.476562-10 10v112c0 5.523438 4.476562 10 10 10s10-4.476562 10-10v-112c0-5.523438-4.476562-10-10-10zm0 0"/><path d="m256 472c-5.523438 0-10 4.476562-10 10v20c0 5.523438 4.476562 10 10 10s10-4.476562 10-10v-20c0-5.523438-4.476562-10-10-10zm0 0"/><path d="m336 380c-5.523438 0-10 4.476562-10 10v112c0 5.523438 4.476562 10 10 10s10-4.476562 10-10v-112c0-5.523438-4.476562-10-10-10zm0 0"/><path d="m336 320c-5.523438 0-10 4.476562-10 10v20c0 5.523438 4.476562 10 10 10s10-4.476562 10-10v-20c0-5.523438-4.476562-10-10-10zm0 0"/><path d="m416 320c-5.523438 0-10 4.476562-10 10v112c0 5.523438 4.476562 10 10 10s10-4.476562 10-10v-112c0-5.523438-4.476562-10-10-10zm0 0"/><path d="m416 472c-5.523438 0-10 4.476562-10 10v20c0 5.523438 4.476562 10 10 10s10-4.476562 10-10v-20c0-5.523438-4.476562-10-10-10zm0 0"/><path d="m324.03125 111.980469c5.378906 1.441406 10.832031-1.78125 12.25-7.074219 1.429688-5.332031-1.738281-10.816406-7.070312-12.246094l-17.664063-4.730468 4.734375-17.660157c1.429688-5.335937-1.738281-10.820312-7.070312-12.25-5.339844-1.425781-10.820313 1.738281-12.25 7.074219l-6.246094 23.316406-24.714844 14.269532v-28.535157l17.070312-17.074219c3.90625-3.902343 3.90625-10.234374 0-14.140624s-10.234374-3.90625-14.140624 0l-12.929688 12.925781-12.929688-12.925781c-3.90625-3.90625-10.234374-3.90625-14.140624 0-3.90625 3.902343-3.90625 10.234374 0 14.140624l17.070312 17.074219v28.535157l-24.714844-14.269532-6.246094-23.316406c-1.429687-5.335938-6.910156-8.507812-12.25-7.070312-5.332031 1.429687-8.5 6.910156-7.070312 12.246093l4.734375 17.660157-17.664063 4.730468c-5.332031 1.433594-8.5 6.914063-7.070312 12.25 1.433594 5.339844 6.917969 8.5 12.25 7.070313l23.316406-6.25 24.714844 14.269531-24.710938 14.269531-23.320312-6.25c-5.335938-1.429687-10.820312 1.738281-12.246094 7.074219-1.433594 5.332031 1.734375 10.816406 7.070313 12.246094l17.660156 4.730468-4.730469 17.660157c-1.433594 5.335937 1.734375 10.820312 7.070313 12.25 5.378906 1.441406 10.828125-1.78125 12.246093-7.074219l6.25-23.316406 24.710938-14.269532v28.539063l-17.070312 17.070313c-3.90625 3.90625-3.90625 10.234374 0 14.140624s10.234374 3.90625 14.140624 0l12.929688-12.925781 12.929688 12.925781c3.90625 3.90625 10.234374 3.90625 14.140624 0 3.90625-3.902343 3.90625-10.234374 0-14.140624l-17.070312-17.074219v-28.535157l24.714844 14.269532 6.246094 23.316406c1.429687 5.339844 6.917968 8.5 12.25 7.070312 5.332031-1.429687 8.5-6.910156 7.070312-12.246093l-4.734375-17.660157 17.664063-4.730468c5.332031-1.433594 8.5-6.914063 7.070312-12.25-1.429688-5.332032-6.910156-8.503906-12.25-7.070313l-23.316406 6.25-24.714844-14.269531 24.710938-14.269531zm0 0"/><path d="m186 290c0 5.523438-4.476562 10-10 10s-10-4.476562-10-10 4.476562-10 10-10 10 4.476562 10 10zm0 0"/></svg>