<?xml version="1.0"?>
<svg xmlns="http://www.w3.org/2000/svg" id="Layer_1" data-name="Layer 1" viewBox="0 0 512 512" width="512" height="512"><title>Path</title><circle cx="426.25" cy="85.75" r="57.75" style="fill:#00acea"/><path d="M255.75,271.34H156.9V178.31a47.78,47.78,0,0,1,47.76-47.78,63.713,63.713,0,0,0,102.68,0,47.78,47.78,0,0,1,47.76,47.78v93.03Z" style="fill:#00efd1"/><circle cx="256" cy="71.2" r="53.09" style="fill:#00efd1"/><circle cx="85.75" cy="85.75" r="57.75" style="fill:#00acea"/><path d="M339.992,336.867a8,8,0,0,0-11.3-.458,8.29,8.29,0,0,0-.459,11.544L341.882,363H306.25c-23.159,0-41.875-19.081-41.875-42.24,0-.972-.375-2.14-.375-3V279h91.1a7.632,7.632,0,0,0,7.9-7.66V178.31A55.354,55.354,0,0,0,307.343,123h0a7.787,7.787,0,0,0-6.447,3.029,56,56,0,0,1-89.786.028A7.814,7.814,0,0,0,204.66,123h0A55.354,55.354,0,0,0,149,178.31v93.03a7.632,7.632,0,0,0,7.9,7.66H248V385.45c0,23.159-19.091,41.55-42.25,41.55H170.123l13.649-14.583a7.864,7.864,0,0,0-.46-11.192,8.006,8.006,0,0,0-11.305.517L145.978,430.01a8.017,8.017,0,0,0,0,10.859l26.029,28.237a8,8,0,0,0,11.3.464,8.272,8.272,0,0,0,.459-11.529L170.109,443H205.75A58.726,58.726,0,0,0,248,425.387v50.245l-14.933-13.653a8.031,8.031,0,0,0-10.939,11.762l28.215,26.03a7.984,7.984,0,0,0,10.833,0l28.238-26.03a8,8,0,0,0,.46-11.3,7.851,7.851,0,0,0-11.18-.46L264,475.636v-115.7A56.719,56.719,0,0,0,306.25,379h35.632l-13.653,14.567a7.879,7.879,0,0,0,5.879,13.243,8.012,8.012,0,0,0,5.884-2.607l26.029-28.245a8.008,8.008,0,0,0,0-10.853ZM165,178.31a39.8,39.8,0,0,1,35.952-39.6,71.522,71.522,0,0,0,110.1,0A39.79,39.79,0,0,1,347,178.31V263H165Z" style="fill:#083863"/><path d="M256,132.29A61.09,61.09,0,1,0,194.91,71.2,61.159,61.159,0,0,0,256,132.29Zm0-106.18A45.09,45.09,0,1,1,210.91,71.2,45.141,45.141,0,0,1,256,26.11Z" style="fill:#083863"/><path d="M426.25,20A65.75,65.75,0,1,0,492,85.75,65.824,65.824,0,0,0,426.25,20Zm0,115.5A49.75,49.75,0,1,1,476,85.75,49.806,49.806,0,0,1,426.25,135.5Z" style="fill:#083863"/><path d="M449.317,63.123a8,8,0,0,0-11.314,0L426.689,74.436,415.377,63.123a8,8,0,0,0-11.315,11.314L415.376,85.75,404.062,97.063a8,8,0,0,0,11.315,11.314l11.312-11.313L438,108.377a8,8,0,0,0,11.314-11.314L438,85.75l11.313-11.313A8,8,0,0,0,449.317,63.123Z" style="fill:#083863"/><path d="M119.258,63.109a8,8,0,0,0-11.309-.327L77.326,91.687l-13.535-13.9A8,8,0,1,0,52.328,88.952l19.03,19.54a8,8,0,0,0,11.223.236l36.351-34.31A8,8,0,0,0,119.258,63.109Z" style="fill:#083863"/><path d="M85.75,20A65.75,65.75,0,1,0,151.5,85.75,65.824,65.824,0,0,0,85.75,20Zm0,115.5A49.75,49.75,0,1,1,135.5,85.75,49.806,49.806,0,0,1,85.75,135.5Z" style="fill:#083863"/></svg>
