<?xml version="1.0" encoding="UTF-8" standalone="no"?>
<!-- Created with Inkscape (http://www.inkscape.org/) -->

<svg
   xmlns:dc="http://purl.org/dc/elements/1.1/"
   xmlns:cc="http://creativecommons.org/ns#"
   xmlns:rdf="http://www.w3.org/1999/02/22-rdf-syntax-ns#"
   xmlns:svg="http://www.w3.org/2000/svg"
   xmlns="http://www.w3.org/2000/svg"
   xmlns:sodipodi="http://sodipodi.sourceforge.net/DTD/sodipodi-0.dtd"
   xmlns:inkscape="http://www.inkscape.org/namespaces/inkscape"
   width="210mm"
   height="297mm"
   viewBox="0 0 210 297"
   version="1.1"
   id="svg8"
   inkscape:version="0.92.4 (5da689c313, 2019-01-14)"
   sodipodi:docname="COLOR_ICON.svg">
  <defs
     id="defs2" />
  <sodipodi:namedview
     id="base"
     pagecolor="#ffffff"
     bordercolor="#666666"
     borderopacity="1.0"
     inkscape:pageopacity="1"
     inkscape:pageshadow="2"
     inkscape:zoom="0.98994949"
     inkscape:cx="314.5427"
     inkscape:cy="738.16868"
     inkscape:document-units="mm"
     inkscape:current-layer="layer1-2"
     showgrid="false"
     inkscape:window-width="1920"
     inkscape:window-height="1001"
     inkscape:window-x="2391"
     inkscape:window-y="260"
     inkscape:window-maximized="1" />
  <metadata
     id="metadata5">
    <rdf:RDF>
      <cc:Work
         rdf:about="">
        <dc:format>image/svg+xml</dc:format>
        <dc:type
           rdf:resource="http://purl.org/dc/dcmitype/StillImage" />
        <dc:title></dc:title>
      </cc:Work>
    </rdf:RDF>
  </metadata>
  <g
     inkscape:label="Capa 1"
     inkscape:groupmode="layer"
     id="layer1">
    <g
       id="layer1-2"
       inkscape:label="Capa 1"
       transform="translate(-1.8898774,27.044204)">
      <g
         transform="translate(-3.5907739,-23.245536)"
         id="g95">
        <path
           inkscape:connector-curvature="0"
           id="path101"
           d="M 9.7895833,151.08228 V 60.197908 h 97.3666667 97.36666 v 90.884372 90.88438 H 107.15625 9.7895833 Z"
           style="fill:#fdfdfd;stroke-width:0.26458332" />
        <path
           inkscape:connector-curvature="0"
           id="path99"
           d="m 60.188472,237.26236 c -24.39262,-14.12157 -41.489538,-40.13275 -44.976896,-68.42767 -0.494458,-4.01183 -0.544758,-5.99783 -0.16966,-6.6987 0.428345,-0.80037 1.676558,-1.13183 4.262259,-1.13183 3.364224,0 3.486883,0.15094 3.977633,4.89479 1.860346,17.98307 9.514273,35.06042 21.641581,48.28646 5.152658,5.61948 12.161309,11.44477 17.957043,14.92513 5.096084,3.06021 5.183135,3.21816 3.556601,6.45318 -1.103725,2.1952 -2.077326,3.22794 -3.043097,3.22794 -0.310126,0 -1.752584,-0.68819 -3.205464,-1.5293 z m 96.525648,-2.83994 c -0.75749,-0.3185 -2.67395,-2.96395 -3.25574,-4.49417 -0.43085,-1.13322 0.16208,-2.1301 2.07415,-3.48726 8.45995,-6.00474 16.38087,-14.1381 21.83248,-22.41801 8.77291,-13.32431 13.41877,-28.03116 14.09171,-44.60844 0.24212,-5.96442 0.1923,-5.89203 4.15571,-6.03874 2.707,-0.10021 2.81067,-0.083 3.46919,0.5755 0.67005,0.67006 0.67879,0.73143 0.67879,4.76361 0,20.34279 -7.81979,41.46136 -21.51933,58.11633 -4.20369,5.11055 -11.73469,12.07266 -17.37442,16.06195 -2.55958,1.81053 -3.05212,1.99192 -4.15254,1.52923 z M 67.911053,222.52892 C 47.403242,210.21163 33.710588,188.48529 31.450145,164.67586 c -0.39206,-4.1296 -0.408287,-4.10926 3.474855,-4.35484 3.523231,-0.22281 3.662751,-0.10976 4.002637,3.24351 0.601552,5.93482 1.59602,10.50905 3.46991,15.96046 4.923764,14.3239 14.386422,26.59988 26.843254,34.82396 1.737307,1.14698 3.716184,2.4099 4.39751,2.8065 0.998247,0.58109 1.238771,0.86179 1.238771,1.44574 0,0.80884 -1.948341,4.79269 -2.595758,5.30765 -0.742238,0.59039 -1.475007,0.35901 -4.370271,-1.37992 z m 79.814107,-1.85606 c -0.87479,-0.61273 -3.30831,-4.57625 -3.21339,-5.23371 0.054,-0.37432 1.09883,-1.34262 2.99344,-2.77428 4.32812,-3.27056 7.32225,-5.93902 10.03597,-8.94435 9.71827,-10.76261 15.78064,-23.83264 17.60658,-37.95845 0.15956,-1.2344 0.36442,-4.13869 0.45525,-6.45396 0.19921,-5.07841 0.25475,-5.18156 2.7923,-5.18603 0.90951,-0.002 2.09138,-0.0753 2.62639,-0.16376 0.82335,-0.13614 1.08318,-0.0504 1.69168,0.55808 l 0.71892,0.71892 -0.17675,4.0089 c -0.91893,20.84176 -8.80176,38.73965 -23.25353,52.79693 -3.80521,3.70134 -10.53695,9.02342 -11.41346,9.02342 -0.16728,0 -0.55581,-0.17627 -0.8634,-0.39171 z M 76.993749,210.43046 C 64.536261,203.04991 55.263824,192.25595 50.266033,179.31697 48.193073,173.9502 46.755719,167.77504 46.399315,162.70478 l -0.174199,-2.47821 0.74106,-0.28175 c 0.407586,-0.15496 1.880823,-0.2479 3.273865,-0.20652 2.969339,0.0882 2.726822,-0.22762 3.207001,4.17627 0.867352,7.9548 3.989461,16.47172 8.535138,23.28334 4.408863,6.6066 10.819357,12.75956 17.282236,16.58794 2.862387,1.69558 2.822366,1.5547 1.289545,4.53919 -1.472406,2.86685 -1.874081,3.10439 -3.560212,2.10542 z m 62.384511,-2.52891 c -0.87866,-1.00763 -2.58868,-3.99134 -2.58868,-4.51684 0,-0.39819 0.7734,-1.13549 2.71198,-2.58538 5.2729,-3.94369 11.16769,-10.55273 14.48122,-16.23585 4.68093,-8.0284 7.39787,-18.09095 7.41079,-27.44693 0.003,-2.24029 0.34331,-2.46239 3.77185,-2.46239 2.58435,0 2.59451,0.003 2.87624,0.7276 0.34057,0.87643 0.12438,5.72245 -0.45148,10.12031 -2.17617,16.6196 -11.59998,32.13109 -25.3893,41.79054 -1.68976,1.18369 -2.22143,1.29839 -2.82262,0.60894 z M 75.602178,192.37598 c -1.305935,-0.466 -1.712968,-0.82771 -2.361088,-2.09813 -1.001218,-1.96255 -0.08385,-4.62521 1.895366,-5.5013 l 0.79896,-0.35365 v -4.48323 -4.48322 l 4.7625,-4.78783 4.7625,-4.78783 v -2.02254 c 0,-1.4859 0.110318,-2.13286 0.415774,-2.43832 0.491884,-0.49188 0.527248,-0.4961 1.189119,-0.14188 0.452118,0.24196 0.511773,0.57383 0.511773,2.84703 v 2.57313 l -4.7625,4.75699 -4.7625,4.75698 v 4.15212 c 0,3.77531 0.04349,4.16592 0.479163,4.3042 0.263541,0.0836 0.878507,0.56409 1.366592,1.06767 0.729496,0.75265 0.908389,1.16837 1.005218,2.33601 0.176932,2.13358 -0.844275,3.71756 -2.824308,4.38074 -1.104648,0.36999 -1.235503,0.36592 -2.476569,-0.0769 z m 58.938442,0.0675 c -3.33949,-1.20247 -3.76477,-5.58103 -0.72792,-7.4945 l 0.83983,-0.52917 0.0102,-4.09196 0.0102,-4.09196 -4.7625,-4.78783 -4.7625,-4.78783 v -2.55413 c 0,-2.2544 0.0601,-2.58627 0.51178,-2.82802 0.66187,-0.35422 0.69723,-0.35 1.18912,0.14188 0.30587,0.30588 0.41577,0.9535 0.41577,2.45015 v 2.03438 l 4.7625,4.75699 4.7625,4.75698 v 4.50224 4.50223 l 0.79896,0.35365 c 0.43943,0.19451 1.12404,0.77985 1.52135,1.30076 1.41884,1.8602 0.78593,4.95638 -1.22583,5.9967 -1.04782,0.54184 -2.43802,0.69546 -3.34344,0.36944 z m -45.403057,-6.3753 c -1.298144,-0.86721 -1.87702,-2.1355 -1.751317,-3.83704 0.111006,-1.5026 0.8958,-2.62607 2.373649,-3.39799 0.652999,-0.34108 0.727604,-0.52238 0.727604,-1.76816 v -1.38811 l 2.24332,-2.23167 2.243323,-2.23167 0.07178,-4.87768 c 0.06202,-4.21444 0.131728,-4.91545 0.512628,-5.15548 0.319717,-0.20147 0.555979,-0.18224 0.859896,0.07 0.356795,0.29612 0.419052,1.13421 0.419052,5.64113 v 5.29334 l -2.248958,2.29825 c -2.689646,2.74859 -2.892709,3.47635 -1.26527,4.53459 1.379355,0.89692 2.191401,2.20272 2.190901,3.52304 -9.15e-4,2.41571 -1.701887,4.12806 -4.100631,4.12806 -0.991108,0 -1.628876,-0.16829 -2.275978,-0.60059 z m 29.924797,0.005 c -2.5902,-1.76805 -2.42225,-5.26005 0.33937,-7.05579 1.62744,-1.05824 1.42437,-1.786 -1.26527,-4.53459 l -2.24896,-2.29825 v -5.29334 c 0,-5.65757 0.10977,-6.14005 1.31022,-5.75904 0.52045,0.16519 0.54186,0.366 0.54186,5.08301 v 4.91104 l 2.24896,2.29825 c 2.23464,2.28362 2.24896,2.30694 2.24896,3.6633 0,1.22062 0.077,1.40526 0.7276,1.7451 0.40018,0.20903 1.07719,0.74774 1.50446,1.19715 1.04518,1.09934 1.25581,3.40845 0.43078,4.72266 -1.20235,1.91526 -4.02973,2.55479 -5.83798,1.3205 z m -14.55487,-9.525 c -1.57408,-0.7986 -2.51808,-2.55695 -2.24393,-4.17965 0.19855,-1.1752 1.60312,-3.00654 2.53202,-3.30136 0.46829,-0.14863 0.50859,-0.44148 0.50859,-3.69657 0,-2.86099 0.0793,-3.61443 0.41577,-3.95092 0.22867,-0.22867 0.51783,-0.41576 0.64256,-0.41576 0.12473,0 0.41388,0.18709 0.64256,0.41577 0.33648,0.33648 0.41577,1.08993 0.41577,3.95092 0,3.25509 0.0403,3.54794 0.50859,3.69657 0.9241,0.29329 2.33347,2.12618 2.53018,3.29049 0.27559,1.63121 -0.66793,3.40032 -2.23493,4.19052 -0.6493,0.32742 -1.48728,0.59531 -1.86217,0.59531 -0.37489,0 -1.20965,-0.26789 -1.85501,-0.59531 z M 74.985808,157.70417 c -2.57715,-0.56561 -4.780987,-1.83375 -6.8556,-3.94489 -1.989006,-2.02402 -2.996393,-3.78137 -3.679852,-6.41936 -1.626335,-6.27727 1.516862,-13.10516 7.355351,-15.97784 2.537841,-1.24868 4.637063,-1.68805 7.172417,-1.5012 4.948986,0.36475 9.494401,3.38373 11.623638,7.72024 1.01791,2.07313 1.369621,3.38835 1.616183,6.04376 0.174649,1.88093 0.557681,2.3951 1.31563,1.76606 0.510659,-0.42381 0.509157,-3.00371 -0.003,-5.15658 -1.072891,-4.50996 -4.866701,-9.10545 -8.912577,-10.79593 -0.519787,-0.21718 -1.011621,-0.50256 -1.092967,-0.63418 -0.08135,-0.13162 0.122242,-1.01241 0.452421,-1.95732 2.644915,-7.56928 8.172267,-12.84684 15.956574,-15.23546 2.102064,-0.64502 2.724534,-0.71417 6.428474,-0.71417 3.70394,0 4.32641,0.0691 6.42847,0.71417 8.03753,2.46632 13.55172,7.92991 16.20384,16.05518 0.95131,2.91448 1.2193,8.5679 0.54323,11.45965 -0.53633,2.29405 -0.53239,3.06644 0.0167,3.27715 1.26487,0.48537 2.07616,-2.6922 2.07376,-8.12222 -0.002,-4.13055 -0.44254,-6.44469 -1.87592,-9.85025 -0.36672,-0.8713 -0.59038,-1.66057 -0.49701,-1.75394 0.0934,-0.0934 1.73742,-0.16702 3.65345,-0.16368 3.12698,0.005 3.70014,0.082 5.5978,0.74709 2.84361,0.99668 4.9486,2.31892 7.014,4.40582 2.05638,2.07777 3.46897,4.4055 4.41574,7.27642 0.60038,1.82057 0.69711,2.56082 0.69146,5.29167 -0.008,3.90808 -0.73026,6.44214 -2.69258,9.44812 -2.44666,3.74791 -5.56887,6.17578 -9.69066,7.5356 -1.93683,0.63898 -2.49881,0.70022 -6.61458,0.72083 l -4.49792,0.0225 -0.0762,-2.30048 c -0.0681,-2.05608 -0.13421,-2.31887 -0.62195,-2.47367 -0.83753,-0.26583 -0.99178,0.0964 -1.07601,2.52668 l -0.0779,2.24749 -3.77032,0.0734 -3.77031,0.0734 v -3.98432 c 0,-3.44467 -0.0586,-4.00682 -0.43284,-4.15041 -0.23806,-0.0914 -0.62501,-0.0451 -0.85989,0.10288 -0.35551,0.2239 -0.43933,0.9191 -0.50031,4.14966 l -0.0733,3.8807 -4.29237,-0.0727 -4.29237,-0.0727 -0.13229,-5.95313 -0.13229,-5.95312 h -0.66146 -0.66146 l -0.13229,5.95312 -0.13229,5.95313 -4.29948,0.0727 -4.299482,0.0727 v -3.59582 c 0,-3.72306 -0.201666,-4.61937 -1.039334,-4.61937 -0.726969,0 -0.812749,0.47701 -0.812749,4.51955 v 3.68253 h -3.675859 c -4.248108,0 -3.997058,0.17637 -3.997058,-2.80807 0,-1.51533 -0.09254,-2.00655 -0.400243,-2.12463 -0.822569,-0.31564 -1.164061,0.40999 -1.243087,2.64143 l -0.07646,2.15898 -4.497916,0.0481 c -2.946133,0.0315 -5.053735,-0.0738 -6.108983,-0.30542 z m 2.745372,-47.03699 c -0.60874,-0.47704 -2.854098,-4.20327 -2.854098,-4.73646 0,-0.71491 1.161259,-1.46421 5.688542,-3.67049 9.783069,-4.767592 19.489476,-6.690698 30.486096,-6.040138 7.80136,0.461532 15.94185,2.573266 22.30825,5.787018 1.93889,0.97875 1.96577,1.22429 0.44549,4.07012 -1.442,2.6993 -1.64523,2.82015 -3.42036,2.03383 -8.02291,-3.55389 -14.93513,-5.10763 -22.83198,-5.1322 -9.252576,-0.0288 -16.119005,1.5844 -24.629968,5.78656 -2.486901,1.22787 -4.577504,2.23249 -4.645785,2.23249 -0.06828,0 -0.314063,-0.14883 -0.546187,-0.33073 z M 68.411423,96.247387 c -1.890943,-2.951094 -1.893062,-3.543483 -0.01663,-4.64887 11.912608,-7.017601 24.715385,-10.527468 38.496877,-10.553872 8.08377,-0.01549 13.86905,0.78879 21.66355,3.011695 4.38056,1.249286 11.72968,4.222802 12.79842,5.178353 0.70474,0.630092 0.56413,1.309857 -0.80751,3.90384 -1.14887,2.172694 -1.33344,2.388486 -2.1073,2.463884 -0.54338,0.05294 -1.58629,-0.24933 -2.90234,-0.841197 -13.23704,-5.953094 -27.14952,-7.614013 -41.261497,-4.925936 -7.622085,1.451866 -14.254657,3.917828 -21.414491,7.961812 -0.745318,0.420968 -1.717493,0.765395 -2.160387,0.765395 -0.722921,0 -0.956955,-0.236736 -2.28869,-2.315104 z M 61.510018,84.772832 c -0.645245,-0.313825 -3.301685,-4.357582 -3.301685,-5.025981 0,-1.473402 1.502105,-2.584037 7.638494,-5.647798 9.307322,-4.646935 18.56868,-7.459125 29.800047,-9.048712 5.361656,-0.758841 18.354906,-0.689047 23.944796,0.128621 9.28725,1.358504 17.31994,3.642596 25.12443,7.144123 4.95573,2.223412 5.19007,2.629373 3.48074,6.030013 -1.66371,3.309889 -2.42924,3.614191 -5.52609,2.196642 -21.39214,-9.792018 -45.098432,-10.42138 -66.867626,-1.775222 -2.592824,1.029802 -7.566856,3.445038 -10.980208,5.33165 -1.780892,0.984325 -2.402552,1.109424 -3.312898,0.666664 z"
           style="fill:#939693;stroke-width:0.26458332" />
        <path
           inkscape:connector-curvature="0"
           id="path97"
           d="m 74.94081,191.96184 c -1.255723,-0.76563 -1.913649,-1.99977 -1.914821,-3.59183 -7.94e-4,-1.15336 0.129878,-1.49433 0.932405,-2.4319 0.513368,-0.59975 1.168212,-1.16499 1.455208,-1.25608 0.491792,-0.15609 0.521814,-0.41865 0.521814,-4.56372 v -4.3981 l 4.88401,-4.91063 4.884009,-4.91063 0.07693,-2.24896 c 0.07194,-2.10317 0.115491,-2.25444 0.671814,-2.33345 0.439661,-0.0624 0.664036,0.0974 0.859896,0.61254 0.338722,0.89091 0.342863,3.59836 0.0069,4.48213 -0.141986,0.37345 -2.341515,2.79222 -4.887844,5.37504 l -4.629687,4.69603 -0.007,4.0028 -0.007,4.00279 0.809858,0.33546 c 2.042459,0.84601 2.9376,3.68806 1.780902,5.65432 -1.11397,1.89364 -3.636573,2.58219 -5.437449,1.48419 z m 58.93423,0.0372 c -2.69581,-1.43448 -2.77894,-5.2577 -0.14903,-6.85402 l 1.19476,-0.72521 5.3e-4,-3.96875 5.3e-4,-3.96875 -4.76382,-4.83291 -4.76381,-4.83291 0.0754,-2.70771 c 0.0748,-2.69175 0.0791,-2.70772 0.7367,-2.70772 0.64764,0 0.66306,0.047 0.73838,2.24896 l 0.0769,2.24896 4.88401,4.91063 4.88401,4.91063 v 4.3981 c 0,4.1064 0.0337,4.40881 0.50859,4.55952 0.27972,0.0888 0.93456,0.63293 1.4552,1.20922 0.83285,0.92185 0.94651,1.21467 0.94564,2.4361 -0.002,3.23521 -3.0441,5.15507 -5.82397,3.67586 z m -44.448565,-5.92558 c -1.269095,-0.86374 -1.892046,-1.83279 -2.021621,-3.14478 -0.146727,-1.48569 0.723104,-3.06254 2.096469,-3.80054 0.935434,-0.50266 0.984782,-0.5957 0.985462,-1.85792 7.93e-4,-1.31504 0.02387,-1.35179 2.24415,-3.56054 l 2.243439,-2.23178 0.07167,-5.03842 0.07167,-5.03842 0.631537,-0.0893 c 0.347345,-0.0491 0.732475,0.07 0.855845,0.26458 0.123367,0.19463 0.226131,2.60163 0.228359,5.34889 l 0.004,4.995 -2.248958,2.29825 c -2.054056,2.09908 -2.248781,2.38848 -2.246921,3.33937 0.0019,0.9357 0.108601,1.10197 1.054476,1.64211 1.300313,0.74254 1.945608,1.92223 1.951307,3.56724 0.0073,2.09143 -1.817867,3.90156 -3.933859,3.90156 -0.718011,0 -1.422469,-0.21105 -1.987066,-0.59531 z m 29.887895,-8e-4 c -1.18436,-0.79813 -1.92787,-2.13852 -1.9262,-3.47248 0.002,-1.47324 0.61412,-2.54592 1.90622,-3.33964 0.96164,-0.59072 1.07755,-0.7728 1.08391,-1.70257 0.007,-0.95346 -0.18225,-1.23464 -2.24184,-3.33937 l -2.24896,-2.29825 0.004,-4.99501 c 0.002,-2.74725 0.10499,-5.15425 0.22836,-5.34888 0.12337,-0.19464 0.5085,-0.3137 0.85584,-0.26459 l 0.63154,0.0892 0.0723,4.8839 0.0723,4.88389 2.24277,2.29193 2.24278,2.29193 v 1.45718 c 0,1.37608 0.0451,1.47585 0.80986,1.79264 0.44542,0.1845 1.13003,0.75522 1.52135,1.26827 0.92612,1.2142 1.00081,3.32287 0.158,4.46034 -1.43359,1.9348 -3.69875,2.49621 -5.41234,1.34142 z m -15.00481,-9.72111 c -1.37567,-0.83875 -1.9635,-2.00388 -1.84172,-3.65042 0.11511,-1.55628 0.68032,-2.49847 1.91028,-3.18439 0.43657,-0.24346 0.85329,-0.48188 0.92605,-0.52981 0.0728,-0.0479 0.19182,-1.77434 0.26458,-3.83646 l 0.13229,-3.7493 h 0.66146 0.66146 l 0.13229,3.7493 c 0.0728,2.06212 0.19182,3.78853 0.26458,3.83646 0.0728,0.0479 0.4868,0.26881 0.92009,0.49083 1.19662,0.61317 1.9905,1.9723 1.98934,3.40576 -0.002,2.28632 -1.69821,3.99379 -3.96776,3.99379 -0.72236,0 -1.52977,-0.20677 -2.05294,-0.52576 z M 76.18777,157.82491 c -4.631063,-0.55127 -9.150871,-4.09218 -11.066812,-8.66997 -3.430531,-8.19663 2.116953,-17.8377 10.986593,-19.0938 8.062068,-1.14173 15.223691,4.72556 15.923241,13.04541 0.192569,2.29024 0.638887,2.97193 1.565561,2.39118 1.57806,-0.98897 -0.327671,-8.30099 -3.001486,-11.51627 -1.448594,-1.74194 -3.684143,-3.53768 -5.445514,-4.37418 -1.532231,-0.72769 -1.570998,-0.77183 -1.413788,-1.60984 0.541494,-2.8864 3.260344,-7.49003 6.061292,-10.26314 7.504986,-7.43038 18.434623,-9.03903 27.648133,-4.06933 5.44779,2.9385 9.20535,7.4393 11.28678,13.51927 1.29853,3.79309 1.51268,9.02722 0.52191,12.75607 -0.5148,1.93749 -0.35084,2.60376 0.6133,2.49225 0.58718,-0.0679 0.77872,-0.30388 1.14696,-1.41297 1.43551,-4.32357 0.97645,-11.722 -1.00704,-16.23013 -0.34411,-0.78209 -0.62565,-1.5756 -0.62565,-1.76336 0,-0.52407 3.65453,-0.78055 5.88151,-0.41277 4.36505,0.72087 7.11218,2.12133 10.12969,5.16402 2.42708,2.44734 3.7559,4.72502 4.64294,7.9583 0.48213,1.75738 0.55486,2.58079 0.45466,5.14746 -0.19288,4.9409 -1.68645,8.38273 -5.11479,11.78667 -4.04035,4.0116 -8.75607,5.62222 -15.72943,5.37228 l -2.24896,-0.0806 -0.13229,-2.11667 c -0.14486,-2.3178 -0.31744,-2.77812 -1.04155,-2.77812 -0.80668,0 -1.04753,0.59524 -1.12917,2.79066 l -0.0782,2.10413 -3.41887,0.0744 c -2.55747,0.0556 -3.47307,-0.011 -3.63397,-0.26458 -0.1183,-0.18644 -0.21692,-1.9719 -0.21915,-3.96769 -0.004,-3.26579 -0.0533,-3.65508 -0.49667,-3.89235 -0.34306,-0.1836 -0.62285,-0.16635 -0.92161,0.0568 -0.35491,0.26513 -0.44117,0.98295 -0.49957,4.15693 l -0.0706,3.83646 h -4.10104 -4.10105 l -0.13229,-5.82083 c -0.0728,-3.20146 -0.22861,-5.96967 -0.34634,-6.15157 -0.11773,-0.1819 -0.43813,-0.33073 -0.71199,-0.33073 -0.27387,0 -0.59426,0.14883 -0.71199,0.33073 -0.11773,0.1819 -0.27358,2.95011 -0.34634,6.15157 l -0.1323,5.82083 h -4.10104 -4.101039 l -0.07058,-3.83646 c -0.05839,-3.17398 -0.144658,-3.8918 -0.49957,-4.15693 -0.298757,-0.22319 -0.578544,-0.24044 -0.92161,-0.0568 -0.445532,0.23844 -0.492617,0.62895 -0.492617,4.08575 0,4.51829 0.377803,4.15763 -4.233334,4.04126 l -3.042708,-0.0768 -0.07824,-2.10413 c -0.08163,-2.19542 -0.322482,-2.79066 -1.129168,-2.79066 -0.724109,0 -0.896688,0.46032 -1.04155,2.77812 l -0.132292,2.11667 -3.704167,0.0348 c -2.037291,0.0191 -4.483576,-0.058 -5.436187,-0.17136 z"
           style="fill:#0158fe;stroke-width:0.26458332" />
      </g>
    </g>
  </g>
</svg>
