<?xml version="1.0" encoding="UTF-8" standalone="no"?>
<!-- Created with Inkscape (http://www.inkscape.org/) -->

<svg
   xmlns:dc="http://purl.org/dc/elements/1.1/"
   xmlns:cc="http://creativecommons.org/ns#"
   xmlns:rdf="http://www.w3.org/1999/02/22-rdf-syntax-ns#"
   xmlns:svg="http://www.w3.org/2000/svg"
   xmlns="http://www.w3.org/2000/svg"
   xmlns:sodipodi="http://sodipodi.sourceforge.net/DTD/sodipodi-0.dtd"
   xmlns:inkscape="http://www.inkscape.org/namespaces/inkscape"
   width="210mm"
   height="297mm"
   viewBox="0 0 210 297"
   version="1.1"
   id="svg95"
   inkscape:version="0.92.4 (5da689c313, 2019-01-14)"
   sodipodi:docname="COLORVECTOR_LOGO.svg">
  <defs
     id="defs89" />
  <sodipodi:namedview
     id="base"
     pagecolor="#ffffff"
     bordercolor="#666666"
     borderopacity="1.0"
     inkscape:pageopacity="0.0"
     inkscape:pageshadow="2"
     inkscape:zoom="1.4142136"
     inkscape:cx="207.31182"
     inkscape:cy="285.25408"
     inkscape:document-units="mm"
     inkscape:current-layer="layer1"
     showgrid="false"
     inkscape:window-width="2400"
     inkscape:window-height="1271"
     inkscape:window-x="-9"
     inkscape:window-y="-9"
     inkscape:window-maximized="1" />
  <metadata
     id="metadata92">
    <rdf:RDF>
      <cc:Work
         rdf:about="">
        <dc:format>image/svg+xml</dc:format>
        <dc:type
           rdf:resource="http://purl.org/dc/dcmitype/StillImage" />
        <dc:title />
      </cc:Work>
    </rdf:RDF>
  </metadata>
  <g
     inkscape:label="Capa 1"
     inkscape:groupmode="layer"
     id="layer1">
    <g
       id="g108"
       transform="matrix(0.50961706,0,0,0.56329047,-20.781521,40.195233)">
      <path
         style="fill:#fdfdfe;stroke-width:0.21166667"
         d="M 77.076889,264.49403 V 191.57487 H 255.5119 433.94692 v 72.91916 72.91917 H 255.5119 77.076889 Z"
         id="path114"
         inkscape:connector-curvature="0" />
      <path
         style="fill:#7e817e;stroke-width:0.21166667"
         d="m 115.70437,335.58185 c -2.0382,-1.08279 -5.49261,-3.34659 -8.13053,-5.32822 -15.700719,-11.79451 -26.162103,-29.24238 -29.088584,-48.51499 -0.778229,-5.1251 -0.874013,-6.5935 -0.479818,-7.35579 0.422864,-0.81773 0.689653,-0.90768 3.101313,-1.04572 1.9147,-0.10959 2.049829,-0.0891 2.615071,0.39713 0.563377,0.4846 0.612262,0.66886 0.892002,3.36207 2.301352,22.15639 14.840327,41.41196 34.233556,52.571 0.70802,0.4074 1.12274,0.82433 1.34204,1.3492 0.31172,0.74605 0.301,0.79146 -0.60088,2.54572 -1.39123,2.70606 -1.99807,3.0216 -3.88417,2.0196 z m 76.68425,-3.0899 c -0.18655,-0.14552 -0.77626,-0.94801 -1.31045,-1.78331 -0.70406,-1.10091 -0.97127,-1.73362 -0.97127,-2.2998 0,-0.91073 0.0732,-0.98413 3.54158,-3.55238 7.46872,-5.53035 13.91994,-12.90079 18.60535,-21.25636 5.40466,-9.63823 8.22371,-19.86424 8.6769,-31.47523 0.19155,-4.90768 0.14044,-4.83155 3.32279,-4.94935 2.1656,-0.0802 2.24853,-0.0664 2.77534,0.4604 0.54002,0.54002 0.54303,0.56282 0.541,4.09808 -0.004,7.33624 -1.41607,15.45492 -3.9679,22.8167 -5.20817,15.02505 -14.61518,27.619 -27.56839,36.90809 -1.8764,1.34562 -2.87978,1.63003 -3.64495,1.03316 z m -71.05221,-9.16149 c -14.81657,-8.68667 -25.548261,-23.63083 -28.997811,-40.3802 -0.557739,-2.70812 -0.779293,-4.20162 -1.189444,-8.0181 -0.165677,-1.54163 0.263888,-2.07729 1.665852,-2.07729 0.506798,0 1.483111,-0.0559 2.169584,-0.1243 1.924405,-0.19164 1.982428,-0.10515 2.440563,3.63794 1.556847,12.71989 6.665206,23.50613 15.404416,32.52624 3.71073,3.83 8.32845,7.43549 12.27173,9.58169 1.59778,0.86962 1.67157,1.25689 0.63515,3.33354 -0.94726,1.89803 -1.56105,2.6928 -2.07687,2.68927 -0.18344,-0.001 -1.22886,-0.52722 -2.32317,-1.16879 z m 64.05085,-1.84518 c -0.56906,-0.42346 -2.47703,-3.58797 -2.47703,-4.10833 0,-0.36267 0.68518,-0.98788 2.90911,-2.65449 3.21618,-2.41022 7.83291,-6.84433 10.09351,-9.69426 2.4139,-3.0432 4.73427,-6.72308 6.47317,-10.26583 2.05133,-4.17929 2.98934,-6.7003 4.01657,-10.795 1.08036,-4.30646 1.50754,-7.35655 1.64204,-11.72429 0.1403,-4.55603 0.0776,-4.45358 2.75269,-4.50113 2.51591,-0.0447 2.86847,-10e-5 3.175,0.40187 0.55534,0.72825 0.23492,7.21049 -0.60954,12.33105 -2.64971,16.06707 -12.14251,31.11439 -25.35732,40.19465 -1.64649,1.13134 -2.0325,1.25161 -2.6182,0.81576 z m -58.17561,-8.86267 c -11.5277,-6.81211 -20.14259,-18.86349 -22.90504,-32.04191 -0.63015,-3.0062 -1.0902,-6.84675 -0.9074,-7.5751 0.15437,-0.61507 0.86291,-0.77985 3.36847,-0.7834 1.97767,-0.003 1.91016,-0.10058 2.26368,3.2785 1.35519,12.95364 9.46568,25.52733 20.85637,32.33363 1.29961,0.77656 1.9257,1.27906 1.97015,1.58125 0.0669,0.45504 -1.23085,3.25866 -1.8148,3.92054 -0.4891,0.55438 -0.83215,0.46793 -2.83143,-0.71351 z m 51.6011,-1.35046 c -0.53439,-0.5344 -2.25252,-3.40069 -2.25252,-3.75781 0,-0.1847 1.0769,-1.14468 2.3931,-2.13328 8.99696,-6.75759 14.95155,-16.49354 16.98052,-27.76369 0.18863,-1.04775 0.40883,-3.44958 0.48933,-5.33741 0.0975,-2.28673 0.23462,-3.52066 0.41077,-3.69681 0.37672,-0.37672 4.39068,-0.52028 4.81028,-0.17204 0.25098,0.20829 0.31577,0.83403 0.31486,3.04092 -0.002,4.62264 -1.04128,10.38542 -2.75354,15.267 -0.85896,2.44885 -3.20833,7.32942 -4.62687,9.61184 -3.34349,5.37963 -8.4607,10.8153 -13.34655,14.17715 -1.70241,1.17138 -1.93778,1.24573 -2.41938,0.76413 z m -52.14776,-12.82534 c -1.21725,-0.60253 -1.75143,-1.52183 -1.75143,-3.01414 0,-1.02696 0.0887,-1.28582 0.66642,-1.94375 0.36653,-0.41746 0.93803,-0.89947 1.27,-1.07113 l 0.60358,-0.31213 v -3.54218 -3.54219 l 3.81,-3.80559 3.81,-3.80559 v -1.73333 c 0,-1.29354 0.0844,-1.81774 0.33262,-2.06596 0.18294,-0.18294 0.41426,-0.33262 0.51405,-0.33262 0.0998,0 0.33111,0.14968 0.51404,0.33262 0.25412,0.25412 0.33262,0.79166 0.33262,2.27756 v 1.94495 l -3.91583,3.91154 -3.91583,3.91154 0.002,3.28298 0.002,3.28298 0.84352,0.48169 c 2.32264,1.32636 2.15105,4.67087 -0.29667,5.78249 -1.12462,0.51074 -1.72535,0.50227 -2.82035,-0.0397 z m 47.87391,0.15686 c -0.77008,-0.34919 -1.73703,-1.44518 -1.92072,-2.17707 -0.19956,-0.79512 0.0517,-2.1955 0.50411,-2.81007 0.22169,-0.30112 0.75229,-0.738 1.1791,-0.97083 l 0.77603,-0.42333 6.4e-4,-3.28298 5e-4,-3.28298 -3.92109,-3.91369 -3.9211,-3.91369 0.0582,-2.11666 0.0582,-2.11667 h 0.635 0.635 l 0.0605,1.80892 0.0605,1.80891 3.90822,3.90394 3.90822,3.90394 6.4e-4,3.60048 6.3e-4,3.60048 0.78663,0.42333 c 2.23941,1.20517 2.36276,4.09524 0.24183,5.6659 -0.71274,0.52781 -2.21407,0.67154 -3.05093,0.29207 z m -36.50211,-5.05839 c -2.07217,-1.41443 -1.93781,-4.20804 0.27149,-5.64462 0.73854,-0.48024 0.78695,-0.57817 0.78695,-1.59218 0,-1.07417 0.0104,-1.09085 1.79475,-2.86588 l 1.79475,-1.78543 0.0573,-4.03073 0.0573,-4.03074 h 0.635 0.635 l 0.0574,4.3208 0.0574,4.32081 -1.80366,1.84319 c -1.589,1.62383 -1.80366,1.93395 -1.80366,2.60584 0,0.61717 0.11104,0.82066 0.58209,1.06669 0.32014,0.16723 0.86175,0.5982 1.20356,0.95773 0.83614,0.87947 1.00465,2.72676 0.34463,3.77813 -0.96188,1.5322 -3.22379,2.04383 -4.67038,1.05639 z m 24.39275,0.0541 c -0.99171,-0.60465 -1.53091,-1.60208 -1.53185,-2.83366 -0.001,-1.29579 0.53691,-2.20754 1.68208,-2.85117 0.70678,-0.39723 0.85713,-0.59409 0.85713,-1.12228 0,-0.51939 -0.36035,-1.01369 -1.905,-2.6132 l -1.905,-1.97264 v -4.13147 c 0,-3.47367 0.0529,-4.18444 0.33262,-4.4641 0.18293,-0.18294 0.41426,-0.33262 0.51404,-0.33262 0.0998,0 0.33111,0.14968 0.51405,0.33262 0.2779,0.2779 0.33262,0.96339 0.33262,4.16664 v 3.83403 l 1.79917,1.8386 1.79916,1.8386 v 1.19142 c 0,0.88939 0.0764,1.19142 0.30126,1.19142 0.48391,0 1.63637,1.08473 1.95002,1.83541 0.38888,0.9307 0.35681,1.69837 -0.11426,2.73563 -0.75499,1.66242 -3.03026,2.32973 -4.62604,1.35677 z m -11.79848,-7.60901 c -1.2661,-0.51652 -2.187,-2.28756 -1.92252,-3.69733 0.15908,-0.84799 1.53409,-2.45313 2.10141,-2.45313 0.30916,0 0.35028,-0.34609 0.35028,-2.94822 0,-2.43264 0.0598,-3.00804 0.3421,-3.29031 0.29903,-0.29903 0.39897,-0.30439 0.79375,-0.0426 0.41981,0.27842 0.45577,0.5067 0.51006,3.23867 l 0.0584,2.93914 0.77894,0.42206 c 1.03565,0.56117 1.61981,1.60462 1.61981,2.89341 0,1.15381 -0.43475,1.89511 -1.56093,2.66158 -0.72696,0.49476 -2.20943,0.62833 -3.07132,0.27671 z m 88.36696,-7.85156 c -0.4096,-0.0973 -1.19855,-0.37145 -1.75323,-0.60921 l -1.0085,-0.43229 0.0599,-2.38579 0.0599,-2.38578 h 0.83769 0.83768 l 0.35402,1.77099 c 0.19471,0.97404 0.4845,1.85476 0.64398,1.95716 0.52916,0.33974 1.7583,0.60864 2.78756,0.60984 1.86832,0.002 2.8999,-0.97626 2.8999,-2.75049 0,-1.69701 -0.7349,-2.49815 -3.89065,-4.24133 -2.1004,-1.16022 -3.32877,-2.1877 -3.87253,-3.23922 -0.44707,-0.86454 -0.60097,-2.87153 -0.29198,-3.80777 0.33577,-1.01741 1.86758,-2.33991 3.13179,-2.70387 1.87967,-0.54114 4.99805,-0.18347 6.8785,0.78895 0.58424,0.30212 0.58487,0.30494 0.58487,2.60066 0,2.19607 -0.0209,2.30367 -0.46986,2.42108 -1.08787,0.28448 -1.38594,-0.008 -1.65765,-1.62703 -0.37495,-2.23411 -0.45783,-2.376 -1.54819,-2.65055 -2.14174,-0.5393 -3.52024,-0.0464 -3.95814,1.41515 -0.49746,1.66036 0.44957,2.99933 3.03926,4.29713 2.26767,1.13643 3.90404,2.43167 4.59568,3.63761 1.63759,2.85532 0.13084,6.23503 -3.22386,7.23126 -1.15629,0.34339 -3.79778,0.39767 -5.03612,0.1035 z m 14.10613,-0.0915 c -1.0576,-0.37698 -2.11422,-1.40936 -2.69607,-2.63423 -0.7005,-1.47462 -0.80592,-4.56859 -0.21338,-6.26231 1.27102,-3.63309 5.89183,-5.10099 8.21728,-2.61039 0.70257,0.75246 1.28577,2.24497 1.45011,3.71105 0.18009,1.60669 0.37734,1.52844 -4.03269,1.5997 l -3.175,0.0513 0.0701,1.16416 c 0.0961,1.59597 0.67977,2.84767 1.53393,3.28937 0.95154,0.49206 2.48297,0.32045 3.57209,-0.4003 0.46603,-0.3084 0.8948,-0.56073 0.95282,-0.56073 0.058,0 0.26312,0.24056 0.45577,0.53459 0.3293,0.50258 0.32643,0.56141 -0.048,0.9825 -0.21907,0.24635 -0.87456,0.6716 -1.45665,0.94501 -1.23263,0.57897 -3.3013,0.66397 -4.63025,0.19027 z m 3.81437,-8.05378 c 0.17016,-0.44341 -0.30714,-2.24363 -0.71448,-2.69484 -0.57419,-0.63601 -1.61511,-0.47463 -2.352,0.36463 -0.5398,0.6148 -1.08594,1.86313 -1.09062,2.49287 -6.4e-4,0.0873 0.90668,0.15875 2.01629,0.15875 1.60895,0 2.04245,-0.0651 2.14081,-0.32141 z m 20.18339,8.2285 c -0.17463,-0.0566 -0.72232,-0.24742 -1.21709,-0.42413 l -0.89958,-0.32131 v -1.67583 -1.67582 h 0.83166 0.83166 l 0.23857,1.14918 0.23857,1.14918 1.01621,0.21793 c 1.21321,0.26019 2.44851,-0.0106 2.7675,-0.60664 0.62262,-1.16337 0.0382,-1.98962 -2.32274,-3.28379 -2.72233,-1.49228 -3.75675,-3.12797 -3.18499,-5.03634 0.6748,-2.25226 3.43053,-3.0463 6.62148,-1.90791 l 1.00541,0.35868 v 1.65152 1.65152 h -0.80319 c -0.80098,0 -0.80405,-0.003 -1.11125,-1.21708 l -0.30806,-1.21709 -0.9922,-0.19175 c -0.80221,-0.15504 -1.09605,-0.12371 -1.53458,0.16363 -1.17399,0.76923 -0.39343,2.13812 1.9493,3.41853 2.79163,1.52576 3.48383,2.34511 3.48383,4.12376 0,1.67299 -1.01705,2.97912 -2.77918,3.5691 -0.70836,0.23717 -3.21107,0.30553 -3.83133,0.10466 z m 11.70804,-0.1337 c -2.74275,-1.05419 -4.28006,-4.20055 -3.68347,-7.53886 0.49905,-2.79251 2.11999,-4.59433 4.59546,-5.10823 3.94714,-0.81943 7.08573,2.39624 6.80525,6.97238 -0.15636,2.55099 -1.32852,4.48382 -3.30064,5.44253 -0.95168,0.46265 -3.4722,0.59516 -4.4166,0.23218 z m 3.67796,-2.13988 c 0.85996,-0.93126 1.16093,-2.06626 1.14442,-4.31571 -0.0221,-3.00415 -1.10566,-4.70447 -2.99815,-4.70447 -1.01835,0 -2.18872,1.26981 -2.49702,2.70917 -0.65691,3.06691 0.16155,6.36607 1.74689,7.04157 0.81905,0.34899 1.8825,0.0506 2.60386,-0.73056 z m 16.0465,2.00533 -1.05833,-0.37168 -0.0615,-1.72858 -0.0615,-1.72858 h 0.83168 c 0.79491,0 0.83788,0.0351 0.97233,0.79375 0.25299,1.42745 0.30592,1.49439 1.36051,1.72055 1.18656,0.25448 1.85788,0.13067 2.51469,-0.46375 0.97567,-0.88299 0.32323,-2.13123 -1.67583,-3.20618 -3.02298,-1.62554 -3.90377,-2.71716 -3.72165,-4.61246 0.11893,-1.23775 0.62913,-1.98592 1.75823,-2.57822 1.16495,-0.61112 3.61385,-0.59243 5.01508,0.0383 l 1.00542,0.45255 v 1.5994 1.5994 h -0.8324 c -0.89229,0 -0.92658,-0.0442 -1.19035,-1.53267 -0.12466,-0.70349 -0.23417,-0.81711 -0.9815,-1.01834 -1.14461,-0.30821 -2.04307,-0.0871 -2.20089,0.54176 -0.28368,1.13021 0.29775,1.81684 2.62955,3.10544 2.67424,1.47781 3.42617,2.5804 3.15229,4.62231 -0.26409,1.96898 -2.10763,3.17743 -4.81004,3.15303 -0.93523,-0.008 -2.02235,-0.16706 -2.64583,-0.38602 z m 38.3442,-0.23034 c -1.00787,-0.88492 -1.1967,-1.86833 -1.1967,-6.23223 v -3.71627 h -0.74083 c -0.69916,0 -0.74084,-0.0399 -0.74084,-0.70873 0,-0.62753 0.0948,-0.74595 0.82726,-1.03368 0.69603,-0.27341 0.92268,-0.52998 1.42875,-1.6174 0.55245,-1.18708 0.65682,-1.29263 1.28014,-1.29465 l 0.67865,-0.002 0.0622,1.53459 0.0622,1.53458 1.54729,0.0625 1.54728,0.0624 -0.0656,0.67839 c -0.0636,0.65812 -0.10672,0.68561 -1.44145,0.92012 -0.75671,0.13296 -1.44727,0.25202 -1.53458,0.26459 -0.22399,0.0322 -0.18847,6.09536 0.0415,7.08664 0.27569,1.18822 0.45897,1.2987 1.61692,0.9745 0.90928,-0.25459 1.01811,-0.24477 1.28158,0.11554 0.48683,0.66578 0.33064,0.94741 -0.82334,1.48467 -1.60095,0.74534 -2.89605,0.70703 -3.83039,-0.11333 z m 8.84881,0.13384 c -1.14298,-0.53224 -1.95334,-1.35911 -2.70021,-2.75519 -0.39935,-0.74647 -0.46613,-1.20494 -0.46613,-3.19965 0,-2.11796 0.0514,-2.42568 0.56849,-3.40572 1.06939,-2.02667 2.77207,-3.10553 4.93484,-3.1268 1.62188,-0.016 2.70013,0.35894 3.74354,1.30161 2.69174,2.43183 2.97711,6.8339 0.63237,9.75511 -1.50958,1.88071 -4.41612,2.50016 -6.7129,1.43064 z m 3.6743,-1.41045 c 2.09991,-1.28025 2.3274,-6.84869 0.36017,-8.8159 -1.31608,-1.31608 -2.97844,-0.84844 -3.92347,1.10371 -0.37977,0.78453 -0.46501,1.33884 -0.47058,3.06031 -0.006,1.84133 0.0613,2.24118 0.54178,3.22154 0.87025,1.77555 2.09984,2.27918 3.4921,1.43034 z m 17.49423,1.62542 c -5.2288,-1.69755 -7.5649,-8.0569 -4.97084,-13.53159 1.60371,-3.38459 5.55445,-5.42001 9.38629,-4.83582 1.94808,0.29699 2.83384,0.55646 3.6876,1.0802 l 0.68791,0.42201 v 2.20879 2.2088 l -0.62691,0.13769 c -1.06094,0.23302 -1.34065,-0.10411 -1.69585,-2.04397 l -0.32307,-1.76425 -1.05833,-0.37398 c -1.34544,-0.47544 -3.13754,-0.36479 -4.45992,0.27537 -3.36409,1.62853 -4.41677,8.36694 -1.89527,12.13207 1.05556,1.57618 1.96706,2.11964 3.72142,2.21877 1.72074,0.0972 3.12143,-0.31265 4.64138,-1.35821 0.57826,-0.39775 1.14645,-0.72319 1.26268,-0.72319 0.11623,0 0.35569,0.27915 0.53213,0.62034 0.31695,0.61293 0.31007,0.62952 -0.57664,1.38858 -0.49361,0.42253 -1.51408,1.07206 -2.26772,1.44341 -1.1942,0.58842 -1.61573,0.68139 -3.28083,0.72361 -1.13375,0.0288 -2.25757,-0.0642 -2.76403,-0.22863 z m 20.10648,-0.21497 c -1.14298,-0.53224 -1.95335,-1.35911 -2.70022,-2.75519 -0.39935,-0.74647 -0.46613,-1.20494 -0.46613,-3.19965 0,-2.11796 0.0514,-2.42568 0.5685,-3.40572 1.08978,-2.06534 2.78096,-3.11464 5.04257,-3.1287 1.73446,-0.0108 3.0498,0.5856 4.21763,1.9123 1.106,1.25649 1.58577,2.7145 1.56513,4.75652 -0.0378,3.74498 -2.39327,6.3173 -5.78466,6.3173 -0.99955,0 -1.66766,-0.13589 -2.44282,-0.49686 z m 3.6743,-1.41045 c 1.12155,-0.68378 1.61105,-2.02561 1.61923,-4.43856 0.011,-3.25688 -1.00764,-5.08 -2.83841,-5.08 -1.01738,0 -1.74109,0.56066 -2.35158,1.82177 -0.69175,1.42896 -0.68446,4.5869 0.0142,6.19433 0.78759,1.8118 2.12344,2.37615 3.55647,1.50246 z m 8.55853,1.52693 c -1.36292,-0.72708 -1.41819,-0.94184 -1.53501,-5.96549 l -0.10583,-4.55083 -0.635,-0.0717 c -0.85914,-0.0969 -1.19802,-0.42065 -1.12196,-1.07177 0.0614,-0.52553 0.1379,-0.55322 2.18029,-0.78905 1.58629,-0.18316 2.15563,-0.18382 2.27218,-0.003 0.0855,0.13298 0.15697,2.43514 0.15875,5.11593 0.004,5.4386 0.0877,5.81501 1.29915,5.81501 0.79004,0 1.364,-0.28711 2.2495,-1.12525 l 0.68792,-0.65113 v -3.66264 -3.66265 l -0.58208,-0.003 c -0.85037,-0.005 -1.15464,-0.27799 -1.07529,-0.9657 0.0691,-0.59843 0.0933,-0.60839 2.0807,-0.85371 1.5058,-0.18588 2.04989,-0.18753 2.16635,-0.007 0.0855,0.13293 0.15697,2.59732 0.15875,5.47641 l 0.003,5.23472 0.47625,0.10162 c 0.26194,0.0559 0.66675,0.13012 0.89959,0.16495 0.45536,0.0681 0.70722,0.9181 0.37151,1.2538 -0.1064,0.10642 -0.94763,0.27806 -1.86937,0.38143 -1.88542,0.21144 -2.20631,0.0862 -2.20631,-0.86132 0,-0.7493 -0.0849,-0.7537 -0.92193,-0.0478 -0.36606,0.30868 -0.97206,0.68968 -1.34669,0.84666 -0.94332,0.3953 -2.77222,0.34503 -3.60471,-0.0991 z m 13.53576,0.0307 c -1.02137,-0.50337 -2.05312,-1.82181 -2.47482,-3.16247 -0.50872,-1.61739 -0.36646,-4.41963 0.30196,-5.94811 1.22779,-2.80754 4.14879,-4.16228 7.15751,-3.3196 0.46996,0.13163 0.47625,0.10671 0.47625,-1.88936 v -2.02274 l -0.79375,-0.0657 c -0.75351,-0.0624 -0.79375,-0.10325 -0.79375,-0.80653 v -0.74083 l 1.48167,-0.14466 c 0.81491,-0.0796 1.73992,-0.1955 2.05553,-0.25765 0.32442,-0.0639 0.63955,-0.007 0.72496,0.13144 0.0831,0.13444 0.12679,3.80332 0.0971,8.15307 -0.0404,5.91676 0.0102,7.98587 0.20056,8.2153 0.13997,0.16866 0.57622,0.30666 0.96941,0.30666 0.67308,0 0.71493,0.0425 0.71493,0.7256 v 0.72561 l -1.21709,0.12996 c -0.66939,0.0715 -1.52671,0.17791 -1.90515,0.23652 -0.69297,0.10731 -0.7163,0.0858 -1.21458,-1.11984 -0.01,-0.0236 -0.5754,0.2383 -1.25696,0.58208 -1.45521,0.73403 -3.35378,0.84786 -4.52379,0.27124 z m 4.57713,-2.34372 0.77794,-0.62932 0.058,-3.51419 0.058,-3.51419 -0.55374,-0.36283 c -0.30457,-0.19955 -1.07019,-0.40565 -1.7014,-0.45799 -1.09154,-0.0905 -1.18207,-0.0587 -1.85238,0.65207 -0.87389,0.9266 -1.26822,2.2779 -1.27502,4.36932 -0.006,1.96467 0.32652,3.00434 1.19634,3.73625 0.88143,0.74166 2.16493,0.63284 3.29227,-0.27912 z m -166.4824,2.13086 c -0.0526,-0.13705 -0.0643,-0.47043 -0.026,-0.74083 0.0565,-0.39845 0.21799,-0.50397 0.85225,-0.55667 0.7437,-0.0618 0.78894,-0.10915 0.91025,-0.9525 0.0702,-0.48811 0.099,-2.50551 0.0641,-4.48311 -0.0603,-3.40834 -0.0856,-3.59896 -0.48692,-3.65949 -1.33596,-0.20153 -1.40389,-0.24973 -1.33578,-0.94774 l 0.0658,-0.67418 2.01084,-0.24953 c 2.2479,-0.27895 2.54,-0.18539 2.54,0.81359 v 0.631 l 0.71788,-0.6303 c 2.07206,-1.81929 5.59413,-1.12514 6.27129,1.23599 0.11412,0.39792 0.2075,2.50825 0.2075,4.68962 v 3.96611 l 0.58208,0.12754 c 1.09749,0.24049 1.1403,0.28004 1.07185,0.99032 l -0.0664,0.68937 -3.06917,-0.009 -3.06917,-0.009 -0.0658,-0.67187 c -0.0681,-0.69542 6.3e-4,-0.74402 1.33578,-0.94544 0.40128,-0.0605 0.42636,-0.24899 0.48142,-3.61768 0.0653,-3.99476 -0.12379,-5.13969 -0.8974,-5.43381 -0.79103,-0.30075 -1.8946,0.1266 -2.73818,1.06034 l -0.76167,0.84308 v 3.48786 3.48786 l 0.58208,0.12754 c 1.0975,0.24049 1.14031,0.28004 1.07185,0.99032 l -0.0664,0.68937 h -3.04317 c -2.13898,0 -3.07158,-0.074 -3.13882,-0.24919 z m 36.73955,-0.12123 c -0.30974,-0.57861 0.13451,-1.18008 0.92813,-1.25661 l 0.68764,-0.0663 0.0571,-4.49792 0.0571,-4.49792 -0.58629,-0.003 c -0.85457,-0.005 -1.15896,-0.27704 -1.0795,-0.96569 0.069,-0.5979 0.0951,-0.6087 2.0807,-0.86017 2.21431,-0.28043 2.54,-0.16003 2.54,0.93898 0,0.51011 0,0.50995 0.76435,-0.16047 1.00993,-0.88672 1.65684,-1.10984 2.74492,-0.94667 1.0644,0.15962 1.29525,0.6621 0.92902,2.02214 -0.22003,0.81719 -0.26556,0.8536 -1.01143,0.80915 -1.77205,-0.10559 -2.18442,-0.002 -2.91886,0.7323 l -0.71967,0.71967 v 3.27731 c 0,3.65947 -0.0604,3.52823 1.62616,3.53546 0.71837,0.003 1.05363,0.49899 0.82482,1.21998 -0.10535,0.33193 -0.4608,0.37041 -3.42176,0.37041 -2.93021,0 -3.32664,-0.0419 -3.50249,-0.37041 z m 27.97071,0.27749 c -2.6039,-0.10829 -2.86197,-0.15475 -2.93342,-0.52808 -0.0984,-0.51382 0.50025,-0.96649 1.2781,-0.96649 h 0.59455 v -7.40583 -7.40583 l -0.85792,-0.13719 c -0.8087,-0.12931 -0.85425,-0.17501 -0.79375,-0.79625 l 0.0642,-0.65906 h 3.28084 3.28083 v 0.63405 c 0,0.57506 -0.0837,0.65171 -0.89958,0.82382 l -0.89959,0.18977 v 7.35121 7.35121 l 0.85973,0.13747 c 0.81799,0.1308 0.85653,0.17068 0.79375,0.82081 -0.0768,0.7955 0.18347,0.75471 -3.76771,0.59039 z m 4.92809,-0.15626 c -0.0526,-0.13705 -0.0643,-0.47043 -0.026,-0.74083 0.0567,-0.39984 0.21772,-0.5039 0.86257,-0.55729 0.61099,-0.0506 0.81904,-0.17199 0.90678,-0.52917 0.0626,-0.25493 0.0868,-2.27327 0.0538,-4.48519 l -0.0601,-4.02166 -0.635,-0.0717 c -0.85914,-0.0969 -1.19802,-0.42065 -1.12196,-1.07177 0.0614,-0.52553 0.1379,-0.55322 2.18029,-0.78905 2.32025,-0.26791 2.42521,-0.23085 2.43093,0.85811 l 0.003,0.61898 0.47625,-0.43547 c 1.37469,-1.25697 3.80433,-1.63286 5.19033,-0.80298 1.33246,0.79781 1.53009,1.61247 1.53009,6.30746 v 4.16247 l 0.58208,0.12754 c 1.0975,0.24049 1.14032,0.28004 1.07186,0.99032 l -0.0664,0.68937 h -3.02545 c -2.96613,0 -3.02783,-0.009 -3.14573,-0.479 -0.16053,-0.63941 0.23415,-1.06971 1.05404,-1.14918 l 0.67214,-0.0651 0.0579,-3.65525 c 0.0319,-2.01039 -0.0217,-3.96301 -0.11913,-4.33917 -0.36764,-1.42008 -1.90115,-1.44639 -3.35068,-0.0575 l -0.92729,0.88849 v 3.52475 3.52475 l 0.58208,0.12754 c 1.09749,0.24049 1.14031,0.28004 1.07186,0.99032 l -0.0664,0.68937 h -3.04316 c -2.13899,0 -3.0716,-0.074 -3.13882,-0.24919 z m 56.13769,-0.0327 c -0.34665,-0.9031 -0.12186,-1.14306 1.26763,-1.35313 0.41272,-0.0624 0.42473,-0.24801 0.47898,-7.40363 l 0.0556,-7.33963 -0.77504,-0.0659 c -0.91001,-0.0773 -1.36542,-0.60641 -1.00871,-1.17191 0.29533,-0.46821 4.11643,-1.00822 4.36797,-0.6173 0.0855,0.13293 0.15697,3.88318 0.15875,8.3339 l 0.003,8.09222 0.58208,0.12754 c 1.09749,0.24049 1.14031,0.28004 1.07186,0.99032 l -0.0664,0.68937 h -3.01388 c -2.31453,0 -3.03898,-0.0654 -3.12208,-0.28189 z m -260.0349,-7.13729 c -5.14351,-1.1199 -8.89956,-5.8388 -8.88687,-11.16499 0.0148,-6.20874 5.20232,-11.36666 11.43189,-11.36666 1.3409,0 4.02333,0.71152 5.35534,1.4205 0.60251,0.3207 1.76983,1.25147 2.59403,2.06838 2.12583,2.10701 3.01533,4.1274 3.38139,7.68045 0.15607,1.51486 0.62589,2.02709 1.26921,1.38378 0.29744,-0.29744 0.3348,-0.60943 0.22176,-1.85166 -0.31732,-3.48718 -1.40605,-5.84218 -3.82852,-8.28138 -1.22609,-1.23456 -2.10608,-1.90871 -3.17739,-2.43417 -0.81492,-0.39971 -1.51748,-0.74667 -1.56125,-0.77104 -0.22468,-0.12508 1.26728,-3.76791 2.13585,-5.21497 2.00377,-3.33831 4.64762,-5.77575 8.07126,-7.44113 3.01064,-1.46449 4.77058,-1.86285 8.28747,-1.87586 2.45516,-0.009 3.24951,0.0704 4.63212,0.46354 3.65932,1.04048 6.5682,2.69858 8.9994,5.12978 2.20375,2.20374 3.6992,4.70539 4.80047,8.03045 0.55076,1.66288 0.59674,2.05569 0.60696,5.18583 0.008,2.58278 -0.0756,3.69984 -0.35408,4.70604 -0.41711,1.50721 -0.32903,1.96146 0.38033,1.96146 0.64147,0 0.82878,-0.37466 1.26595,-2.53218 0.7239,-3.5726 0.1556,-8.85267 -1.29718,-12.05214 -0.28557,-0.62891 -0.46449,-1.19822 -0.39758,-1.26512 0.31973,-0.31974 4.58945,-0.26897 6.12578,0.0728 7.08507,1.57628 12.02582,8.5238 11.11872,15.63477 -0.44037,3.45221 -1.73583,6.11515 -4.13635,8.50267 -1.75597,1.74648 -3.58645,2.87 -5.9212,3.63439 -1.54131,0.50461 -2.01639,0.55638 -5.29167,0.57666 l -3.59833,0.0223 -0.10584,-1.90286 c -0.0898,-1.61459 -0.16349,-1.91385 -0.48642,-1.97539 -0.77441,-0.14759 -0.99524,0.34298 -0.99524,2.21084 v 1.77325 h -2.96334 -2.96333 v -3.05405 c 0,-2.49418 -0.061,-3.11502 -0.33262,-3.38667 -0.38418,-0.38417 -0.50266,-0.40008 -0.93738,-0.12583 -0.25396,0.16021 -0.33114,0.83735 -0.38567,3.38342 l -0.0682,3.18313 h -3.37142 -3.37142 v -4.43122 c 0,-4.57847 -0.13595,-5.51711 -0.79909,-5.51711 -0.83744,0 -0.89424,0.33242 -0.89424,5.2334 v 4.72541 l -3.43959,-0.0582 -3.43958,-0.0582 -0.0584,-3.10076 c -0.0634,-3.36273 -0.21564,-3.83142 -1.09219,-3.36231 -0.41149,0.22023 -0.43686,0.41773 -0.43686,3.40135 v 3.16756 h -2.96333 -2.96334 v -1.65288 c 0,-1.78949 -0.28046,-2.46759 -0.96649,-2.33675 -0.3587,0.0684 -0.42243,0.31348 -0.51517,1.98093 l -0.10584,1.90286 -3.59833,0.0385 c -2.44726,0.0262 -4.03845,-0.0573 -4.97417,-0.26104 z m 155.8461,-12.73237 -0.68142,-0.0885 -5.6355,-17.07915 c -3.09953,-9.39354 -5.70082,-17.14863 -5.78064,-17.23355 -0.0798,-0.0849 -0.90433,-0.25983 -1.83224,-0.38871 -0.92792,-0.12887 -1.7221,-0.26901 -1.76486,-0.3114 -0.0428,-0.0424 -0.1253,-0.49903 -0.18342,-1.01475 -0.20059,-1.77963 -0.56802,-1.69339 7.03586,-1.65131 3.69675,0.0205 6.80418,0.0884 6.90541,0.15096 0.22573,0.1395 0.23903,2.00294 0.0168,2.35251 -0.0884,0.1391 -0.82242,0.35861 -1.63108,0.48779 -0.80866,0.12919 -1.51197,0.27655 -1.5629,0.32749 -0.0509,0.0509 1.20126,4.45105 2.78265,9.77804 1.5814,5.32699 3.13457,10.66357 3.4515,11.85906 0.31692,1.1955 0.60617,2.1437 0.64275,2.10711 0.0366,-0.0366 1.54661,-4.15761 3.3556,-9.15783 l 3.28907,-9.09131 -0.87321,-2.64663 c -0.48028,-1.45565 -0.93557,-2.7161 -1.01179,-2.80102 -0.0762,-0.0849 -0.89731,-0.25991 -1.82463,-0.38889 -0.92733,-0.12898 -1.75651,-0.34525 -1.84263,-0.48061 -0.24997,-0.3929 -0.18719,-2.21704 0.082,-2.38343 0.34873,-0.21553 13.14619,-0.11357 13.36624,0.10649 0.23368,0.23368 0.2384,2.13033 0.006,2.36116 -0.097,0.0963 -0.84038,0.28089 -1.65196,0.41018 -0.81155,0.12929 -1.50901,0.26853 -1.5499,0.30941 -0.0409,0.0409 1.30615,4.29813 2.99343,9.46054 1.68726,5.16241 3.32395,10.29108 3.63707,11.39704 0.31309,1.10596 0.63595,2.08327 0.71744,2.17181 0.0815,0.0885 0.40488,-0.72108 0.71865,-1.79916 0.31376,-1.07809 1.94219,-6.29403 3.61876,-11.59098 3.45756,-10.92389 3.35297,-9.7786 0.91804,-10.05321 l -1.21708,-0.13725 -2e-5,-1.41353 -2e-5,-1.41351 5.20979,0.0552 c 2.8654,0.0304 5.29427,0.10742 5.39752,0.17124 0.10325,0.0638 0.18773,0.66842 0.18773,1.34359 v 1.22756 l -1.61163,0.27568 -1.61165,0.27568 -0.59648,1.32945 c -0.32806,0.73119 -2.56129,7.31192 -4.96271,14.62384 -2.40143,7.31192 -4.75095,14.46586 -5.22119,15.89765 l -0.85496,2.60325 -1.09027,-0.0632 -1.09032,-0.0632 -3.91583,-11.37007 c -2.15371,-6.25354 -3.9704,-11.41986 -4.03712,-11.48073 -0.0667,-0.0609 -2.07522,5.1033 -4.46337,11.47591 -4.68177,12.49296 -4.30234,11.74212 -5.83343,11.54334 z m 43.68356,-0.7077 c -1.55421,-0.26086 -3.8804,-1.00803 -5.59006,-1.79552 l -1.53458,-0.70685 v -4.76104 -4.76104 l 1.11641,-0.13949 c 0.61405,-0.0767 1.44749,-0.0542 1.85209,0.0499 l 0.73567,0.18941 0.74083,3.57567 c 0.71162,3.43469 0.76615,3.59039 1.38267,3.94909 1.84103,1.07111 6.48839,1.48141 8.40467,0.74204 2.47294,-0.95417 3.72301,-4.18764 2.80892,-7.26571 -0.67344,-2.26771 -2.1936,-3.60116 -7.08577,-6.21549 -6.05426,-3.23534 -8.13977,-5.23986 -9.01796,-8.66774 -0.52421,-2.04626 -0.35706,-5.27172 0.35135,-6.77983 1.09798,-2.33743 3.82774,-4.2363 7.17506,-4.99108 1.23829,-0.27922 2.16384,-0.33036 4.23333,-0.23393 3.3525,0.15623 4.86816,0.53126 8.09898,2.004 l 1.64042,0.74777 v 4.70443 c 0,4.69975 0,4.70456 -0.47625,4.83206 -0.8294,0.22228 -2.60448,0.14368 -2.96234,-0.13117 -0.23817,-0.18291 -0.54449,-1.3728 -0.9924,-3.85481 -0.35636,-1.97463 -0.76723,-3.70592 -0.91305,-3.84732 -0.46467,-0.45058 -2.76743,-1.10429 -4.41632,-1.25371 -2.02882,-0.18385 -3.59903,0.2318 -4.61568,1.2218 -1.00066,0.97443 -1.2873,1.80209 -1.2873,3.71694 0,3.21902 1.23844,4.59006 6.6675,7.38135 3.58667,1.84405 5.60462,3.20703 7.32746,4.94916 6.09551,6.16377 2.76534,15.40825 -6.20727,17.23135 -1.73214,0.35194 -5.64896,0.40974 -7.43638,0.10974 z m 20.63602,-0.61301 c -0.28743,-0.19073 -0.447,-1.38908 -0.27206,-2.04318 0.17647,-0.65985 0.53239,-0.7907 2.83265,-1.04149 l 1.21709,-0.1327 -0.002,-13.90185 c 0,-7.64602 -0.0606,-14.39123 -0.1325,-14.98937 l -0.13067,-1.08752 -1.08458,-0.13695 c -2.47603,-0.31264 -2.42769,-0.28855 -2.57693,-1.28387 -0.0807,-0.53792 -0.0386,-1.08854 0.10357,-1.3541 0.233,-0.43536 0.36751,-0.44734 4.94165,-0.43998 l 4.70213,0.008 7.3025,9.96419 c 8.20224,11.19184 10.73663,14.66399 11.26014,15.42652 0.34013,0.49539 0.35975,-0.0646 0.36718,-10.48332 0.004,-6.05367 -0.0673,-11.12501 -0.15913,-11.26964 -0.0919,-0.14464 -1.01587,-0.38425 -2.05336,-0.53248 l -1.88635,-0.26949 -0.18553,-0.7845 c -0.10926,-0.46206 -0.10543,-1.02475 0.009,-1.36903 l 0.19486,-0.58454 5.69851,-0.0176 c 3.25347,-0.01 5.81205,0.0677 5.96312,0.18117 0.35157,0.2641 0.34266,2.14695 -0.0117,2.44092 -0.15189,0.12606 -1.05676,0.29429 -2.01083,0.37385 l -1.73469,0.14467 v 16.59396 16.59396 l -1.74625,-0.0615 -1.74625,-0.0615 -10.32032,-13.97 c -5.67618,-7.6835 -10.50483,-14.20812 -10.73034,-14.49917 -0.40726,-0.52564 -0.41008,-0.46209 -0.42174,9.54445 -0.007,5.54049 0.0499,11.35927 0.12524,12.93062 l 0.13703,2.85701 1.92046,0.25569 c 1.05625,0.14063 1.99326,0.37023 2.08222,0.51021 0.21013,0.33054 0.20926,1.87317 -0.002,2.20436 -0.11906,0.18733 -1.688,0.27615 -5.81855,0.3294 -3.11057,0.0401 -5.73541,0.0199 -5.83298,-0.0448 z M 128.44052,232.16195 c -0.28393,-0.37835 -0.87043,-1.24689 -1.30332,-1.93008 -0.6396,-1.00943 -0.74813,-1.32763 -0.57922,-1.69835 0.11472,-0.25177 1.09699,-0.94871 2.19213,-1.55536 6.0175,-3.33336 13.23592,-5.45639 20.43722,-6.01086 8.00291,-0.61618 17.25232,1.09637 24.30373,4.49991 1.10899,0.53528 1.4988,0.83585 1.54978,1.19499 0.079,0.55689 -1.74785,4.03846 -2.21272,4.21685 -0.16954,0.0651 -1.42711,-0.35932 -2.79459,-0.94307 -7.89172,-3.3688 -16.17113,-4.38862 -24.48609,-3.01609 -4.92306,0.81264 -8.59599,2.03179 -13.19337,4.37926 -1.67035,0.8529 -3.11806,1.55072 -3.21715,1.55072 -0.0991,0 -0.41246,-0.30956 -0.6964,-0.68792 z m -6.11508,-9.63083 c -0.94349,-1.07404 -2.29966,-3.52137 -2.23933,-4.0411 0.0852,-0.73426 1.27553,-1.51569 5.35662,-3.51658 8.67776,-4.25456 17.33978,-6.2539 27.09203,-6.25331 9.2465,5.5e-4 17.15723,1.68081 25.61297,5.44026 2.86734,1.27483 2.93864,1.48905 1.44089,4.32969 -0.72291,1.37107 -1.12917,1.91797 -1.4925,2.00916 -0.3359,0.0843 -1.10159,-0.15258 -2.34047,-0.72409 -8.18006,-3.77352 -17.61211,-5.53603 -26.37945,-4.92935 -8.3341,0.5767 -14.51274,2.2627 -21.92264,5.98217 -2.27013,1.13951 -4.27943,2.07222 -4.46511,2.0727 -0.18569,4.2e-4 -0.48404,-0.16582 -0.66301,-0.36955 z m -6.56952,-10.78275 c -0.66943,-0.17456 -2.69569,-3.44185 -2.69569,-4.34673 0,-0.86422 0.58023,-1.37359 3.21593,-2.82315 8.83322,-4.85804 17.89646,-7.70121 28.74573,-9.01764 2.92633,-0.35508 12.13901,-0.35415 15.13417,0.002 9.14802,1.08632 18.02448,3.57215 24.62521,6.89623 1.23099,0.61992 1.51869,0.8667 1.71941,1.47487 0.22303,0.67578 0.1692,0.87344 -0.71999,2.64393 -1.38319,2.7541 -1.74269,2.85823 -4.93288,1.42889 -6.26887,-2.80871 -12.46665,-4.57707 -19.52758,-5.57162 -3.72389,-0.52452 -13.61644,-0.52796 -17.295,-0.006 -9.30009,1.31959 -17.27906,3.95522 -24.84518,8.2069 -2.13286,1.19854 -2.56135,1.3378 -3.42413,1.11281 z"
         id="path112"
         inkscape:connector-curvature="0" />
      <path
         style="fill:#0159fe;stroke-width:0.21166667"
         d="m 127.03033,298.65207 c -2.2911,-0.91359 -2.84672,-3.95358 -1.02563,-5.61162 0.273,-0.24856 0.71067,-0.51692 0.97261,-0.59635 0.46982,-0.14248 0.47625,-0.19355 0.47625,-3.78356 v -3.63913 l 3.90822,-3.90394 3.90822,-3.90394 0.0605,-1.80653 c 0.0533,-1.59174 0.1092,-1.81585 0.46987,-1.88485 0.70258,-0.13442 0.96649,0.5435 0.96649,2.48258 v 1.79896 l -3.91583,3.93559 -3.91583,3.9356 v 3.3319 c 0,3.28696 0.007,3.33441 0.48934,3.51795 0.74313,0.28253 1.80076,1.60692 1.95965,2.45391 0.15988,0.85224 -0.32496,2.3774 -0.92976,2.92473 -0.5057,0.45765 -1.82381,0.98942 -2.41202,0.97308 -0.26568,-0.007 -0.72112,-0.10835 -1.01211,-0.22438 z m 47.75599,0.0281 c -2.62174,-0.82481 -3.00821,-4.46541 -0.62723,-5.9086 l 0.90609,-0.54921 0.007,-3.28298 0.007,-3.28298 -3.91583,-3.91154 -3.91583,-3.91154 0.003,-1.90715 c 0.004,-2.13491 0.13732,-2.50514 0.86736,-2.40191 0.48191,0.0681 0.50802,0.15491 0.56576,1.88035 l 0.0605,1.80891 3.90823,3.90394 3.90822,3.90394 6.3e-4,3.60048 6.4e-4,3.60048 0.77603,0.42333 c 1.22376,0.66758 1.65699,1.41469 1.65699,2.8575 0,1.31803 -0.3543,2.02862 -1.38891,2.78562 -0.63018,0.46109 -1.9952,0.65058 -2.81917,0.39136 z m -36.63133,-5.07194 c -1.36743,-0.9014 -1.92251,-2.63785 -1.31104,-4.1013 0.31365,-0.75068 1.46611,-1.83541 1.95002,-1.83541 0.22577,0 0.30126,-0.30613 0.30126,-1.22175 v -1.22176 l 1.79916,-1.78982 1.79917,-1.78982 0.003,-3.81467 c 0.002,-2.09807 0.084,-3.94207 0.18269,-4.09778 0.0987,-0.1557 0.4068,-0.25095 0.68467,-0.21166 l 0.50523,0.0714 0.0571,4.33973 0.0571,4.33972 -1.8033,1.79394 c -1.70194,1.69309 -1.80331,1.84476 -1.80331,2.69819 0,0.65313 0.0861,0.90425 0.31014,0.90425 0.4673,0 1.71885,1.18231 2.01925,1.90754 0.60446,1.4593 -0.21402,3.56429 -1.61322,4.14891 -1.00595,0.42032 -2.39947,0.36714 -3.13807,-0.11974 z m 24.27455,-0.009 c -1.12281,-0.68459 -1.56911,-1.59585 -1.47788,-3.01761 0.064,-0.99715 0.1905,-1.33551 0.69959,-1.87098 0.34181,-0.35952 0.88342,-0.7905 1.20356,-0.95772 0.47105,-0.24604 0.58209,-0.44952 0.58209,-1.06669 0,-0.67189 -0.21466,-0.98201 -1.80366,-2.60585 l -1.80366,-1.84319 0.0574,-4.31804 c 0.0542,-4.07653 0.0803,-4.32246 0.46675,-4.39674 0.82816,-0.1592 0.96649,0.46856 0.96649,4.38611 v 3.70286 l 1.79917,1.83859 1.79916,1.8386 v 1.13976 c 0,1.06447 0.0422,1.15844 0.63917,1.42267 1.08395,0.47981 1.77179,1.59617 1.78423,2.89582 0.0121,1.2674 -0.39919,1.99839 -1.57458,2.79835 -0.90221,0.61404 -2.38014,0.63797 -3.33784,0.0541 z m -11.81005,-7.61245 c -0.75023,-0.30383 -1.73627,-1.61847 -1.88813,-2.51734 -0.10562,-0.62517 -0.0345,-1.09607 0.26932,-1.78287 0.38623,-0.87315 1.40252,-1.84682 1.92764,-1.84682 0.15696,0 0.23191,-0.94933 0.23191,-2.93742 0,-3.0926 0.13194,-3.53997 0.99525,-3.37467 0.33892,0.0649 0.39217,0.40167 0.48642,3.07623 l 0.10583,3.00336 0.98141,0.64946 c 0.53978,0.35721 1.10046,0.93686 1.24595,1.28811 0.9179,2.21601 -0.63906,4.66329 -2.94658,4.63151 -0.53576,-0.007 -1.16982,-0.0927 -1.40902,-0.18955 z m 88.52958,-7.86072 c -0.44293,-0.10423 -1.27937,-0.39343 -1.85874,-0.64267 l -1.05342,-0.45317 0.0596,-2.34978 c 0.0644,-2.53864 0.13833,-2.67275 1.31159,-2.37828 0.40589,0.10187 0.5185,0.35124 0.74929,1.65916 0.14938,0.8466 0.3499,1.6892 0.44558,1.87244 0.36566,0.70025 3.27048,1.10128 4.52424,0.6246 0.76505,-0.29087 1.38798,-1.4134 1.38892,-2.50287 0.001,-1.72542 -0.76851,-2.58813 -3.80921,-4.26779 -2.54676,-1.40681 -3.72157,-2.51707 -4.1344,-3.9072 -0.41139,-1.38531 -0.38539,-2.37439 0.0895,-3.40325 0.4936,-1.06948 1.13441,-1.65906 2.42255,-2.22887 1.77213,-0.7839 5.30512,-0.51539 7.38752,0.56146 0.58447,0.30225 0.58487,0.30403 0.58487,2.61063 0,2.23132 -0.0159,2.31056 -0.47625,2.37983 -1.20253,0.18095 -1.35887,0.0192 -1.64476,-1.70222 -0.34942,-2.10385 -0.46617,-2.30105 -1.5323,-2.58813 -2.05527,-0.55343 -3.81263,0.14252 -4.08973,1.61961 -0.33179,1.76857 0.41304,2.70516 3.46079,4.3518 3.46171,1.87029 4.90513,3.57249 4.91054,5.79089 0.006,2.26534 -1.50811,4.16713 -3.87634,4.87042 -1.15559,0.34318 -3.57905,0.38476 -4.85978,0.0834 z m 14.0345,-0.046 c -1.23773,-0.39231 -2.60847,-1.95042 -3.02646,-3.44016 -0.66949,-2.38601 -0.35892,-5.22718 0.7515,-6.87492 2.10067,-3.11719 6.65791,-3.22782 8.20304,-0.19913 0.55369,1.08534 0.94106,3.5426 0.61952,3.93002 -0.18194,0.21923 -1.07744,0.30449 -3.65883,0.34833 l -3.41794,0.0581 0.0509,1.05833 c 0.0668,1.38926 0.59118,2.74909 1.2643,3.27856 0.86879,0.68339 2.47945,0.58414 3.76654,-0.2321 l 1.0371,-0.65771 0.38017,0.46949 c 0.20909,0.25822 0.38017,0.54934 0.38017,0.64694 0,0.26688 -1.2948,1.20084 -2.17418,1.56827 -0.89079,0.3722 -3.07094,0.39622 -4.17582,0.046 z m 3.65149,-8.89001 c -0.0616,-1.19081 -0.30132,-1.71409 -0.99306,-2.16734 -0.83045,-0.54413 -1.82738,0.0113 -2.52189,1.40498 -0.93299,1.87227 -0.90024,1.91239 1.50388,1.84182 l 2.06375,-0.0606 z m 20.26685,9.04426 c -0.17463,-0.0634 -0.72232,-0.25988 -1.21709,-0.43659 l -0.89958,-0.32131 v -1.67583 -1.67582 h 0.81298 c 0.81273,0 0.81307,4.2e-4 1.07346,1.16393 0.2933,1.31057 0.57122,1.4802 2.39455,1.46148 1.25545,-0.0129 1.85734,-0.50018 1.85734,-1.50367 0,-0.91723 -0.50378,-1.41851 -2.55387,-2.5412 -2.70907,-1.48357 -3.6814,-2.9984 -3.1622,-4.92655 0.24532,-0.91107 0.78636,-1.53289 1.80024,-2.06905 0.96648,-0.51109 3.5518,-0.4511 4.81542,0.11175 l 1.00541,0.44784 v 1.5994 1.5994 h -0.83369 c -0.82457,0 -0.83525,-0.0103 -0.97511,-0.94295 -0.21729,-1.449 -0.49847,-1.70288 -1.88602,-1.70288 -1.26135,0 -1.58747,0.22408 -1.5936,1.09501 -0.005,0.75483 0.95389,1.66691 2.89307,2.75094 1.22069,0.68238 2.03497,1.30395 2.44855,1.86905 0.55494,0.75826 0.61139,0.98021 0.54057,2.12567 -0.1473,2.38256 -1.54854,3.50789 -4.5096,3.62163 -0.93133,0.0358 -1.83621,0.0132 -2.01083,-0.0503 z m 11.68719,-0.14223 c -0.98743,-0.3164 -2.47199,-1.69413 -2.99934,-2.7835 -1.41672,-2.92655 -0.81141,-6.65169 1.39575,-8.5896 1.09955,-0.96542 2.08353,-1.32397 3.63559,-1.32478 1.61589,-8.4e-4 3.36339,0.79661 4.3045,1.96429 1.42253,1.76498 1.85001,4.81449 0.99934,7.12875 -0.56026,1.52423 -2.2066,3.22748 -3.49009,3.61071 -1.03335,0.30855 -2.87327,0.30574 -3.84575,-0.006 z m 3.1227,-1.52965 c 0.38098,-0.19701 0.82256,-0.75414 1.18516,-1.4953 1.10321,-2.25486 0.67749,-6.37199 -0.78623,-7.60362 -1.26268,-1.06248 -2.99115,-0.56381 -3.81006,1.09922 -0.43251,0.87835 -0.49734,1.31708 -0.49343,3.33953 0.004,1.96041 0.0755,2.46212 0.45373,3.175 0.89085,1.679 2.08344,2.19227 3.45083,1.48517 z m 17.57511,1.65942 c -0.17463,-0.0566 -0.72231,-0.24742 -1.21708,-0.42413 l -0.89959,-0.32131 v -1.67583 -1.67582 h 0.82264 c 0.81238,0 0.8244,0.0119 0.96508,0.94997 0.17873,1.19175 0.48865,1.50243 1.67646,1.68055 1.90549,0.28575 3.17843,-0.85973 2.43652,-2.19252 -0.1665,-0.29911 -0.75142,-0.82959 -1.29981,-1.17884 -0.54838,-0.34925 -1.56237,-0.99438 -2.25329,-1.43363 -3.31434,-2.10706 -2.61934,-6.06093 1.15633,-6.57844 1.05029,-0.14396 3.08426,0.17962 3.95305,0.6289 0.56136,0.29028 0.58636,0.37068 0.58636,1.88528 v 1.58206 h -0.82229 -0.82228 l -0.28897,-1.21708 -0.28896,-1.21709 -1.00309,-0.19378 c -1.40494,-0.27143 -2.06608,0.0502 -2.06608,1.00501 0,0.86866 0.58045,1.54546 2.02353,2.35938 2.09207,1.17998 3.03748,1.90848 3.46587,2.6707 0.51186,0.9107 0.56913,2.28554 0.13058,3.13362 -0.44579,0.86204 -1.6771,1.86912 -2.59795,2.12485 -0.80635,0.22393 -3.06934,0.27847 -3.65703,0.0882 z m 37.59516,-0.30578 c -1.15365,-0.90745 -1.27278,-1.42789 -1.36183,-5.94912 l -0.0821,-4.16863 -0.66603,-0.0647 c -0.5719,-0.0555 -0.67503,-0.15678 -0.72966,-0.7163 -0.0574,-0.58766 0.0217,-0.68514 0.80624,-0.99329 0.75222,-0.29549 0.94649,-0.51507 1.43652,-1.62382 0.52629,-1.19075 0.61591,-1.28212 1.25751,-1.28212 h 0.69086 v 1.5875 1.5875 h 1.60092 1.6009 l -0.0663,0.68792 c -0.0656,0.68052 -0.0823,0.69022 -1.548,0.90267 l -1.48167,0.21476 v 3.85256 c 0,3.38244 0.0451,3.8976 0.36928,4.22154 0.32747,0.32721 0.48103,0.33907 1.35695,0.1048 1.03767,-0.27754 1.20959,-0.21467 1.43211,0.52368 0.11636,0.38607 -0.0284,0.53607 -0.97028,1.00542 -1.40093,0.69812 -2.84217,0.74146 -3.6454,0.10963 z m 9.10433,0.13126 c -2.15604,-0.76854 -3.52717,-2.84597 -3.68569,-5.58427 -0.24024,-4.15001 2.10175,-7.08327 5.64968,-7.07605 0.7735,0.001 1.73912,0.14782 2.16607,0.32806 4.95963,2.09375 4.81165,10.60716 -0.21414,12.31962 -1.16506,0.39697 -2.8227,0.40232 -3.91592,0.0126 z m 3.7193,-1.99576 c 1.09561,-1.22609 1.51898,-3.93527 0.99604,-6.37369 -0.33253,-1.55052 -1.49708,-2.74979 -2.67017,-2.74979 -1.05449,0 -1.78101,0.53805 -2.35907,1.74707 -0.83617,1.74884 -0.78818,4.76433 0.10579,6.64823 0.78243,1.64884 2.77465,2.01822 3.92741,0.72818 z m 17.39555,2.11755 c -2.18596,-0.56123 -4.44845,-2.43158 -5.40436,-4.4677 -2.86228,-6.0968 0.56642,-13.18095 6.75014,-13.94658 1.8031,-0.22326 3.91331,0.0286 5.49559,0.65589 l 1.22679,0.48637 0.0599,2.3805 c 0.059,2.3489 0.0534,2.38082 -0.42333,2.40557 -0.56782,0.0295 -1.08477,-0.0329 -1.20019,-0.14485 -0.0451,-0.0437 -0.23944,-0.86812 -0.43182,-1.83196 -0.40335,-2.0206 -0.65725,-2.24638 -2.73603,-2.43303 -2.51326,-0.22566 -4.3362,0.83541 -5.51772,3.21171 -0.6455,1.29821 -0.73459,1.68874 -0.81922,3.59158 -0.16476,3.70487 0.99393,6.56311 3.11133,7.67496 1.80296,0.94672 4.68364,0.51183 6.80932,-1.02801 l 0.90756,-0.65744 0.51945,0.6039 0.51946,0.6039 -0.9285,0.80907 c -0.51067,0.44499 -1.54762,1.10929 -2.30433,1.47623 -1.16063,0.5628 -1.65725,0.67593 -3.175,0.72322 -0.98954,0.0308 -2.0961,-0.0202 -2.459,-0.11333 z m 20.16015,-0.12179 c -2.15603,-0.76854 -3.52717,-2.84597 -3.68569,-5.58427 -0.24024,-4.15001 2.10175,-7.08327 5.64969,-7.07605 0.77349,0.001 1.73911,0.14782 2.16606,0.32806 4.9508,2.09002 4.8027,10.6102 -0.21414,12.31962 -1.16505,0.39697 -2.8227,0.40232 -3.91592,0.0126 z m 3.7193,-1.99576 c 1.09561,-1.22609 1.51899,-3.93527 0.99604,-6.37369 -0.33252,-1.55052 -1.49707,-2.74979 -2.67017,-2.74979 -0.53095,0 -1.05366,0.15949 -1.39012,0.42416 -2.17107,1.70776 -2.07353,7.74188 0.1477,9.13695 0.93303,0.58601 2.16736,0.4008 2.91655,-0.43763 z m 8.22793,1.93578 c -1.5255,-0.77787 -1.59497,-1.03208 -1.66713,-6.09998 l -0.0646,-4.53595 h -0.53143 c -1.10223,0 -1.82238,-0.93943 -1.08566,-1.41625 0.4651,-0.30101 3.83923,-0.65217 4.1275,-0.42956 0.19817,0.15303 0.26459,1.43463 0.26459,5.10547 0,4.09335 0.0543,4.97869 0.3295,5.37158 0.58871,0.84051 2.07751,0.57087 3.23412,-0.58574 l 0.66971,-0.66973 v -3.66083 -3.66083 l -0.85973,-0.13748 c -0.81697,-0.13063 -0.85646,-0.17128 -0.79375,-0.81711 l 0.066,-0.67964 1.905,-0.235 c 1.21088,-0.14938 2.0001,-0.16164 2.16601,-0.0337 0.19183,0.14799 0.27595,1.61125 0.3175,5.52298 l 0.0565,5.32164 0.79375,0.0657 c 0.75066,0.0621 0.79375,0.10523 0.79375,0.79375 0,0.60862 -0.0781,0.73099 -0.47625,0.74592 -0.26194,0.01 -1.04775,0.0919 -1.74625,0.18245 -1.45684,0.1888 -1.79917,0.0249 -1.79917,-0.86123 0,-0.33499 -0.0577,-0.60908 -0.12829,-0.60908 -0.0706,0 -0.48548,0.28289 -0.92204,0.62865 -0.43654,0.34576 -1.05177,0.72676 -1.36715,0.84667 -0.87743,0.3336 -2.47445,0.25929 -3.28247,-0.15273 z m 13.42579,0.019 c -1.77942,-0.93809 -2.65959,-2.55591 -2.80816,-5.16155 -0.12546,-2.20007 0.27091,-3.77782 1.28206,-5.10355 1.66775,-2.18655 3.72464,-2.81725 6.71193,-2.05805 0.38481,0.0978 0.52906,-1.23177 0.31852,-2.93556 -0.12182,-0.98579 -0.19338,-1.11125 -0.63394,-1.11125 -0.86098,0 -1.16624,-0.22649 -1.16624,-0.86528 0,-0.68809 0.003,-0.68909 2.61569,-0.98129 1.29419,-0.14472 1.68632,-0.12574 1.76739,0.0855 0.0573,0.14933 0.11849,3.91659 0.13596,8.37169 l 0.0318,8.1002 0.84667,0.10583 c 0.77317,0.0967 0.84666,0.1602 0.84666,0.73216 0,0.54558 -0.0953,0.64581 -0.73933,0.77753 -0.40663,0.0832 -1.26378,0.18232 -1.90474,0.22034 -1.14339,0.0678 -1.16953,0.0565 -1.38157,-0.59874 l -0.21614,-0.66787 -0.55585,0.40492 c -1.38153,1.00637 -3.90458,1.34189 -5.1507,0.68495 z m 4.55081,-2.29412 c 1.03169,-0.71494 1.09792,-1.02419 1.01545,-4.74009 -0.0623,-2.8043 -0.0692,-2.83974 -0.63623,-3.26269 -0.35153,-0.2622 -1.02525,-0.46509 -1.74159,-0.52449 -1.10494,-0.0916 -1.20769,-0.0575 -1.89482,0.62964 -0.92837,0.92837 -1.2664,2.1197 -1.27997,4.51096 -0.009,1.62912 0.062,2.03238 0.49179,2.78462 0.27641,0.48379 0.7044,0.98263 0.95106,1.10852 0.72392,0.36945 2.1725,0.13235 3.09431,-0.50647 z m -163.98874,2.28029 -2.59292,-0.0708 v -0.60584 c 0,-0.6346 0.30649,-0.86279 1.15883,-0.86279 0.26907,0 0.54703,-0.15066 0.61769,-0.33481 0.0707,-0.18415 0.12848,-2.18739 0.12848,-4.45164 0,-3.11486 -0.0644,-4.13395 -0.26458,-4.18714 -1.3633,-0.36225 -1.53699,-0.47412 -1.60156,-1.03156 -0.0368,-0.318 -0.0368,-0.58451 0,-0.59226 0.0368,-0.008 0.97185,-0.13656 2.07781,-0.28627 2.24756,-0.30424 2.54,-0.21369 2.54,0.7865 v 0.64597 l 0.47625,-0.43547 c 1.62924,-1.48973 4.21502,-1.62446 5.73929,-0.29904 0.73002,0.63479 0.85623,1.38028 0.97188,5.74072 l 0.11508,4.33917 0.74083,0.10583 c 0.6854,0.0979 0.74084,0.16127 0.74084,0.84667 0,0.67028 -0.0554,0.73957 -0.58209,0.7276 -0.32014,-0.007 -1.68045,-0.0311 -3.02289,-0.0529 -2.04074,-0.0332 -2.46259,-0.0965 -2.57369,-0.38596 -0.20617,-0.53727 0.22442,-1.01905 1.01475,-1.1354 l 0.71892,-0.10583 0.0641,-3.59834 c 0.0691,-3.87604 -0.10987,-5.02548 -0.84366,-5.41819 -0.72074,-0.38573 -1.89767,0.0952 -2.90361,1.18654 l -0.87846,0.95301 0.0583,3.30988 c 0.0629,3.57105 0.0421,3.51013 1.28824,3.77342 0.52193,0.11028 0.58688,0.20924 0.52916,0.80636 -0.0757,0.7833 0.18365,0.73916 -3.71703,0.63261 z m 37.24036,-0.004 -3.02923,-0.0651 0.0659,-0.68203 c 0.06,-0.62131 0.13654,-0.68787 0.85964,-0.74772 l 0.79375,-0.0657 v -4.511 -4.511 l -0.85973,-0.13748 c -0.81798,-0.1308 -0.85653,-0.17068 -0.79375,-0.82081 0.0653,-0.67681 0.0791,-0.68463 1.44181,-0.82045 0.75671,-0.0754 1.70921,-0.17067 2.11667,-0.21166 0.73112,-0.0736 0.74223,-0.0625 0.84666,0.84468 l 0.10584,0.91922 0.52916,-0.57756 c 1.23798,-1.35118 3.6122,-1.70285 4.03253,-0.5973 0.10391,0.2733 0.15193,0.6168 0.10672,0.76333 -0.0452,0.14653 -0.14217,0.53852 -0.21543,0.87108 -0.12698,0.57637 -0.17486,0.59852 -1.02309,0.47347 -1.13951,-0.168 -2.18157,0.13787 -2.9377,0.8623 l -0.59803,0.57294 v 3.32442 c 0,3.6641 -0.032,3.58138 1.3857,3.58138 0.86458,0 1.30486,0.59318 0.94264,1.27 -0.12461,0.23283 -0.34227,0.40235 -0.4837,0.37671 -0.14142,-0.0256 -1.62029,-0.0759 -3.28636,-0.11173 z m 25.32765,-0.006 c -2.49891,-0.0471 -3.12481,-0.11908 -3.22127,-0.37042 -0.21628,-0.56365 0.1121,-0.9473 0.92166,-1.07676 0.77904,-0.12457 0.79968,-0.15163 0.92757,-1.21589 0.0719,-0.59866 0.13159,-3.91656 0.13261,-7.3731 l 0.002,-6.28463 -0.89958,-0.1779 c -0.81633,-0.16144 -0.89958,-0.23604 -0.89958,-0.80621 v -0.6283 l 3.22582,-0.0146 c 2.84158,-0.0129 3.23922,0.0277 3.33853,0.3406 0.19842,0.62516 -0.11303,0.99646 -0.94784,1.12995 l -0.81316,0.13003 -0.13902,2.17035 c -0.0765,1.19369 -0.10946,4.50101 -0.0733,7.34959 l 0.0657,5.17925 0.89958,0.17779 c 0.80912,0.15992 0.89958,0.23914 0.89958,0.78785 0,0.33553 -0.0714,0.63948 -0.15875,0.67546 -0.0873,0.036 -1.55446,0.0391 -3.26032,0.007 z m 7.12324,-0.0328 -2.54,-0.12043 -0.0663,-0.5747 c -0.0676,-0.58654 0.0358,-0.6522 1.33627,-0.84858 0.40594,-0.0613 0.42569,-0.24861 0.48047,-4.55907 l 0.0571,-4.49516 h -0.5473 c -0.77007,0 -1.36612,-0.3672 -1.36612,-0.84162 0,-0.58428 0.32137,-0.71916 2.32833,-0.97719 2.00694,-0.25803 2.32834,-0.15145 2.32834,0.77209 v 0.59476 l 1.03213,-0.69457 c 1.21795,-0.81961 2.27793,-1.03653 3.6083,-0.73839 0.96704,0.21672 1.74208,0.76759 2.20525,1.56742 0.15407,0.26606 0.28448,2.07482 0.35098,4.86834 l 0.10584,4.445 0.74083,0.10583 c 0.6854,0.0979 0.74083,0.16127 0.74083,0.84667 0,0.63164 -0.0702,0.7386 -0.47625,0.72571 -0.26193,-0.008 -1.61283,-0.0321 -3.00198,-0.0529 -2.34239,-0.0351 -2.53572,-0.0693 -2.66332,-0.47129 -0.18614,-0.58646 0.21247,-1.01016 1.02441,-1.08886 l 0.67214,-0.0651 0.0623,-3.59834 c 0.0732,-4.22594 -0.0104,-4.86096 -0.69863,-5.31197 -0.73334,-0.48051 -1.6779,-0.20482 -2.78054,0.81154 l -0.92233,0.85018 v 3.57802 c 0,2.67783 0.0666,3.59853 0.26458,3.65953 0.14552,0.0448 0.53232,0.14036 0.85954,0.21229 0.52112,0.11454 0.58678,0.21524 0.52916,0.81143 -0.0766,0.79304 0.0843,0.76715 -3.66412,0.58942 z m 56.09168,0 c -2.36887,-0.11232 -2.54426,-0.1502 -2.60315,-0.56229 -0.0786,-0.55036 0.29767,-0.87522 1.12148,-0.96816 l 0.635,-0.0716 0.0557,-7.35542 0.0556,-7.35541 h -0.62261 c -0.5678,0 -1.29259,-0.45637 -1.28463,-0.80887 0.0121,-0.53203 0.54837,-0.75863 2.31563,-0.97831 1.43739,-0.17866 1.98741,-0.17915 2.13451,-0.002 0.11335,0.13657 0.22194,3.71921 0.25367,8.36934 l 0.0555,8.13057 0.74084,0.10583 c 0.68539,0.0979 0.74083,0.16127 0.74083,0.84667 0,0.86604 0.20104,0.82975 -3.59833,0.6496 z m -262.14919,-7.2414 c -2.58775,-0.42748 -5.52019,-2.30858 -7.14214,-4.58155 -3.27173,-4.58492 -2.76708,-10.66743 1.21547,-14.64998 1.68147,-1.68147 3.50357,-2.64247 5.90867,-3.1163 5.71611,-1.12614 11.51516,2.55949 13.06276,8.30213 0.15687,0.58208 0.28634,1.64684 0.28773,2.36613 0.002,1.24538 0.31556,1.97304 0.84917,1.97304 1.29236,0 0.99567,-3.87 -0.54577,-7.11899 -1.20494,-2.53972 -3.11486,-4.47016 -5.83946,-5.9022 l -1.41107,-0.74165 0.21248,-0.7915 c 0.35919,-1.33796 1.98054,-4.58967 2.94133,-5.89895 2.678,-3.64939 6.38039,-6.13195 10.88666,-7.29985 2.57835,-0.66823 6.59315,-0.6678 9.10167,0.001 1.97686,0.52704 4.65478,1.76228 6.39355,2.94915 1.38473,0.94521 3.89282,3.47549 4.8633,4.90634 3.12228,4.6034 4.03275,10.54568 2.48426,16.21386 -0.17001,0.62234 0.44296,1.21305 0.96747,0.93234 1.0827,-0.57944 1.70975,-6.38661 1.07435,-9.94954 -0.2904,-1.62835 -0.96836,-3.80481 -1.53936,-4.94176 -0.22491,-0.44784 -0.34801,-0.87518 -0.27355,-0.94964 0.0745,-0.0745 1.15267,-0.16917 2.39601,-0.21047 2.77901,-0.0923 4.51664,0.27449 7.02314,1.48249 2.5387,1.22351 5.06899,3.75245 6.31609,6.31271 1.13978,2.33995 1.52311,3.89962 1.54138,6.2714 0.0324,4.21051 -1.4135,7.70842 -4.36354,10.5561 -3.13875,3.02985 -6.76311,4.23576 -12.2781,4.08522 l -2.32833,-0.0636 -0.10584,-1.905 c -0.10064,-1.81159 -0.1306,-1.9085 -0.61106,-1.97643 -0.72067,-0.1019 -0.8637,0.26763 -0.86736,2.24101 l -0.003,1.74618 h -2.96334 -2.96333 v -3.05405 c 0,-2.49418 -0.061,-3.11502 -0.33262,-3.38667 -0.41774,-0.41774 -0.61035,-0.41774 -1.02809,0 -0.27165,0.27165 -0.33262,0.89249 -0.33262,3.38667 v 3.05405 h -3.38667 -3.38667 v -4.56475 c 0,-4.66163 -0.10886,-5.38358 -0.81178,-5.38358 -0.8232,0 -0.88155,0.34638 -0.88155,5.2334 v 4.72541 l -3.43959,-0.0582 -3.43958,-0.0582 -0.0584,-3.21538 c -0.0547,-3.01471 -0.0851,-3.22386 -0.48641,-3.35123 -0.90995,-0.28881 -1.04273,0.15984 -1.04273,3.52336 v 3.14909 h -2.96333 -2.96334 v -1.75684 c 0,-1.80795 -0.17783,-2.26483 -0.88155,-2.26483 -0.58281,0 -0.81178,0.68265 -0.81178,2.42025 v 1.60142 l -3.43958,-0.0247 c -1.89177,-0.0136 -3.96346,-0.11128 -4.60375,-0.21705 z"
         id="path110"
         inkscape:connector-curvature="0" />
    </g>
  </g>
</svg>
